<?xml version="1.0" encoding="UTF-8"?>
<svg width="50px" height="100px" viewBox="0 0 50 100" version="1.1" xmlns="http://www.w3.org/2000/svg" xmlns:xlink="http://www.w3.org/1999/xlink">
    <!-- Generator: Sketch 64 (93537) - https://sketch.com -->
    <title>apache</title>
    <desc>Created with Sketch.</desc>
    <g id="Page-1" stroke="none" stroke-width="1" fill="none" fill-rule="evenodd">
        <g id="Desktop-HD" transform="translate(-349.000000, -1430.000000)">
            <g id="apache" transform="translate(349.000000, 1430.000000)">
                <path d="M42.5473037,0.499053926 C40.9791864,1.42384106 38.3751183,4.04446547 35.2649007,7.84058657 L38.1220435,13.2332072 C40.12772,10.3642384 42.1641438,7.78382214 44.2194891,5.5794702 C44.3779565,5.40444655 44.4607379,5.32166509 44.4607379,5.32166509 C44.3803217,5.40681173 44.2999054,5.49432356 44.2194891,5.5794702 C43.5548723,6.31267739 41.5373699,8.66603595 38.4933775,13.3396405 C41.4238411,13.1929991 45.9271523,12.5946074 49.6002838,11.9654683 C50.6929991,5.84437086 48.5288553,3.04162725 48.5288553,3.04162725 C48.5288553,3.04162725 45.7781457,-1.40964995 42.5473037,0.499053926 Z" id="Path" fill="#000000" fill-rule="nonzero"></path>
                <path d="M37.7105014,31.2639689 C37.7317881,31.2579083 37.7530747,31.254878 37.7743614,31.2488174 L37.3628193,31.3063932 C37.3368023,31.3215447 37.3155156,31.3366962 37.2894986,31.3488174 C37.4314096,31.3215447 37.5709555,31.2912417 37.7105014,31.2639689 Z" id="Path"></path>
                <path d="M34.7942289,40.9200568 C34.5600757,40.9720908 34.3211921,41.012299 34.0799432,41.0477767 C34.3211921,41.012299 34.5600757,40.9697256 34.7942289,40.9200568 Z" id="Path"></path>
                <path d="M14.973983,62.5875118 C15.0047304,62.5070956 15.0354778,62.4266793 15.06386,62.346263 C15.6929991,60.6859035 16.3150426,59.0728477 16.9323557,57.5 C17.6253548,55.7355724 18.3088931,54.0279092 18.9853359,52.37228 C19.6972564,50.6267739 20.3997162,48.9403974 21.0927152,47.3107852 C21.8188269,45.6007569 22.5354778,43.9545885 23.2379376,42.3699149 C23.8103122,41.0808893 24.3732261,39.8320719 24.9290445,38.6234626 C25.1135289,38.2213813 25.2980132,37.8216651 25.4824976,37.4266793 C25.846736,36.6438032 26.2086093,35.8751183 26.5633869,35.1253548 C26.8921476,34.4323557 27.218543,33.755913 27.5425733,33.0912961 C27.6490066,32.8689688 27.7578051,32.6513718 27.8642384,32.4314096 C27.8807947,32.3959319 27.8997162,32.3604541 27.9162725,32.3249763 L27.5662252,32.3628193 L27.2871334,31.8140965 C27.2611164,31.8684957 27.2327342,31.9205298 27.2043519,31.974929 C26.7029328,32.9706717 26.2062441,33.9758751 25.7142857,34.9905393 C25.4304636,35.577105 25.1466414,36.166036 24.8651845,36.7573321 C24.0846736,38.3964049 23.3159886,40.0496689 22.5614948,41.7147588 C21.7975402,43.3964049 21.0501419,45.0875118 20.3169347,46.7809839 C19.5955535,48.4437086 18.8907285,50.1087985 18.1977294,51.769158 C17.5070956,53.4271523 16.833018,55.0804163 16.1731315,56.7218543 C15.4848628,58.4366131 14.8155156,60.1348155 14.1674551,61.8140965 C14.0208136,62.192526 13.8741722,62.5709555 13.7298959,62.9493851 C13.2095553,64.3046358 12.7034059,65.640965 12.2090823,66.9607379 L12.6490066,67.8287606 L13.0416272,67.7861873 C13.0558184,67.7459792 13.0700095,67.7057711 13.0842006,67.6679281 C13.7204352,65.9295175 14.3495743,64.2360454 14.973983,62.5875118 Z" id="Path"></path>
                <path d="M33.9283633,41.1181504 L33.9283633,41.1181504 C33.9383633,41.1181504 33.9383633,41.1081504 33.9483633,41.1081504 C33.9483633,41.1081504 33.9383633,41.1081504 33.9283633,41.1181504 Z" id="Path"></path>
                <path d="M32.9517502,45.7852412 C32.5875118,45.8514664 32.2114475,45.9153264 31.8259224,45.9815516 C31.8235572,45.9815516 31.8211921,45.9839167 31.8188269,45.9839167 C32.012772,45.9555345 32.2043519,45.9271523 32.3935667,45.8940397 C32.5827815,45.8609272 32.7672658,45.8254494 32.9517502,45.7852412 Z" id="Path" fill="#BE202E" fill-rule="nonzero"></path>
                <path d="M32.9517502,45.7852412 C32.5875118,45.8514664 32.2114475,45.9153264 31.8259224,45.9815516 C31.8235572,45.9815516 31.8211921,45.9839167 31.8188269,45.9839167 C32.012772,45.9555345 32.2043519,45.9271523 32.3935667,45.8940397 C32.5827815,45.8609272 32.7672658,45.8254494 32.9517502,45.7852412 Z" id="Path" fill="#BE202E" fill-rule="nonzero" opacity="0.35"></path>
                <path d="M33.9072848,41.0714286 C33.9072848,41.0714286 33.9049196,41.0714286 33.9049196,41.0737938 C33.9025544,41.0737938 33.9025544,41.0761589 33.9001892,41.0761589 C33.961684,41.0690634 34.0208136,41.0572375 34.0799432,41.0501419 C34.3235572,41.0146641 34.5624409,40.9720908 34.7942289,40.9224219 C34.5033113,40.9697256 34.2076632,41.0217597 33.9072848,41.0714286 L33.9072848,41.0714286 L33.9072848,41.0714286 Z" id="Path" fill="#BE202E" fill-rule="nonzero"></path>
                <path d="M33.9072848,41.0714286 C33.9072848,41.0714286 33.9049196,41.0714286 33.9049196,41.0737938 C33.9025544,41.0737938 33.9025544,41.0761589 33.9001892,41.0761589 C33.961684,41.0690634 34.0208136,41.0572375 34.0799432,41.0501419 C34.3235572,41.0146641 34.5624409,40.9720908 34.7942289,40.9224219 C34.5033113,40.9697256 34.2076632,41.0217597 33.9072848,41.0714286 L33.9072848,41.0714286 L33.9072848,41.0714286 Z" id="Path" fill="#BE202E" fill-rule="nonzero" opacity="0.35"></path>
                <path d="M29.6996216,27.166509 C30.5676443,25.5439924 31.4474929,23.9569536 32.3368023,22.4124882 C33.2592242,20.8088931 34.1934721,19.2526017 35.1371807,17.7530747 C35.1915799,17.6655629 35.2483444,17.5756859 35.3027436,17.4858089 C36.2346263,16.0099338 37.1759697,14.5908231 38.1244087,13.2332072 L35.2672658,7.84058657 C35.0520341,8.10312204 34.8368023,8.37038789 34.6168401,8.64238411 C33.7937559,9.66887417 32.9375591,10.7734153 32.0600757,11.9441816 C31.0714286,13.2639546 30.0543992,14.6736045 29.0208136,16.1518448 C28.0676443,17.5189215 27.1002838,18.9498581 26.1329234,20.4304636 C25.3098392,21.6911069 24.4820246,22.9895932 23.6613056,24.3211921 C23.6305582,24.3708609 23.5998108,24.4205298 23.5690634,24.4701987 L27.2871334,31.8140965 C28.0818354,30.2412488 28.8859981,28.6896878 29.6996216,27.166509 Z" id="Path" fill="#000000" fill-rule="nonzero"></path>
                <path d="M12.7649007,68.5454115 C12.2729423,69.8982971 11.7786187,71.2748344 11.28193,72.6821192 C11.2748344,72.7034059 11.2677389,72.7223273 11.2606433,72.743614 C11.1896878,72.9422895 11.1210974,73.140965 11.0501419,73.3396405 C10.7166509,74.2880795 10.4257332,75.1419111 9.76111637,77.0837275 C10.8561968,77.5827815 11.7360454,78.897824 12.5685904,80.3902554 C12.4810785,78.84579 11.8401135,77.3935667 10.6267739,76.2701041 C16.0264901,76.5137181 20.6788079,75.1490066 23.0842006,71.2015137 C23.2994324,70.8491012 23.4957427,70.4801325 23.6731315,70.0851466 C22.5804163,71.4711447 21.2251656,72.0600757 18.6731315,71.9157994 C18.6684011,71.9181646 18.6613056,71.9205298 18.6565752,71.922895 C18.6613056,71.9205298 18.6684011,71.9181646 18.6731315,71.9157994 C22.4290445,70.2341533 24.3140965,68.6210974 25.9791864,65.9460738 C26.3741722,65.3122044 26.7573321,64.6192053 27.1499527,63.8505203 C23.8647114,67.2232734 20.0591296,68.1835383 16.0501419,67.4550615 L13.0439924,67.7838221 C12.9493851,68.0368969 12.8571429,68.2899716 12.7649007,68.5454115 Z" id="Path" fill="#000000" fill-rule="nonzero"></path>
                <path d="M14.1674551,61.8117313 C14.8178808,60.1324503 15.487228,58.4342479 16.1731315,56.7194891 C16.8306528,55.0780511 17.5070956,53.4271523 18.1977294,51.7667928 C18.8883633,50.1064333 19.5955535,48.4437086 20.3169347,46.7786187 C21.0501419,45.0851466 21.7999054,43.3940397 22.5614948,41.7123936 C23.3159886,40.0496689 24.0846736,38.3940397 24.8651845,36.7549669 C25.1466414,36.1636708 25.4304636,35.5747398 25.7142857,34.9881741 C26.2062441,33.9735099 26.7029328,32.9683065 27.2043519,31.9725639 C27.230369,31.9181646 27.2587512,31.8661306 27.2871334,31.8117313 L23.5690634,24.4678335 C23.5075686,24.5671712 23.448439,24.666509 23.3869442,24.7658467 C22.5212867,26.1802271 21.6579943,27.62772 20.8112583,29.1059603 C19.9550615,30.5983917 19.115421,32.1192053 18.294702,33.6613056 C17.6017029,34.962157 16.9252602,36.2748344 16.2677389,37.5993377 C16.1352886,37.8689688 16.0052034,38.1338694 15.8751183,38.4011353 C15.06386,40.0685904 14.333018,41.679281 13.6707663,43.2284768 C12.9210028,44.9834437 12.2611164,46.6603595 11.6840114,48.2497635 C11.3032167,49.295175 10.9578997,50.3051088 10.640965,51.2748344 C10.3807947,52.102649 10.1324503,52.9328288 9.89829707,53.7582781 C9.34247871,55.704825 8.86471145,57.6466414 8.47209082,59.5813623 L12.2090823,66.9583728 C12.7034059,65.6385998 13.2095553,64.3022706 13.7298959,62.9470199 C13.8741722,62.5709555 14.0208136,62.1901608 14.1674551,61.8117313 Z" id="Path" fill="#000000" fill-rule="nonzero"></path>
                <path d="M8.42242195,59.8438978 C7.95411542,62.2043519 7.62062441,64.5553453 7.45269631,66.8921476 C7.44796594,66.974929 7.4385052,67.0553453 7.43377483,67.1381268 C6.26773888,65.269631 3.14569536,63.4460738 3.15279092,63.4626301 C5.38789026,66.7029328 7.08372753,69.9195837 7.33680227,73.077105 C6.14001892,73.3230842 4.50094607,72.9683065 2.6064333,72.2705771 C4.58136235,74.0846736 6.06433302,74.5860927 6.64143803,74.7209082 C4.82734153,74.8344371 2.93755913,76.0808893 1.03358562,77.5165563 C3.81740776,76.3812677 6.0666982,75.9318827 7.67738884,76.2961211 C5.12298959,83.5288553 2.5614948,91.5137181 0,99.9905393 C0.785241249,99.7587512 1.25354778,99.231315 1.51608325,98.5170293 C1.97256386,96.9820246 5.00236518,86.9110691 9.74929044,73.6731315 C9.88410596,73.2970672 10.0212867,72.9186377 10.1584674,72.537843 C10.1963103,72.4314096 10.2365184,72.3249763 10.2743614,72.2209082 C10.7757805,70.8325449 11.2961211,69.4157994 11.833018,67.9706717 C11.9560076,67.6419111 12.0789972,67.3131504 12.2019868,66.9820246 C12.2043519,66.974929 12.2067171,66.9678335 12.2090823,66.9631031 L8.47682119,59.5884579 C8.4602649,59.6712394 8.43897824,59.756386 8.42242195,59.8438978 Z" id="Path" fill="#000000" fill-rule="nonzero"></path>
                <path d="M27.8642384,32.4337748 C27.7578051,32.6513718 27.6513718,32.871334 27.5425733,33.0936613 C27.2209082,33.7582781 26.8945128,34.4347209 26.5633869,35.12772 C26.2062441,35.8774834 25.846736,36.6438032 25.4824976,37.4290445 C25.2980132,37.8240303 25.115894,38.2213813 24.9290445,38.6258278 C24.3732261,39.8344371 23.8103122,41.0832545 23.2379376,42.37228 C22.5354778,43.9569536 21.8188269,45.603122 21.0927152,47.3131504 C20.3997162,48.9427625 19.6972564,50.6291391 18.9853359,52.3746452 C18.3088931,54.0302744 17.6253548,55.7403027 16.9323557,57.5023652 C16.3150426,59.0752129 15.6929991,60.6882687 15.06386,62.3486282 C15.0331126,62.4290445 15.0023652,62.5094607 14.973983,62.589877 C14.3495743,64.2384106 13.7204352,65.9318827 13.0865658,67.6679281 C13.0723746,67.7081362 13.0581835,67.7483444 13.0439924,67.7861873 L16.0501419,67.4574267 C15.9910123,67.4456008 15.9295175,67.4385052 15.8703879,67.4266793 C19.4654683,66.9796594 24.243141,64.2928098 27.3320719,60.9768212 C28.755913,59.448912 30.0473037,57.6466414 31.2417219,55.5368969 C32.1310312,53.9664144 32.9659413,52.2256386 33.7606433,50.2980132 C34.4560076,48.6140019 35.1229896,46.7904447 35.7663198,44.8131504 C34.9408704,45.2483444 33.9947966,45.5676443 32.9517502,45.7899716 C32.769631,45.8278146 32.5827815,45.8656575 32.3935667,45.8987701 C32.2043519,45.9318827 32.012772,45.9626301 31.8188269,45.9886471 L31.8188269,45.9886471 L31.8188269,45.9886471 C31.8211921,45.9886471 31.8235572,45.9862819 31.8259224,45.9862819 C35.1773888,44.6972564 37.2918638,42.2067171 38.8292337,39.1579943 C37.9470199,39.7587512 36.5137181,40.5463576 34.7965941,40.9247871 C34.5624409,40.9768212 34.3235572,41.0170293 34.0823084,41.0525071 C34.0208136,41.0619678 33.961684,41.0714286 33.9025544,41.0785241 L33.9025544,41.0785241 L33.9025544,41.0785241 C33.9049196,41.0785241 33.9049196,41.0761589 33.9072848,41.0761589 C33.9072848,41.0761589 33.90965,41.0761589 33.90965,41.0737938 L33.90965,41.0737938 C35.0733207,40.5865658 36.0548723,40.0425733 36.9063387,39.3992431 C37.0884579,39.2620624 37.2658467,39.1201514 37.43614,38.9711447 C37.6963103,38.7464522 37.9422895,38.5099338 38.1788079,38.2615894 C38.3301798,38.103122 38.4768212,37.9399243 38.6187323,37.769631 C38.9522233,37.37228 39.2644276,36.9441816 39.5577105,36.4782403 C39.6475875,36.3363292 39.7350993,36.192053 39.8226112,36.0430464 C39.9337748,35.8278146 40.0402081,35.6173132 40.1442763,35.4091769 C40.6125828,34.4678335 40.9862819,33.628193 41.2842952,32.8902554 C41.4333018,32.5212867 41.5633869,32.1807001 41.6745506,31.8637654 C41.7194891,31.7384106 41.7620624,31.615421 41.8022706,31.4971618 C41.9205298,31.1423841 42.0175024,30.8278146 42.0931883,30.551088 C42.2067171,30.1371807 42.2753075,29.8084201 42.3131504,29.5695364 L42.3131504,29.5695364 L42.3131504,29.5695364 C42.1996216,29.6594134 42.0695364,29.7492904 41.922895,29.8368023 C40.910596,30.4422895 39.1745506,30.9910123 37.7743614,31.2488174 L40.5345317,30.9460738 L37.7743614,31.2488174 C37.7530747,31.2535478 37.7317881,31.255913 37.7105014,31.2606433 C37.5709555,31.2842952 37.4290445,31.3055818 37.2871334,31.3292337 C37.3131504,31.3174078 37.3344371,31.3055818 37.3604541,31.2961211 L27.9162725,32.3320719 C27.8997162,32.3651845 27.8831599,32.3982971 27.8642384,32.4337748 Z" id="Path" fill="#000000" fill-rule="nonzero"></path>
                <path d="M38.4957427,13.3420057 C37.6561022,14.6310312 36.7384106,16.0950804 35.7521287,17.7530747 C35.7000946,17.8382214 35.6480605,17.9280984 35.5960265,18.0156102 C34.7445601,19.4512772 33.8386944,21.0264901 32.8878903,22.7530747 C32.0648061,24.243141 31.2086093,25.8420057 30.3192999,27.5614948 C29.5435194,29.0586566 28.7417219,30.6480605 27.9186377,32.3297067 L37.3628193,31.2937559 C40.1135289,30.0283822 41.3434248,28.8836329 42.537843,27.2280038 C42.8547777,26.7715232 43.1740776,26.2937559 43.4910123,25.7994324 C44.4607379,24.2857143 45.4115421,22.6182592 46.2630085,20.9602649 C47.0837275,19.359035 47.807474,17.7719962 48.3632923,16.3410596 C48.7157048,15.4304636 48.999527,14.5837275 49.1958373,13.8410596 C49.3684957,13.1859035 49.5033113,12.56386 49.6073794,11.9701987 C45.9295175,12.5969726 41.4262062,13.1977294 38.4957427,13.3420057 Z" id="Path" fill="#000000" fill-rule="nonzero"></path>
                <path d="M32.3935667,45.8940397 C32.2043519,45.9308818 32.012772,45.9650924 31.8188269,45.9940397 L31.8188269,45.9940397 C32.012772,45.9650924 32.2043519,45.9308818 32.3935667,45.8940397 Z" id="Path" fill="#BE202E" fill-rule="nonzero"></path>
                <path d="M32.3935667,45.8940397 C32.2043519,45.9308818 32.012772,45.9650924 31.8188269,45.9940397 L31.8188269,45.9940397 C32.012772,45.9650924 32.2043519,45.9308818 32.3935667,45.8940397 Z" id="Path" fill="#BE202E" fill-rule="nonzero" opacity="0.35"></path>
                <path d="M32.3935667,45.8940397 C32.2043519,45.9308818 32.012772,45.9650924 31.8188269,45.9940397 L31.8188269,45.9940397 C32.012772,45.9650924 32.2043519,45.9308818 32.3935667,45.8940397 Z" id="Path" fill="#000000" fill-rule="nonzero"></path>
                <path d="M33.897824,41.1501419 C33.9593188,41.1228692 34.0184484,41.0774146 34.0775781,41.0501419 C34.0184484,41.0774146 33.9593188,41.1137783 33.897824,41.1501419 L33.897824,41.1501419 Z" id="Path" fill="#BE202E" fill-rule="nonzero"></path>
                <path d="M33.897824,41.1501419 C33.9593188,41.1228692 34.0184484,41.0774146 34.0775781,41.0501419 C34.0184484,41.0774146 33.9593188,41.1137783 33.897824,41.1501419 L33.897824,41.1501419 Z" id="Path" fill="#BE202E" fill-rule="nonzero" opacity="0.35"></path>
                <path d="M33.897824,41.1501419 C33.9593188,41.1228692 34.0184484,41.0774146 34.0775781,41.0501419 C34.0184484,41.0774146 33.9593188,41.1137783 33.897824,41.1501419 L33.897824,41.1501419 Z" id="Path" fill="#000000" fill-rule="nonzero"></path>
                <path d="M33.9392763,41.1157852 C33.9392763,41.1157852 33.9492763,41.1157852 33.9492763,41.1057852 L33.9492763,41.1057852 L33.9492763,41.1057852 L33.9492763,41.1057852 C33.9492763,41.1057852 33.9392763,41.1057852 33.9392763,41.1157852 Z" id="Path" fill="#BE202E" fill-rule="nonzero"></path>
                <path d="M33.9392763,41.1157852 C33.9392763,41.1157852 33.9492763,41.1157852 33.9492763,41.1057852 L33.9492763,41.1057852 L33.9492763,41.1057852 L33.9492763,41.1057852 C33.9492763,41.1057852 33.9392763,41.1057852 33.9392763,41.1157852 Z" id="Path" fill="#BE202E" fill-rule="nonzero" opacity="0.35"></path>
                <path d="M33.9392763,41.1157852 C33.9392763,41.1157852 33.9492763,41.1157852 33.9492763,41.1057852 L33.9492763,41.1057852 L33.9492763,41.1057852 L33.9492763,41.1057852 C33.9492763,41.1057852 33.9392763,41.1057852 33.9392763,41.1157852 Z" id="Path" fill="#000000" fill-rule="nonzero"></path>
            </g>
        </g>
    </g>
</svg>