<?xml version="1.0" encoding="UTF-8"?>
<svg width="50px" height="50px" viewBox="0 0 50 50" version="1.1" xmlns="http://www.w3.org/2000/svg" xmlns:xlink="http://www.w3.org/1999/xlink">
    <!-- Generator: Sketch 64 (93537) - https://sketch.com -->
    <title>client</title>
    <desc>Created with Sketch.</desc>
    <g id="Page-1" stroke="none" stroke-width="1" fill="none" fill-rule="evenodd">
        <g id="Desktop-HD" transform="translate(-955.000000, -2852.000000)" fill="#000000" fill-rule="nonzero">
            <g id="Stat-block" transform="translate(370.000000, 2706.000000)">
                <g id="Group-33" transform="translate(520.000000, 80.000000)">
                    <g id="Group-30">
                        <g id="client" transform="translate(65.000000, 66.000000)">
                            <path d="M49.1935484,24.1935484 L48.3719758,24.1935484 C47.9499612,11.910003 38.089997,2.05003878 25.8064516,1.62802419 L25.8064516,0.806451613 C25.8064516,0.361060686 25.4453909,0 25,0 C24.5546091,0 24.1935484,0.361060686 24.1935484,0.806451613 L24.1935484,1.62802419 C11.910003,2.05003878 2.05003878,11.910003 1.62802419,24.1935484 L0.806451613,24.1935484 C0.361060686,24.1935484 0,24.5546091 0,25 C0,25.4453909 0.361060686,25.8064516 0.806451613,25.8064516 L1.62802419,25.8064516 C2.05003878,38.089997 11.910003,47.9499612 24.1935484,48.3719758 L24.1935484,49.1935484 C24.1935484,49.6389393 24.5546091,50 25,50 C25.4453909,50 25.8064516,49.6389393 25.8064516,49.1935484 L25.8064516,48.3719758 C38.089997,47.9499612 47.9499612,38.089997 48.3719758,25.8064516 L49.1935484,25.8064516 C49.6389393,25.8064516 50,25.4453909 50,25 C50,24.5546091 49.6389393,24.1935484 49.1935484,24.1935484 Z M45.9677419,25.8064516 L46.7580645,25.8064516 C46.3373887,37.1989101 37.1989101,46.3373887 25.8064516,46.7580645 L25.8064516,45.9677419 C25.8064516,45.522351 25.4453909,45.1612903 25,45.1612903 C24.5546091,45.1612903 24.1935484,45.522351 24.1935484,45.9677419 L24.1935484,46.7580645 C12.8010899,46.3373887 3.66261132,37.1989101 3.24193548,25.8064516 L4.03225806,25.8064516 C4.47764899,25.8064516 4.83870968,25.4453909 4.83870968,25 C4.83870968,24.5546091 4.47764899,24.1935484 4.03225806,24.1935484 L3.24193548,24.1935484 C3.66261132,12.8010899 12.8010899,3.66261132 24.1935484,3.24193548 L24.1935484,4.03225806 C24.1935484,4.47764899 24.5546091,4.83870968 25,4.83870968 C25.4453909,4.83870968 25.8064516,4.47764899 25.8064516,4.03225806 L25.8064516,3.24193548 C37.1989101,3.66261132 46.3373887,12.8010899 46.7580645,24.1935484 L45.9677419,24.1935484 C45.522351,24.1935484 45.1612903,24.5546091 45.1612903,25 C45.1612903,25.4453909 45.522351,25.8064516 45.9677419,25.8064516 Z" id="Shape"></path>
                            <path d="M37.672379,23.6481855 C38.6298066,22.3102039 38.4268878,20.4660708 37.2014407,19.3682814 C35.9759935,18.2704919 34.1207299,18.2708485 32.8957048,19.3691087 C31.6706796,20.467369 31.4684696,22.31158 32.4264113,23.6491935 C31.6774051,23.9652514 31.0180761,24.461474 30.5070565,25.09375 C29.9693588,24.2838659 29.230053,23.6279404 28.3618952,23.1905242 C29.4768368,21.5069313 29.1745066,19.2582198 27.6544893,17.9288865 C26.134472,16.5995532 23.865528,16.5995532 22.3455107,17.9288865 C20.8254934,19.2582198 20.5231632,21.5069313 21.6381048,23.1905242 C20.8578297,23.5844388 20.1802508,24.1550134 19.6592742,24.8568548 C19.1813664,24.3359343 18.5968799,23.9240432 17.9455645,23.6491935 C18.9035063,22.31158 18.7012962,20.467369 17.476271,19.3691087 C16.2512459,18.2708485 14.3959823,18.2704919 13.1705351,19.3682814 C11.945088,20.4660708 11.7421692,22.3102039 12.6995968,23.6481855 C10.864299,24.4209506 9.67265105,26.220347 9.6774051,28.2116935 L9.6774051,30.6451613 C9.6774051,31.0905522 10.03848,31.4516129 10.483871,31.4516129 L18.5483871,31.4516129 L18.5483871,32.2580645 C18.5483871,32.7034554 18.9094478,33.0645161 19.3548387,33.0645161 L30.6451613,33.0645161 C31.0905522,33.0645161 31.4516129,32.7034554 31.4516129,32.2580645 L31.4516129,31.4516129 L39.8881048,31.4516129 C40.3334958,31.4516129 40.6945707,31.0905522 40.6945707,30.6451613 L40.6945707,28.2116935 C40.6993248,26.220347 39.5076768,24.4209506 37.672379,23.6481855 Z M15.3225806,20.1612903 C16.1798397,20.1620729 16.8867102,20.8333203 16.9317808,21.6893941 C16.9768515,22.5454678 16.3443731,23.2872294 15.4919355,23.3780242 L15.1532258,23.3780242 C14.3007882,23.2872294 13.6683098,22.5454678 13.7133805,21.6893941 C13.7584511,20.8333203 14.4653216,20.1620729 15.3225806,20.1612903 Z M18.5483871,28.2258065 L18.5483871,29.8387097 L11.2903078,29.8387097 L11.2903078,28.2116935 C11.2858638,26.7077941 12.2903078,25.3876875 13.7409274,24.9909274 L15.09375,24.9909274 C15.1693548,24.9959677 15.2449597,25 15.3225806,25 C15.4002016,25 15.4758065,24.9959677 15.5514113,24.9909274 L16.9042339,24.9909274 C17.7067839,25.2111106 18.3974815,25.7244572 18.8397177,26.4294355 C18.646847,27.0087145 18.5484786,27.615263 18.5483871,28.2258065 Z M25,18.5483871 C26.3361728,18.5483871 27.4193548,19.6315692 27.4193548,20.9677419 C27.4193548,22.3039147 26.3361728,23.3870968 25,23.3870968 C23.6638272,23.3870968 22.5806452,22.3039147 22.5806452,20.9677419 C22.5824222,19.6323059 23.664564,18.5501641 25,18.5483871 L25,18.5483871 Z M29.8387222,31.4516129 L20.16129,31.4516129 L20.16129,28.2258065 C20.1610976,27.702232 20.2624301,27.1835874 20.4596774,26.6985887 C20.4637097,26.6895161 20.4677419,26.6794355 20.4717742,26.6693548 C20.9160696,25.6005316 21.8001898,24.7755733 22.8971774,24.40625 C24.1872932,25.1979131 25.8127068,25.1979131 27.1028226,24.40625 C28.7412632,24.9586338 29.8429993,26.4967613 29.8387222,28.2258065 L29.8387222,31.4516129 Z M35.0493952,20.1612903 C35.9066542,20.1620729 36.6135247,20.8333203 36.6585954,21.6893941 C36.703666,22.5454678 36.0711876,23.2872294 35.21875,23.3780242 L34.8800403,23.3780242 C34.0276027,23.2872294 33.3951243,22.5454678 33.440195,21.6893941 C33.4852656,20.8333203 34.1921362,20.1620729 35.0493952,20.1612903 Z M39.081668,29.8387097 L31.4516129,29.8387097 L31.4516129,28.2258065 C31.4514983,27.7637305 31.3953079,27.303376 31.2842742,26.8548387 C31.3158896,26.8134966 31.3435642,26.7692848 31.3669355,26.7227823 C31.787975,25.8721547 32.5524166,25.2419672 33.4677419,24.9909274 L34.8205645,24.9909274 C34.8961694,24.9959677 34.9717742,25 35.0493952,25 C35.1270161,25 35.202621,24.9959677 35.2782258,24.9909274 L36.6310484,24.9909274 C38.0816741,25.3876875 39.086112,26.7077941 39.081668,28.2116935 L39.081668,29.8387097 Z" id="Shape"></path>
                            <path d="M7.25806452,24.1935484 L6.4516129,24.1935484 C6.00622198,24.1935484 5.64516129,24.5546091 5.64516129,25 C5.64516129,25.4453909 6.00622198,25.8064516 6.4516129,25.8064516 L7.25806452,25.8064516 C7.70345544,25.8064516 8.06451613,25.4453909 8.06451613,25 C8.06451613,24.5546091 7.70345544,24.1935484 7.25806452,24.1935484 Z" id="Path"></path>
                        </g>
                    </g>
                </g>
            </g>
        </g>
    </g>
</svg>