<?xml version="1.0" encoding="UTF-8"?>
<svg width="116px" height="100px" viewBox="0 0 116 100" version="1.1" xmlns="http://www.w3.org/2000/svg" xmlns:xlink="http://www.w3.org/1999/xlink">
    <!-- Generator: Sketch 64 (93537) - https://sketch.com -->
    <title>google-cloud</title>
    <desc>Created with Sketch.</desc>
    <g id="Page-1" stroke="none" stroke-width="1" fill="none" fill-rule="evenodd">
        <g id="Desktop-HD" transform="translate(-955.000000, -1634.000000)" fill-rule="nonzero">
            <g id="Supp-Tech" transform="translate(363.000000, 994.000000)">
                <g id="Platforms" transform="translate(0.000000, 566.000000)">
                    <g id="platforms-ico" transform="translate(0.000000, 59.000000)">
                        <g id="Group-15" transform="translate(584.000000, 15.000000)">
                            <g id="google-cloud" transform="translate(8.000000, 0.000000)">
                                <path d="M86.4864865,0.0671171171 L28.8288288,0.0671171171 L0,50 L28.8288288,99.9328829 L86.4867117,99.9328829 L115.315315,50 L86.4864865,0.0671171171 Z M32.729955,6.82387387 L82.5855856,6.82387387 L90.3878378,20.3376126 L40.5322072,20.3376126 L27.3074324,43.2432432 L19.5051802,29.7295045 L32.729955,6.82387387 Z M70.8822072,27.0943694 L84.1067568,50 L70.8822072,72.9056306 L44.4331081,72.9056306 L31.2085586,50 L44.4331081,27.0943694 L70.8822072,27.0943694 Z M32.729955,93.1763514 L7.80225225,50 L15.6045045,36.4862613 L40.5322072,79.6626126 L66.9810811,79.6626126 L59.1788288,93.1763514 L32.729955,93.1763514 Z M82.5855856,93.1763514 L66.9810811,93.1763514 L91.9087838,50.0002252 L78.6842342,27.0945946 L94.2885135,27.0945946 L107.513063,50.0002252 L82.5855856,93.1763514 Z" id="Shape" fill="#000000"></path>
                                <path d="M57.6576577,36.4862613 C50.2060811,36.4862613 44.1439189,42.5486486 44.1439189,50 C44.1439189,57.4513514 50.2063063,63.5137387 57.6576577,63.5137387 C65.109009,63.5137387 71.1713964,57.4513514 71.1713964,50 C71.1713964,42.5486486 65.1092342,36.4862613 57.6576577,36.4862613 Z M57.6576577,56.756982 C53.931982,56.756982 50.9006757,53.7259009 50.9006757,50 C50.9006757,46.2740991 53.9317568,43.243018 57.6576577,43.243018 C61.3835586,43.243018 64.4146396,46.2740991 64.4146396,50 C64.4146396,53.7259009 61.3833333,56.756982 57.6576577,56.756982 Z" id="Shape" fill="#FF0055"></path>
                            </g>
                        </g>
                    </g>
                </g>
            </g>
        </g>
    </g>
</svg>