<?xml version="1.0" encoding="UTF-8"?>
<svg width="23px" height="20px" viewBox="0 0 23 20" version="1.1" xmlns="http://www.w3.org/2000/svg" xmlns:xlink="http://www.w3.org/1999/xlink">
    <!-- Generator: Sketch 64 (93537) - https://sketch.com -->
    <title>home</title>
    <desc>Created with Sketch.</desc>
    <g id="Page-1" stroke="none" stroke-width="1" fill="none" fill-rule="evenodd">
        <g id="Desktop-HD" transform="translate(-150.000000, -3618.000000)" fill="#FF0055" fill-rule="nonzero">
            <g id="footer" transform="translate(0.000000, 3523.000000)">
                <g id="Group-35" transform="translate(150.000000, 93.000000)">
                    <g id="Group-11">
                        <g id="home" transform="translate(-0.000000, 2.000000)">
                            <path d="M22.1203057,7.90672489 L11.5222271,0.147030568 C11.3178603,-0.00257641921 11.0402183,-0.00257641921 10.8359389,0.147030568 L0.237772926,7.90672489 C-0.0210917031,8.09628821 -0.0773362445,8.45978166 0.112227074,8.71864629 C0.301790393,8.97751092 0.665327511,9.03366812 0.924148472,8.84419214 L11.1790393,1.33572052 L21.4339301,8.84414847 C21.5373362,8.91991266 21.6575109,8.95640672 21.7766376,8.95640672 C21.9555022,8.95640672 22.1320087,8.87406114 22.2458079,8.71860262 C22.4354148,8.45978166 22.3791703,8.09628821 22.1203057,7.90672489 Z" id="Path"></path>
                            <path d="M19.3120524,8.97567686 C18.9912664,8.97567686 18.7311354,9.23576419 18.7311354,9.55659389 L18.7311354,18.8032751 L14.0838865,18.8032751 L14.0838865,13.7558515 C14.0838865,12.1541048 12.7807424,10.851048 11.179083,10.851048 C9.57742358,10.851048 8.27427948,12.1541921 8.27427948,13.7558515 L8.27427948,18.8033188 L3.6269869,18.8033188 L3.6269869,9.55663755 C3.6269869,9.23580786 3.3668559,8.97567686 3.04606987,8.97567686 C2.72528384,8.97567686 2.46515284,9.23580786 2.46515284,9.55663755 L2.46515284,19.3842795 C2.46515284,19.7051092 2.72528384,19.9651965 3.04606987,19.9651965 L8.85519651,19.9651965 C9.16069869,19.9651965 9.41069869,19.7291703 9.43384279,19.4295197 C9.43524017,19.4159389 9.43611354,19.4010917 9.43611354,19.3842795 L9.43611354,13.7558952 C9.43611354,12.7948035 10.2179913,12.0129258 11.179083,12.0129258 C12.1401747,12.0129258 12.9220524,12.7948472 12.9220524,13.7558952 L12.9220524,19.3842795 C12.9220524,19.4010044 12.9229258,19.4155895 12.9243231,19.4289956 C12.9472052,19.7288646 13.1972926,19.9651965 13.5029694,19.9651965 L19.3120961,19.9651965 C19.6329258,19.9651965 19.8930131,19.7051092 19.8930131,19.3842795 L19.8930131,9.55663755 C19.8930131,9.23576419 19.6328821,8.97567686 19.3120524,8.97567686 Z" id="Path"></path>
                        </g>
                    </g>
                </g>
            </g>
        </g>
    </g>
</svg>