<?xml version="1.0" encoding="UTF-8"?>
<svg width="51px" height="60px" viewBox="0 0 51 60" version="1.1" xmlns="http://www.w3.org/2000/svg" xmlns:xlink="http://www.w3.org/1999/xlink">
    <!-- Generator: Sketch 64 (93537) - https://sketch.com -->
    <title>linux</title>
    <desc>Created with Sketch.</desc>
    <defs>
        <path d="M31.7279687,24.8515625 C30.6186719,20.6996094 26.6069531,18.7350781 25.8415625,18.3942188 C25.7642187,18.2871875 25.6870312,18.1801562 25.6063281,18.0754687 C26.9435937,16.1557813 27.6715625,13.8532031 27.6715625,11.4998438 C27.6716406,5.15875 22.5128125,0 16.1717969,0 C9.83078125,0 4.67195313,5.15875 4.67195313,11.4998438 C4.67195313,13.8532031 5.39992187,16.1558594 6.7371875,18.0754687 C6.65648437,18.1802344 6.57929687,18.2871875 6.50195312,18.3942188 C5.7365625,18.7350781 1.72492187,20.6996094 0.615546875,24.8515625 C-0.013984375,27.2077344 0.003671875,28.13625 0.013515625,28.2983594 C0.040234375,28.7345313 0.326328125,29.1120313 0.739140625,29.2554688 L4.87351562,30.6919531 C5.299375,31.8392969 5.88164062,32.9217187 6.60523437,33.8992969 C4.7503125,34.6773438 3.4440625,36.5117188 3.4440625,38.6458594 L3.4440625,38.9167188 C3.4440625,39.5149219 3.92898437,39.9998437 4.5271875,39.9998437 L12.6503906,39.9998437 C13.2485937,39.9998437 13.7335156,39.5149219 13.7335156,38.9167188 L13.7335156,38.6458594 C13.7335156,38.6135937 13.7316406,38.5817188 13.7310156,38.5496875 C14.3970312,38.6927344 15.075,38.7758594 15.7607031,38.7997656 C15.8965625,38.8102344 16.0334375,38.8160156 16.1714063,38.8160156 C16.2188281,38.8160156 16.2650781,38.811875 16.3109375,38.8060156 C17.1610937,38.7960156 17.9990625,38.695 18.8176562,38.5033594 C18.8163281,38.5507813 18.8140625,38.5980469 18.8140625,38.6457813 L18.8140625,38.9166406 C18.8140625,39.5148437 19.2989844,39.9998437 19.8971875,39.9998437 L28.0203906,39.9998437 C28.6185937,39.9998437 29.1035156,39.5148437 29.1035156,38.9166406 L29.1035156,38.6457813 C29.1035156,35.8089062 26.7955469,33.5009375 23.95875,33.5009375 C22.0804687,33.5009375 20.4346875,34.5132813 19.5365625,36.0204688 C18.4589062,36.4311719 17.3289844,36.6413281 16.1713281,36.6413281 C16.0745312,36.6413281 15.9779687,36.6382813 15.8815625,36.6353906 C12.9648437,36.3528125 10.1878906,31.8665625 10.1878906,27.2983594 C10.1878906,23.7846875 11.965,21.3350781 14.8665625,20.7701563 L15.3302344,21.3416406 C15.5359375,21.5950781 15.8449219,21.7424219 16.1714062,21.7424219 C16.4978906,21.7424219 16.806875,21.5952344 17.0125781,21.3416406 L17.47625,20.7701563 C20.3778125,21.335 22.1549219,23.7846875 22.1549219,27.2983594 C22.1549219,27.8965625 22.6398437,28.3814844 23.2380469,28.3814844 C23.83625,28.3814844 24.3211719,27.8965625 24.3211719,27.2983594 C24.3211719,23.1546094 22.2739844,20.0449219 18.9703125,18.9285938 L21.2084375,16.17 C21.4469531,15.8760156 21.524375,15.5071875 21.3971094,15.1513281 C21.3794531,15.0907813 21.2755469,14.7165625 21.0246875,13.5041406 L21.0148437,13.4589844 C20.9010937,12.9266406 20.4094531,12.56125 19.8672656,12.6058594 C19.8005469,12.6114063 19.743125,12.6139844 19.6917187,12.6139844 C19.619375,12.6139844 19.5477344,12.6103125 19.4772656,12.603125 C18.4195312,12.4953125 17.5914844,11.5994531 17.5914844,10.5138281 L17.5914844,10.51375 C17.5914844,9.355625 18.5335937,8.41359375 19.6917187,8.41359375 C20.8496875,8.41359375 21.791875,9.35570313 21.791875,10.51375 C21.791875,11.1119531 22.2767969,11.596875 22.875,11.596875 C23.4732031,11.596875 23.958125,11.1119531 23.958125,10.51375 C23.958125,8.16125 22.0442187,6.24734375 19.6917187,6.24734375 C18.2316406,6.24734375 16.9409375,6.985 16.1714844,8.10679688 C15.4020312,6.985 14.1113281,6.24734375 12.65125,6.24734375 C10.29875,6.24734375 8.38484375,8.16125 8.38484375,10.51375 C8.38484375,11.1119531 8.86976562,11.596875 9.46796875,11.596875 C10.0661719,11.596875 10.5510937,11.1119531 10.5510937,10.51375 C10.5510937,9.35578125 11.4932031,8.41359375 12.65125,8.41359375 C13.8092187,8.41359375 14.7514062,9.355625 14.7514844,10.51375 L14.7514844,10.5138281 C14.7514844,11.5994531 13.9234375,12.4953125 12.8657031,12.603125 C12.7951562,12.6103125 12.7236719,12.6139844 12.65125,12.6139844 C12.5997656,12.6139844 12.5425,12.6114063 12.4757031,12.6058594 C11.9321875,12.5624219 11.4405469,12.9328906 11.3267187,13.4652344 L11.3185156,13.5032813 C11.0674219,14.7164844 10.9635937,15.0908594 10.9459375,15.1514063 C10.8186719,15.5073438 10.8960937,15.8760156 11.1346094,16.1700781 L13.3727344,18.9286719 C10.0689844,20.045 8.021875,23.1546875 8.021875,27.2984375 C8.021875,29.42875 8.5571875,31.6578906 9.48867187,33.5814844 C9.36390625,33.559375 9.238125,33.5403125 9.11046875,33.5274219 C7.49882812,31.8078906 6.49234375,29.5411719 6.26070312,27.141875 C6.25671875,27.0992969 6.253125,27.0567188 6.24953125,27.0141406 C6.2428125,26.9345313 6.236875,26.8548438 6.23179687,26.775 C6.22671875,26.6923438 6.2221875,26.6096094 6.21882812,26.5267188 C6.21734375,26.4904688 6.21609375,26.4541406 6.21492187,26.4177344 C6.21148437,26.3041406 6.20898437,26.1903906 6.20898437,26.0764063 C6.20898437,25.9223438 6.21296875,25.7689844 6.21929687,25.6159375 C6.22117187,25.5699219 6.2240625,25.5240625 6.2265625,25.478125 C6.23242187,25.3677344 6.2396875,25.2577344 6.24867187,25.1479688 C6.25265625,25.0995313 6.25679687,25.0511719 6.26132812,25.0028125 C6.27273437,24.88375 6.28609375,24.7651563 6.30117187,24.6470313 C6.30539062,24.6139063 6.30882812,24.5805469 6.3134375,24.5475 C6.334375,24.3949219 6.35820312,24.2428906 6.38523437,24.0917969 C6.389375,24.0690625 6.39421875,24.0464844 6.3984375,24.02375 C6.42203125,23.8967969 6.44773437,23.7705469 6.47570312,23.6448438 C6.48523437,23.6017188 6.49554687,23.5588281 6.505625,23.5159375 C6.53109375,23.4074219 6.55828125,23.2992969 6.58695312,23.1917188 C6.59835937,23.1490625 6.60945312,23.1064063 6.62140625,23.0639063 C6.65664062,22.9382813 6.69398437,22.8133594 6.73351562,22.689375 C6.73992187,22.6694531 6.74554687,22.6492969 6.75195312,22.629375 C6.79789062,22.4880469 6.84726562,22.3479688 6.89882812,22.2089063 C6.91507812,22.165 6.93265625,22.1217188 6.94953125,22.0780469 C6.98601562,21.9835156 7.02351562,21.8892188 7.06257812,21.7958594 C7.0853125,21.7415625 7.10859375,21.6875781 7.1321875,21.6335938 C7.16890625,21.5497656 7.20695312,21.4667188 7.24570312,21.3839063 C7.27117187,21.3295313 7.29617187,21.2749219 7.32257812,21.2210938 C7.37,21.1240625 7.41960937,21.0282031 7.47,20.9326563 C7.50757812,20.8614063 7.54617187,20.790625 7.58539062,20.7202344 C7.63273437,20.6350781 7.68046875,20.5501563 7.73007812,20.4664844 C7.76460937,20.408125 7.80070312,20.3504688 7.83640625,20.2927344 C8.15648437,19.7755469 8.51929687,19.2839844 8.92679687,18.8263281 C9.28132812,18.4279688 9.29320312,17.8307813 8.95484375,17.4186719 C7.58984375,15.7564844 6.838125,13.6545313 6.838125,11.4997656 C6.838125,6.35328125 11.0251562,2.16625 16.1716406,2.16625 C21.318125,2.16625 25.5051562,6.35328125 25.5051562,11.4997656 C25.5051562,13.6544531 24.7534375,15.7564844 23.3884375,17.4186719 C23.0499219,17.8307813 23.061875,18.4279688 23.4164844,18.8263281 C23.8238281,19.2839844 24.1867969,19.7754688 24.506875,20.2927344 C24.5425781,20.3504688 24.5786719,20.408125 24.6132031,20.4664844 C24.6628125,20.5503125 24.7105469,20.6351563 24.7578906,20.7202344 C24.7971094,20.790625 24.835625,20.8614063 24.8732812,20.9326563 C24.9236719,21.0282031 24.9732812,21.1240625 25.0207031,21.2210938 C25.0471094,21.275 25.0721875,21.3296094 25.0975781,21.3839063 C25.1363281,21.4666406 25.1744531,21.5498438 25.2110937,21.6335938 C25.2346875,21.6875 25.2579687,21.7415625 25.2807031,21.7958594 C25.3197656,21.889375 25.3574219,21.9834375 25.39375,22.0780469 C25.410625,22.1217188 25.4282031,22.165 25.4444531,22.2089063 C25.4960156,22.3479688 25.5453906,22.4880469 25.5913281,22.629375 C25.5978125,22.6492969 25.6034375,22.6694531 25.6097656,22.689375 C25.6492969,22.8133594 25.6867969,22.9382813 25.721875,23.0639063 C25.73375,23.1063281 25.7448437,23.1491406 25.7563281,23.1917188 C25.785,23.2992969 25.8121875,23.4072656 25.8376562,23.5159375 C25.8477344,23.5588281 25.8578906,23.6017188 25.8675781,23.6448438 C25.8955469,23.7704688 25.9211719,23.8967969 25.9448437,24.02375 C25.9490625,24.0464844 25.9540625,24.0690625 25.9580469,24.0917969 C25.9851562,24.2428906 26.0089844,24.3948438 26.0298437,24.5475 C26.034375,24.5805469 26.0378906,24.6139063 26.0421094,24.6470313 C26.0571875,24.7652344 26.070625,24.8838281 26.0819531,25.0028125 C26.0864844,25.0510938 26.090625,25.0995313 26.0946094,25.1479688 C26.1035937,25.2576563 26.1108594,25.3677344 26.1167187,25.478125 C26.1191406,25.5240625 26.1220312,25.5698438 26.1239844,25.6159375 C26.1301562,25.7689844 26.1342969,25.9225 26.1342969,26.0764063 C26.1342969,27.1284375 25.9884375,28.1682813 25.7007031,29.1671094 C25.6584375,29.3136719 25.6477344,29.4673438 25.6690625,29.6184375 L25.7136719,29.9341406 C25.7589844,30.2548438 25.9454687,30.5384375 26.2217969,30.7071875 C26.3938281,30.8121094 26.5892969,30.8657813 26.78625,30.8657813 C26.9058594,30.8657813 27.0260937,30.8459375 27.1417187,30.8057813 L31.6042969,29.2552344 C32.0171094,29.1117969 32.3032812,28.734375 32.3299219,28.298125 C32.3398437,28.13625 32.3575,27.2077344 31.7279687,24.8515625 Z M23.9592187,35.6674219 C25.3200781,35.6674219 26.4707031,36.5848438 26.8251562,37.83375 L21.0933594,37.83375 C21.4477344,36.5848438 22.5983594,35.6674219 23.9592187,35.6674219 Z M13.2714062,14.7355469 C13.27625,14.7347656 13.2809375,14.7338281 13.2857812,14.7330469 C13.3319531,14.7260937 13.3774219,14.7175781 13.4230469,14.7092187 C13.4494531,14.704375 13.47625,14.7003125 13.5025781,14.695 C13.5608594,14.6832031 13.6185156,14.6695313 13.6758594,14.6553906 C13.6889844,14.6521094 13.7024219,14.6495312 13.7154687,14.6461719 C13.7854687,14.6280469 13.8547656,14.6082812 13.9234375,14.5867969 C13.9464844,14.5795313 13.9690625,14.5711719 13.9920312,14.5635156 C14.0374219,14.5484375 14.0828906,14.5335156 14.1276562,14.5169531 C14.1550781,14.5067969 14.1819531,14.4954687 14.2091406,14.4847656 C14.2486719,14.4691406 14.2882031,14.4539062 14.3271875,14.4371875 C14.3557812,14.4249219 14.38375,14.4116406 14.4120312,14.3988281 C14.44875,14.3821094 14.4855469,14.3655469 14.5216406,14.3478125 C14.5503125,14.33375 14.5785937,14.31875 14.6069531,14.3040625 C14.6417187,14.2860937 14.6764062,14.268125 14.710625,14.2492187 C14.7391406,14.2334375 14.7671875,14.2169531 14.7953125,14.2004687 C14.8284375,14.1810937 14.8614844,14.1617187 14.8940625,14.1414062 C14.9220312,14.1240625 14.949375,14.1061719 14.9769531,14.0882031 C15.0088281,14.0674219 15.0403906,14.0464844 15.0716406,14.0248437 C15.09875,14.0060937 15.1254687,13.9869531 15.1521094,13.9675781 C15.1827344,13.9453906 15.213125,13.9228125 15.2429687,13.8998437 C15.2690625,13.8798437 15.2949219,13.8594531 15.320625,13.8388281 C15.3500781,13.8150781 15.3791406,13.7910937 15.4078906,13.7665625 C15.4328906,13.7453125 15.4577344,13.7239062 15.4821875,13.7021094 C15.5105469,13.676875 15.5385156,13.6510937 15.56625,13.6250781 C15.59,13.6028906 15.6135937,13.5807031 15.6367969,13.5578906 C15.6642187,13.5310156 15.6909375,13.5035937 15.7175781,13.4760156 C15.7399219,13.4528125 15.7623437,13.4298437 15.7840625,13.40625 C15.8104687,13.3776562 15.8361719,13.3484375 15.8617969,13.3190625 C15.8825781,13.2953125 15.9035156,13.2717187 15.92375,13.2475 C15.9494531,13.216875 15.9741406,13.1855469 15.9988281,13.1541406 C16.0178125,13.1302344 16.0370312,13.1064844 16.0554687,13.0820312 C16.080625,13.04875 16.1046094,13.0147656 16.1288281,12.9807812 C16.1428906,12.9610937 16.1577344,12.941875 16.1714844,12.9219531 C16.1852344,12.9419531 16.2000781,12.9610937 16.2141406,12.9807812 C16.2382812,13.0147656 16.2623437,13.0488281 16.2875,13.0820312 C16.3059375,13.1064062 16.3252344,13.1301562 16.3441406,13.1541406 C16.3689844,13.1855469 16.3936719,13.216875 16.4192188,13.2475 C16.4394531,13.2717969 16.4604688,13.2952344 16.4811719,13.3190625 C16.506875,13.3484375 16.5325,13.3776562 16.5589063,13.40625 C16.5807031,13.4298437 16.603125,13.4529687 16.6253906,13.4760156 C16.6520313,13.5036719 16.6788281,13.5310156 16.7061719,13.5578906 C16.729375,13.580625 16.7529688,13.6028125 16.7767188,13.6250781 C16.8044531,13.6510937 16.8324219,13.676875 16.8607813,13.7021094 C16.8852344,13.7239062 16.9101563,13.7453125 16.9350781,13.7665625 C16.9639063,13.7910156 16.9928906,13.8150781 17.0223438,13.8388281 C17.0480469,13.859375 17.0738281,13.8797656 17.1,13.8998437 C17.13,13.9228125 17.1603125,13.9453125 17.1908594,13.9675781 C17.2175,13.9869531 17.2442969,14.0061719 17.2713281,14.0248437 C17.3025,14.0464062 17.3342969,14.0674219 17.3660156,14.0882031 C17.3935156,14.1061719 17.4209375,14.1240625 17.4489063,14.1414062 C17.4814844,14.1616406 17.5145313,14.1810156 17.5476563,14.2004687 C17.5757813,14.2167969 17.60375,14.2333594 17.6323438,14.2492187 C17.6664844,14.2682031 17.70125,14.2860156 17.7360156,14.3040625 C17.764375,14.3188281 17.7925781,14.33375 17.8213281,14.3478125 C17.8575,14.3655469 17.8942188,14.3821094 17.9309375,14.3988281 C17.9592188,14.4117187 17.9871875,14.4249219 18.0157813,14.4371875 C18.0546875,14.4539062 18.0942969,14.4692187 18.1338281,14.4847656 C18.1610156,14.4954687 18.1878906,14.5067187 18.2153125,14.5169531 C18.2600781,14.5335156 18.3055469,14.5484375 18.3509375,14.5635156 C18.3739063,14.5710938 18.3964063,14.5795313 18.4195313,14.5867969 C18.488125,14.6082813 18.5574219,14.6282031 18.6275,14.6461719 C18.640625,14.6495312 18.6540625,14.6521094 18.6671094,14.6553906 C18.7245313,14.6696094 18.7821094,14.6832031 18.8403906,14.695 C18.8667188,14.7003125 18.8934375,14.7044531 18.9199219,14.7092187 C18.9655469,14.7175781 19.0110938,14.7260937 19.0571875,14.7330469 C19.0620313,14.7338281 19.0667188,14.7347656 19.0715625,14.7355469 C19.1145313,14.93125 19.1514063,15.0935156 19.1828906,15.2279687 L16.1949219,18.9107031 C16.1946875,18.9110156 16.194375,18.9113281 16.1941406,18.9116406 L16.1711719,18.94 L13.1594531,15.2278906 C13.1916406,15.0936719 13.2284375,14.9314063 13.2714062,14.7355469 Z M4.20617187,28.1666406 L2.2509375,27.4872656 C2.3196875,27.0432031 2.45242187,26.3692187 2.70859375,25.4107812 C3.050625,24.1303906 3.78734375,23.1045313 4.57992187,22.3199219 C4.57898438,22.3232812 4.57804687,22.3267187 4.57710938,22.3300781 C4.57210938,22.3471094 4.56789062,22.3642969 4.56304687,22.3813281 C4.5209375,22.5274219 4.48101562,22.6742969 4.44390625,22.8220313 C4.43179687,22.8705469 4.42101562,22.919375 4.40945312,22.9680469 C4.38148437,23.085 4.35429687,23.2021875 4.32953125,23.3201563 C4.31742187,23.3778125 4.30648437,23.4358594 4.29507812,23.4936719 C4.27351562,23.6035156 4.25296875,23.7134375 4.2340625,23.8239063 C4.2234375,23.8859375 4.21359375,23.9482813 4.20398437,24.0105469 C4.1871875,24.1182031 4.17179687,24.2261719 4.15773437,24.334375 C4.149375,24.3980469 4.14117187,24.461875 4.13382812,24.5257812 C4.12117187,24.635 4.11046875,24.7446094 4.10046875,24.8542969 C4.09484375,24.9167969 4.08851562,24.9790625 4.08375,25.0417187 C4.0746875,25.1596875 4.068125,25.2779687 4.0621875,25.3963281 C4.05945312,25.4504687 4.05554687,25.5044531 4.05351562,25.5586719 C4.046875,25.7308594 4.04304687,25.9035156 4.04304687,26.0766406 C4.04304687,26.2292187 4.04664062,26.3815625 4.05195312,26.53375 C4.05335937,26.5761719 4.05484375,26.6185937 4.05671875,26.6610156 C4.0628125,26.7975 4.07039062,26.9336719 4.080625,27.0694531 C4.08570312,27.138125 4.09234375,27.2064844 4.09851562,27.2749219 C4.104375,27.3391406 4.11054687,27.4033594 4.11734375,27.4675 C4.14140625,27.7014062 4.16960937,27.9347656 4.20617187,28.1666406 Z M5.723125,37.8336719 C6.0775,36.5847656 7.22820312,35.6673438 8.5890625,35.6673438 C8.618125,35.6673438 8.64648437,35.6701562 8.6753125,35.6709375 C8.79164062,35.6742969 8.90679687,35.6838281 9.0203125,35.7005469 C9.0303125,35.7019531 9.04046875,35.7028125 9.05039062,35.704375 C9.1090625,35.7135938 9.16703125,35.7254687 9.22476562,35.7382031 C9.23882812,35.74125 9.25304687,35.7439062 9.26703125,35.7471875 C9.32523437,35.7608594 9.38257812,35.7765625 9.43960937,35.7936719 C9.45164062,35.7972656 9.46367187,35.8007031 9.47570312,35.8045313 C9.53398437,35.8228125 9.59171875,35.8427344 9.64859375,35.8645312 C9.65757812,35.8679687 9.66648437,35.8715625 9.67546875,35.875 C9.73453125,35.8982813 9.79289062,35.9229688 9.85015625,35.9498438 C9.854375,35.951875 9.85859375,35.9540625 9.8628125,35.9560156 C10.0959375,36.0667187 10.3132812,36.2080469 10.5105469,36.3745313 C10.5270312,36.3885156 10.5442187,36.4017188 10.5604687,36.4160156 C10.5903906,36.4424219 10.6188281,36.470625 10.6477344,36.4982031 C10.6742969,36.5236719 10.7010156,36.54875 10.7265625,36.5752344 C10.7503125,36.5996094 10.7730469,36.6251563 10.7958594,36.6503906 C10.8245312,36.6821094 10.8530469,36.7140625 10.8803125,36.7470313 C10.9001562,36.7708594 10.9192969,36.7952344 10.9383594,36.8196094 C10.9664844,36.8557031 10.9938281,36.8924219 11.0203906,36.9297656 C11.0375781,36.9540625 11.0545312,36.9784375 11.0709375,37.0032813 C11.0967187,37.0421875 11.1213281,37.0817969 11.1453125,37.121875 C11.1605469,37.1474219 11.1760937,37.1728906 11.190625,37.1989844 C11.213125,37.2392969 11.2340625,37.2805469 11.2546094,37.3219531 C11.2683594,37.3496875 11.2826562,37.3769531 11.295625,37.4052344 C11.3589062,37.5428906 11.4128125,37.685625 11.4548437,37.8335156 L5.72304687,37.8335156 L5.72304687,37.8336719 L5.723125,37.8336719 Z M28.1374219,28.1666406 C28.2459375,27.4782031 28.300625,26.7794531 28.300625,26.0765625 C28.300625,25.9032812 28.2967187,25.7303906 28.2901562,25.5579688 C28.288125,25.5032813 28.2842187,25.4489844 28.2814062,25.394375 C28.2754687,25.2763281 28.2689844,25.1583594 28.2598437,25.0408594 C28.255,24.9774219 28.2486719,24.9142188 28.2428125,24.8508594 C28.2328125,24.7420313 28.2222656,24.6333594 28.2096875,24.5249219 C28.2021094,24.4598438 28.19375,24.3949219 28.1852344,24.3300781 C28.17125,24.2232031 28.1560937,24.1167188 28.1395312,24.0103125 C28.1295312,23.9463281 28.119375,23.8825 28.1084375,23.8186719 C28.09,23.7105469 28.0698437,23.6028906 28.04875,23.4953125 C28.0369531,23.4348437 28.0253906,23.3744531 28.0126562,23.3142188 C27.98875,23.2007031 27.9625,23.0878125 27.935625,22.9750781 C27.9229687,22.9220313 27.9111719,22.8685938 27.8978125,22.8157813 C27.8642187,22.6823438 27.8278125,22.5497656 27.7901562,22.4175 C27.78125,22.3863281 27.7734375,22.3547656 27.764375,22.3236719 C27.7627344,22.318125 27.7614844,22.3125 27.7598437,22.3069531 C28.5524219,23.0909375 29.29,24.1196094 29.6349219,25.4101562 C29.8910156,26.36875 30.02375,27.0426563 30.0925781,27.4866406 L28.1374219,28.1666406 Z" id="path-1"></path>
        <filter x="-46.4%" y="-37.5%" width="192.8%" height="175.0%" filterUnits="objectBoundingBox" id="filter-2">
            <feOffset dx="0" dy="0" in="SourceAlpha" result="shadowOffsetOuter1"></feOffset>
            <feGaussianBlur stdDeviation="5" in="shadowOffsetOuter1" result="shadowBlurOuter1"></feGaussianBlur>
            <feColorMatrix values="0 0 0 0 1   0 0 0 0 0   0 0 0 0 0.334680944  0 0 0 0.5 0" type="matrix" in="shadowBlurOuter1"></feColorMatrix>
        </filter>
    </defs>
    <g id="Page-1" stroke="none" stroke-width="1" fill="none" fill-rule="evenodd">
        <g id="Desktop-HD" transform="translate(-193.000000, -347.000000)" fill-rule="nonzero">
            <g id="Main-screen">
                <g id="UTP" transform="translate(150.000000, 200.000000)">
                    <g id="Group-3" transform="translate(50.000000, 157.000000)">
                        <g id="Group-2" transform="translate(2.000000, 0.000000)">
                            <g id="linux">
                                <g id="Shape">
                                    <use fill="black" fill-opacity="1" filter="url(#filter-2)" xlink:href="#path-1"></use>
                                    <use fill="#FF0055" xlink:href="#path-1"></use>
                                </g>
                            </g>
                        </g>
                    </g>
                </g>
            </g>
        </g>
    </g>
</svg>