<?xml version="1.0" encoding="UTF-8"?>
<svg width="250px" height="250px" viewBox="0 0 250 250" version="1.1" xmlns="http://www.w3.org/2000/svg" xmlns:xlink="http://www.w3.org/1999/xlink">
    <!-- Generator: Sketch 64 (93537) - https://sketch.com -->
    <title>linkedin</title>
    <desc>Created with Sketch.</desc>
    <defs>
        <linearGradient x1="33.2019533%" y1="14.05981%" x2="58.4948073%" y2="68.1747744%" id="linearGradient-1">
            <stop stop-color="#0077B5" offset="0%"></stop>
            <stop stop-color="#0066B2" offset="100%"></stop>
        </linearGradient>
        <linearGradient x1="73.8335045%" y1="62.7852419%" x2="-89.8948936%" y2="-25.0447696%" id="linearGradient-2">
            <stop stop-color="#0066B2" stop-opacity="0" offset="0%"></stop>
            <stop stop-color="#07485E" offset="100%"></stop>
        </linearGradient>
        <linearGradient x1="49.9996672%" y1="5.89265095%" x2="49.9996672%" y2="110.601705%" id="linearGradient-3">
            <stop stop-color="#0066B2" stop-opacity="0" offset="0%"></stop>
            <stop stop-color="#07485E" offset="100%"></stop>
        </linearGradient>
        <linearGradient x1="43.8060959%" y1="43.9656984%" x2="-3.71819188%" y2="-3.42307306%" id="linearGradient-4">
            <stop stop-color="#0066B2" stop-opacity="0" offset="0%"></stop>
            <stop stop-color="#07485E" offset="100%"></stop>
        </linearGradient>
        <linearGradient x1="79.5478324%" y1="72.7838767%" x2="-29.0442255%" y2="28.6941477%" id="linearGradient-5">
            <stop stop-color="#0066B2" stop-opacity="0" offset="0%"></stop>
            <stop stop-color="#07485E" offset="100%"></stop>
        </linearGradient>
        <linearGradient x1="86.4524255%" y1="93.5984227%" x2="3.18796416%" y2="7.29863912%" id="linearGradient-6">
            <stop stop-color="#0066B2" stop-opacity="0" offset="0%"></stop>
            <stop stop-color="#07485E" offset="100%"></stop>
        </linearGradient>
    </defs>
    <g id="Page-1" stroke="none" stroke-width="1" fill="none" fill-rule="evenodd">
        <g id="Desktop-HD" transform="translate(-595.000000, -3159.000000)" fill-rule="nonzero">
            <g id="Clients" transform="translate(150.000000, 3079.000000)">
                <g id="Group-42" transform="translate(429.000000, 63.000000)">
                    <g id="linkedin" transform="translate(16.000000, 17.000000)">
                        <path d="M205.284119,245.71991 C151.815415,251.426697 98.1845854,251.426697 44.7158813,245.71991 C23.3955381,243.444443 6.55555713,226.604462 4.28009033,205.282211 C-1.42669678,151.813507 -1.42669678,98.1845854 4.28009033,44.7158813 C6.55555713,23.3955381 23.3955381,6.55555713 44.7158813,4.28009033 C98.1845854,-1.42669678 151.813507,-1.42669678 205.282211,4.28009033 C226.604462,6.55555713 243.444443,23.3955381 245.71991,44.7158813 C251.426697,98.1845854 251.426697,151.813507 245.71991,205.282211 C243.444443,226.604462 226.606369,243.444443 205.284119,245.71991 Z" id="Path" fill="url(#linearGradient-1)"></path>
                        <path d="M232.122421,53.7586211 C230.104446,34.8396299 215.162277,19.8955537 196.241379,17.8756714 C148.794174,12.8135684 101.205826,12.8135684 53.7586211,17.8756714 C34.8396299,19.8955537 19.8955537,34.8396299 17.8756714,53.7586211 C12.8135684,101.205826 12.8135684,148.794174 17.8756714,196.239472 C19.8955537,215.16037 34.8396299,230.104446 53.7586211,232.122421 C101.205826,237.186432 148.794174,237.186432 196.239472,232.122421 C215.16037,230.104446 230.104446,215.16037 232.122421,196.239472 C237.186432,148.794174 237.186432,101.205826 232.122421,53.7586211 L232.122421,53.7586211 Z" id="Path" fill="url(#linearGradient-2)"></path>
                        <path d="M3.74603271,200.099945 C3.91769434,201.828003 4.09507764,203.556061 4.28009033,205.284119 C6.55555713,226.604462 23.3955381,243.444443 44.7177886,245.71991 C98.1864932,251.426697 151.815415,251.426697 205.284119,245.71991 C226.606369,243.444443 243.444443,226.604462 245.71991,205.284119 C245.904922,203.556061 246.082306,201.828003 246.255875,200.099945 L3.74603271,200.099945 Z" id="Path" fill="url(#linearGradient-3)"></path>
                        <path d="M243.024826,216.587066 L81.6936494,55.2539824 C78.090668,50.5523682 72.4220273,47.5177764 66.0419463,47.5177764 C55.1586152,47.5177764 46.3352202,56.3392637 46.3352202,67.2225952 C46.3352202,73.604584 49.3717192,79.2732236 54.073334,82.8742979 L214.84375,243.646622 C227.838516,239.322662 238.195419,229.337692 243.024826,216.587066 L243.024826,216.587066 Z" id="Path" fill="url(#linearGradient-4)"></path>
                        <path d="M82.593918,99.8554229 L49.4880674,99.8554229 L49.4880674,202.482224 L96.46225,249.456406 C132.743835,250.829697 169.050217,249.588013 205.282211,245.71991 C211.616516,245.044708 217.550278,243.074417 222.829819,240.091324 L82.593918,99.8554229 Z" id="Path" fill="url(#linearGradient-5)"></path>
                        <path d="M195.02449,108.451843 C188.968658,101.812363 180.250168,97.6467134 170.55893,97.6467134 C155.229568,97.6467134 145.336151,103.031158 139.448166,108.030319 L132.961273,99.8554229 L102.457046,99.8554229 L102.457046,202.482224 L149.572373,249.597549 C168.153763,248.99292 186.727524,247.699737 205.284119,245.71991 C226.606369,243.444443 243.444443,226.604462 245.71991,205.284119 C247.241974,191.028595 248.353958,176.761627 249.063492,162.490845 L195.02449,108.451843 Z" id="Path" fill="url(#linearGradient-6)"></path>
                        <g id="Group" transform="translate(45.898438, 47.363281)" fill="#FFFFFF">
                            <polygon id="Path" points="3.5915376 52.4921416 36.6954805 52.4921416 36.6954805 155.118942 3.5915376 155.118942"></polygon>
                            <path d="M124.660492,50.2834321 C100.400925,50.2834321 89.7445679,63.7664795 87.0628359,67.8710938 L87.0628359,52.4921416 L56.5586089,52.4921416 L56.5586089,155.118942 L89.664459,155.118942 L89.664459,103.569031 C89.664459,88.6726377 96.5213774,77.0854951 109.527588,77.0854951 C122.531891,77.0854951 124.660492,91.5088652 124.660492,109.2453 L124.660492,155.118942 L157.766342,155.118942 L157.766342,83.3892822 C157.766342,65.1054385 142.944336,50.2834321 124.660492,50.2834321 L124.660492,50.2834321 Z" id="Path"></path>
                            <path d="M39.8483276,19.8612212 C39.8483276,30.7445527 31.0268403,39.56604 20.1435088,39.56604 C9.26017773,39.56604 0.436782715,30.7445527 0.436782715,19.8612212 C0.436782715,8.97789014 9.26017773,0.154495117 20.1435088,0.154495117 C31.0268403,0.154495117 39.8483276,8.97789014 39.8483276,19.8612212 Z" id="Path"></path>
                        </g>
                    </g>
                </g>
            </g>
        </g>
    </g>
</svg>