<?xml version="1.0" encoding="UTF-8"?>
<svg width="42px" height="25px" viewBox="0 0 42 25" version="1.1" xmlns="http://www.w3.org/2000/svg" xmlns:xlink="http://www.w3.org/1999/xlink">
    <!-- Generator: Sketch 64 (93537) - https://sketch.com -->
    <title>mastercard (1)</title>
    <desc>Created with Sketch.</desc>
    <g id="Page-1" stroke="none" stroke-width="1" fill="none" fill-rule="evenodd">
        <g id="Desktop-HD" transform="translate(-1235.000000, -3721.000000)" fill-rule="nonzero">
            <g id="footer" transform="translate(0.000000, 3523.000000)">
                <g id="Group-40" transform="translate(1183.000000, 54.000000)">
                    <g id="Group-39" transform="translate(24.000000, 24.000000)">
                        <g id="mastercard-(1)" transform="translate(28.000000, 120.000000)">
                            <path d="M20.7236842,21.7105263 C23.2236842,19.4736842 24.8026316,16.1842105 24.8026316,12.5 C24.8026316,8.81578947 23.2236842,5.59210526 20.7236842,3.28947368 C18.5526316,1.31578947 15.5921053,0.0657894737 12.4342105,0.0657894737 C5.59210526,0.0657894737 0,5.65789474 0,12.5 C0,19.3421053 5.59210526,24.8684211 12.4342105,24.8684211 C15.5921053,24.9342105 18.5526316,23.6842105 20.7236842,21.7105263 L20.7236842,21.7105263 Z" id="Path" fill="#07A9E2"></path>
                            <path d="M0,12.5 C0,19.3421053 5.59210526,24.8684211 12.4342105,24.8684211 C15.6578947,24.8684211 18.5526316,23.6842105 20.7236842,21.6447368 L20.7236842,21.6447368 C23.2236842,19.4078947 24.8026316,16.1184211 24.8026316,12.4342105 C24.8026316,8.75 23.2236842,5.59210526 20.7236842,3.28947368 C18.5526316,1.31578947 15.5921053,0.0657894737 12.4342105,0.0657894737" id="Path" fill="#009DDD"></path>
                            <path d="M20.7236842,3.28947368 C18.5526316,1.31578947 15.5921053,0.0657894737 12.4342105,0.0657894737 C12.2368421,0.0657894737 12.0394737,0.0657894737 11.8421053,0.0657894737 C7.96052632,2.89473684 5.46052632,7.43421053 5.46052632,12.5 C5.46052632,17.5657895 7.96052632,22.1052632 11.7763158,24.8684211 C11.9736842,24.8684211 12.1710526,24.8684211 12.3684211,24.8684211 C15.5921053,24.8684211 18.4868421,23.6842105 20.6578947,21.6447368 C23.1578947,19.4078947 24.7368421,16.1184211 24.7368421,12.4342105 C24.7368421,8.75 23.2236842,5.59210526 20.7236842,3.28947368 Z" id="Path" fill="#0284CC"></path>
                            <path d="M29.0789474,0.0657894737 C25.8552632,0.0657894737 22.9605263,1.25 20.7236842,3.28947368 C20.2631579,3.68421053 19.8684211,4.14473684 19.4736842,4.60526316 L21.9736842,4.60526316 C22.3026316,5 22.6315789,5.46052632 22.8947368,5.92105263 L18.4868421,5.92105263 C18.2236842,6.38157895 17.9605263,6.77631579 17.7631579,7.23684211 L23.6184211,7.23684211 C23.8157895,7.69736842 24.0131579,8.09210526 24.1447368,8.55263158 L17.3026316,8.55263158 C17.1710526,9.01315789 17.0394737,9.40789474 16.9078947,9.86842105 L24.5394737,9.86842105 C24.7368421,10.7236842 24.8026316,11.5789474 24.8026316,12.5 C24.8026316,13.8815789 24.6052632,15.1973684 24.1447368,16.4473684 L17.3026316,16.4473684 C17.4342105,16.9078947 17.6315789,17.3026316 17.8289474,17.7631579 L23.6842105,17.7631579 C23.4868421,18.2236842 23.2236842,18.6842105 22.9605263,19.0789474 L18.5526316,19.0789474 C18.8157895,19.5394737 19.1447368,20 19.4736842,20.3947368 L21.9736842,20.3947368 C21.5789474,20.8552632 21.1842105,21.3157895 20.7236842,21.7105263 C22.9605263,23.6842105 25.8552632,24.9342105 29.0789474,24.9342105 C35.9210526,24.9342105 41.4473684,19.4078947 41.4473684,12.5657895 C41.4473684,5.65789474 35.9210526,0.0657894737 29.0789474,0.0657894737 L29.0789474,0.0657894737 Z" id="Path" fill="#FF2957"></path>
                            <path d="M29.0789474,0.0657894737 L29.0789474,0.0657894737 C25.8552632,0.0657894737 22.9605263,1.25 20.7236842,3.28947368 C20.2631579,3.68421053 19.8684211,4.14473684 19.4736842,4.60526316 L21.9736842,4.60526316 C22.3026316,5 22.6315789,5.46052632 22.8947368,5.92105263 L18.4868421,5.92105263 C18.2236842,6.38157895 17.9605263,6.77631579 17.7631579,7.23684211 L23.6184211,7.23684211 C23.8157895,7.69736842 24.0131579,8.09210526 24.1447368,8.55263158 L17.3026316,8.55263158 C17.1710526,9.01315789 17.0394737,9.40789474 16.9078947,9.86842105 L24.5394737,9.86842105 C24.7368421,10.7236842 24.8026316,11.5789474 24.8026316,12.5 C24.8026316,13.8815789 24.6052632,15.1973684 24.1447368,16.4473684 L17.3026316,16.4473684 C17.4342105,16.9078947 17.6315789,17.3026316 17.8289474,17.7631579 L23.6842105,17.7631579 C23.4868421,18.2236842 23.2236842,18.6842105 22.9605263,19.0789474 L18.5526316,19.0789474 C18.8157895,19.5394737 19.1447368,20 19.4736842,20.3947368 L21.9736842,20.3947368 C21.5789474,20.8552632 21.1842105,21.3157895 20.7236842,21.7105263 C22.9605263,23.6842105 25.8552632,24.9342105 29.0789474,24.9342105 C35.9210526,24.9342105 41.4473684,19.4078947 41.4473684,12.5657895" id="Path" fill="#ED1C2E"></path>
                            <path d="M20.7236842,21.7105263 C23.2236842,19.4736842 24.8026316,16.1842105 24.8026316,12.5 C24.8026316,8.81578947 23.2236842,5.59210526 20.7236842,3.28947368 L20.7236842,21.7105263 L20.7236842,21.7105263 Z" id="Path" fill="#0466B5"></path>
                            <path d="M37.1710526,15.3026316 C37.1710526,15.0526316 37.4210526,14.8026316 37.6710526,14.8026316 C37.9210526,14.8026316 38.1710526,15.0526316 38.1710526,15.3026316 C38.1710526,15.5526316 37.9210526,15.8026316 37.6710526,15.8026316 C37.4210526,15.8026316 37.1710526,15.5526316 37.1710526,15.3026316 L37.1710526,15.3026316 Z M37.6710526,15.7192982 C37.9210526,15.7192982 38.004386,15.5526316 38.004386,15.3026316 C38.004386,15.0526316 37.8377193,14.9692982 37.6710526,14.9692982 C37.4210526,14.9692982 37.254386,15.1359649 37.254386,15.3026316 C37.254386,15.4692982 37.504386,15.7192982 37.6710526,15.7192982 L37.6710526,15.7192982 Z M37.6710526,15.4692982 L37.5877193,15.4692982 L37.5877193,15.0526316 L37.754386,15.0526316 C37.8377193,15.0526316 37.8377193,15.0526316 37.8377193,15.0526316 L37.9210526,15.1359649 C37.9210526,15.2192982 37.9210526,15.2192982 37.8377193,15.2192982 L37.9210526,15.3859649 L37.8377193,15.3859649 L37.754386,15.2192982 L37.6710526,15.2192982 L37.6710526,15.4692982 L37.6710526,15.4692982 Z M37.6710526,15.2192982 L37.6710526,15.2192982 C37.754386,15.2192982 37.754386,15.2192982 37.754386,15.2192982 C37.754386,15.2192982 37.754386,15.2192982 37.754386,15.1359649 L37.754386,15.1359649 L37.6710526,15.1359649 L37.6710526,15.1359649 L37.6710526,15.2192982 L37.6710526,15.2192982 Z" id="Shape" fill="#FFFFFF"></path>
                            <path d="M20.7236842,3.28947368 C20.2631579,3.68421053 19.8684211,4.14473684 19.4736842,4.60526316 L21.9736842,4.60526316 C22.3026316,5 22.6315789,5.46052632 22.8947368,5.92105263 L18.4868421,5.92105263 C18.2236842,6.38157895 17.9605263,6.77631579 17.7631579,7.23684211 L23.6184211,7.23684211 C23.8157895,7.69736842 24.0131579,8.09210526 24.1447368,8.55263158 L17.3026316,8.55263158 C17.1710526,9.01315789 17.0394737,9.40789474 16.9078947,9.86842105 L24.5394737,9.86842105 C24.7368421,10.7236842 24.8026316,11.5789474 24.8026316,12.5 C24.8026316,13.8815789 24.6052632,15.1973684 24.1447368,16.4473684 L17.3026316,16.4473684 C17.4342105,16.9078947 17.6315789,17.3026316 17.8289474,17.7631579 L23.6842105,17.7631579 C23.4868421,18.2236842 23.2236842,18.6842105 22.9605263,19.0789474 L18.5526316,19.0789474 C18.8157895,19.5394737 19.1447368,20 19.4736842,20.3947368 L21.9736842,20.3947368 C21.5789474,20.8552632 21.1842105,21.3157895 20.7236842,21.7105263 C22.9605263,23.6842105 25.8552632,24.9342105 29.0789474,24.9342105 C29.2763158,24.9342105 29.4736842,24.9342105 29.6710526,24.9342105 C33.4868421,22.1710526 35.9868421,17.6315789 35.9868421,12.5657895 C35.9868421,7.5 33.4868421,2.96052632 29.6710526,0.197368421 C29.4736842,0.197368421 29.2763158,0.197368421 29.0789474,0.197368421 C25.8552632,0.0657894737 22.9605263,1.31578947 20.7236842,3.28947368 Z" id="Path" fill="#D1094B"></path>
                            <polygon id="Path" fill="#FFFFFF" points="10.8552632 15.5921053 9.27631579 15.5921053 10.1973684 10.7894737 8.09210526 15.5921053 6.71052632 15.5921053 6.44736842 10.7894737 5.52631579 15.5921053 4.14473684 15.5921053 5.32894737 9.27631579 7.76315789 9.27631579 7.89473684 13.2236842 9.60526316 9.27631579 12.1052632 9.27631579"></polygon>
                            <g id="Group" transform="translate(9.210526, 9.292763)" fill="#DCE5E5">
                                <path d="M0.131578947,3.53618421 L1.05263158,1.49671053 L0.328947368,5.3125 C0.394736842,5.64144737 0.460526316,6.03618421 0.592105263,6.36513158 L1.64473684,6.36513158 L2.82894737,0.0493421053 L0.526315789,0.0493421053 C0.263157895,1.03618421 0.0657894737,2.15460526 0.0657894737,3.27302632 C0.131578947,3.33881579 0.131578947,3.40460526 0.131578947,3.53618421 Z" id="Path"></path>
                                <path d="M18.8815789,6.23355263 C18.4210526,6.36513158 18.1578947,6.43092105 17.7631579,6.43092105 C16.9736842,6.43092105 16.5789474,6.03618421 16.5789474,5.3125 C16.5789474,5.18092105 16.5789474,5.04934211 16.6447368,4.85197368 L16.7105263,4.32565789 L16.7763158,3.93092105 L17.5,0.0493421053 L19.0131579,0.0493421053 L18.8157895,1.23355263 L19.6052632,1.23355263 L19.4078947,2.41776316 L18.6184211,2.41776316 L18.2236842,4.52302632 C18.2236842,4.58881579 18.1578947,4.72039474 18.1578947,4.72039474 C18.1578947,4.98355263 18.3552632,5.11513158 18.6842105,5.11513158 C18.8815789,5.11513158 19.0131579,5.11513158 19.0789474,5.04934211 L18.8815789,6.23355263 L18.8815789,6.23355263 Z" id="Path"></path>
                                <path d="M23.4210526,1.23355263 C23.2894737,1.16776316 23.2894737,1.16776316 23.2236842,1.16776316 C23.1578947,1.16776316 23.0921053,1.16776316 23.0921053,1.10197368 C23.0263158,1.10197368 23.0263158,1.10197368 22.8947368,1.10197368 C22.3684211,1.10197368 22.0394737,1.29934211 21.5789474,1.95723684 L21.7105263,1.16776316 L20.3289474,1.16776316 L19.4078947,6.29934211 L20.9868421,6.29934211 C21.5131579,3.14144737 21.7763158,2.61513158 22.5,2.61513158 C22.5657895,2.61513158 22.6315789,2.61513158 22.6973684,2.61513158 L22.8947368,2.68092105 L23.4210526,1.23355263 L23.4210526,1.23355263 Z" id="Path"></path>
                                <path d="M12.7631579,2.8125 C12.7631579,3.47039474 13.1578947,3.93092105 13.9473684,4.19407895 C14.6052632,4.45723684 14.6710526,4.52302632 14.6710526,4.78618421 C14.6710526,5.11513158 14.4078947,5.24671053 13.75,5.24671053 C13.2894737,5.24671053 12.8289474,5.18092105 12.3684211,5.04934211 L12.1710526,6.23355263 L12.2368421,6.23355263 L12.5,6.29934211 C12.5657895,6.29934211 12.7631579,6.29934211 12.8947368,6.29934211 C13.2894737,6.36513158 13.5526316,6.36513158 13.75,6.36513158 C15.3947368,6.36513158 16.1842105,5.83881579 16.1842105,4.65460526 C16.1842105,3.93092105 15.8552632,3.53618421 15.0657895,3.20723684 C14.4078947,2.94407895 14.3421053,2.87828947 14.3421053,2.68092105 C14.3421053,2.41776316 14.6052632,2.28618421 15.1315789,2.28618421 C15.3947368,2.28618421 15.8552632,2.28618421 16.25,2.35197368 L16.4473684,1.16776316 C16.0526316,1.10197368 15.4605263,1.10197368 15.0657895,1.10197368 C13.3552632,1.10197368 12.7631579,1.89144737 12.7631579,2.8125 L12.7631579,2.8125 Z" id="Path"></path>
                                <path d="M6.64473684,6.29934211 L5.39473684,6.29934211 L5.39473684,5.77302632 C5,6.16776316 4.47368421,6.36513158 3.75,6.36513158 C2.89473684,6.36513158 2.36842105,5.77302632 2.36842105,4.98355263 C2.36842105,3.73355263 3.35526316,3.00986842 5.06578947,3.00986842 C5.26315789,3.00986842 5.46052632,3.00986842 5.72368421,3.00986842 C5.78947368,2.8125 5.78947368,2.74671053 5.78947368,2.68092105 C5.78947368,2.35197368 5.52631579,2.22039474 4.80263158,2.22039474 C4.34210526,2.22039474 3.88157895,2.28618421 3.55263158,2.35197368 L3.35526316,2.41776316 L3.22368421,2.41776316 L3.42105263,1.29934211 C4.21052632,1.10197368 4.67105263,1.03618421 5.26315789,1.03618421 C6.57894737,1.03618421 7.30263158,1.5625 7.30263158,2.54934211 C7.30263158,2.8125 7.30263158,3.00986842 7.17105263,3.60197368 L6.84210526,5.44407895 L6.77631579,5.77302632 L6.71052632,6.03618421 L6.71052632,6.23355263 L6.64473684,6.29934211 L6.64473684,6.29934211 Z M5.52631579,3.99671053 C5.32894737,3.99671053 5.26315789,3.99671053 5.19736842,3.99671053 C4.34210526,3.99671053 3.88157895,4.25986842 3.88157895,4.78618421 C3.88157895,5.11513158 4.07894737,5.3125 4.40789474,5.3125 C5.06578947,5.3125 5.52631579,4.78618421 5.52631579,3.99671053 L5.52631579,3.99671053 Z" id="Shape"></path>
                                <path d="M11.7105263,6.16776316 C11.1842105,6.29934211 10.6578947,6.36513158 10.1315789,6.36513158 C8.42105263,6.36513158 7.5,5.57565789 7.5,4.0625 C7.5,2.28618421 8.61842105,1.03618421 10.1973684,1.03618421 C11.4473684,1.03618421 12.2368421,1.75986842 12.2368421,2.87828947 C12.2368421,3.27302632 12.1710526,3.60197368 12.0394737,4.12828947 L8.94736842,4.12828947 C8.94736842,4.19407895 8.94736842,4.25986842 8.94736842,4.32565789 C8.94736842,4.91776316 9.40789474,5.24671053 10.2631579,5.24671053 C10.8552632,5.24671053 11.3157895,5.18092105 11.8421053,4.91776316 L11.7105263,6.16776316 L11.7105263,6.16776316 Z M10.9210526,3.14144737 C10.9210526,3.07565789 10.9210526,2.94407895 10.9210526,2.87828947 C10.9210526,2.48355263 10.6578947,2.22039474 10.1973684,2.22039474 C9.73684211,2.22039474 9.34210526,2.54934211 9.21052632,3.14144737 L10.9210526,3.14144737 L10.9210526,3.14144737 Z" id="Shape"></path>
                            </g>
                            <g id="Group" transform="translate(31.907895, 10.279605)" fill="#FFFFFF">
                                <path d="M5.52631579,3.00986842 C5.26315789,4.72039474 4.07894737,5.44407895 2.5,5.44407895 C0.789473684,5.44407895 0.0657894737,4.39144737 0.0657894737,3.07565789 C0.0657894737,1.29934211 1.25,0.0493421053 3.09210526,0.0493421053 C4.67105263,0.0493421053 5.52631579,1.10197368 5.52631579,2.35197368 C5.52631579,2.68092105 5.52631579,2.68092105 5.52631579,3.00986842 L5.52631579,3.00986842 Z M3.88157895,2.35197368 C3.88157895,1.82565789 3.68421053,1.36513158 3.02631579,1.36513158 C2.23684211,1.36513158 1.77631579,2.28618421 1.77631579,3.14144737 C1.77631579,3.79934211 2.10526316,4.25986842 2.63157895,4.25986842 C2.96052632,4.25986842 3.68421053,3.79934211 3.81578947,3.00986842 C3.88157895,2.74671053 3.88157895,2.54934211 3.88157895,2.35197368 L3.88157895,2.35197368 Z" id="Shape"></path>
                                <path d="M0.131578947,3.66776316 C0.197368421,3.20723684 0.263157895,2.68092105 0.263157895,2.22039474 C0.263157895,2.15460526 0.263157895,2.08881579 0.263157895,2.08881579 C0.197368421,2.41776316 0.131578947,2.74671053 0.131578947,3.14144737 C0.0657894737,3.27302632 0.0657894737,3.47039474 0.131578947,3.66776316 Z" id="Path"></path>
                            </g>
                        </g>
                    </g>
                </g>
            </g>
        </g>
    </g>
</svg>