<?xml version="1.0" encoding="UTF-8"?>
<svg width="20px" height="20px" viewBox="0 0 20 20" version="1.1" xmlns="http://www.w3.org/2000/svg" xmlns:xlink="http://www.w3.org/1999/xlink">
    <!-- Generator: Sketch 64 (93537) - https://sketch.com -->
    <title>at (1)</title>
    <desc>Created with Sketch.</desc>
    <g id="Page-1" stroke="none" stroke-width="1" fill="none" fill-rule="evenodd">
        <g id="Desktop-HD" transform="translate(-940.000000, -3704.000000)" fill="#F9F8FF" fill-rule="nonzero">
            <g id="footer" transform="translate(0.000000, 3523.000000)">
                <g id="Group-41" transform="translate(938.000000, 99.000000)">
                    <g id="Group-38" transform="translate(2.000000, 78.000000)">
                        <g id="at-(1)" transform="translate(0.000000, 4.000000)">
                            <path d="M8.85683594,0.06390625 C4.34605469,0.567109375 0.6825,4.14851563 0.0892578125,8.64828125 C-0.751289062,15.0248437 4.46183594,20.4496875 10.7763281,19.9705078 C13.0991406,19.7942188 15.2733594,18.7562109 16.9769531,17.1674219 L17.1232812,17.0310156 C17.2916016,16.8740625 17.3007812,16.6103906 17.1438281,16.4421094 L16.5752734,15.8324609 C16.4183203,15.6641406 16.1546875,15.6549609 15.9863672,15.8119141 L15.6815625,16.0961719 C13.7866406,17.8630469 11.1853125,18.6579687 8.56109375,18.2110547 C4.84175781,17.5776172 1.98253906,14.4199609 1.69210937,10.6582422 C1.30808594,5.68390625 5.32058594,1.52707031 10.2470313,1.67023438 C14.7895313,1.80230469 18.3333203,5.67867188 18.3333203,10.2230859 L18.3333203,10.8333203 C18.3333203,11.8073047 17.4940234,12.5884766 16.5004687,12.4919141 C15.6346094,12.4076953 14.999994,11.6294531 14.999994,10.7594531 L14.999994,7.08335938 C14.999994,6.85320313 14.8134375,6.66667969 14.5833203,6.66667969 L13.75,6.66667969 C13.5826953,6.66667969 13.4405859,6.76667969 13.3742969,6.90898438 C12.5358203,5.99441406 11.335625,5.41667969 9.99999396,5.41667969 C7.47273437,5.41667969 5.41667969,7.47273437 5.41667969,10 C5.41667969,12.5272656 7.47273437,14.5833594 9.99999396,14.5833594 C11.5919922,14.5833594 12.9957422,13.7666016 13.8176562,12.5310156 C14.4364844,13.5651953 15.58625,14.2467188 16.895,14.1590234 C18.6646484,14.0404687 19.999994,12.4892578 19.999994,10.7156641 L19.999994,10 C19.999994,4.10945313 14.8801172,-0.608046875 8.85683594,0.06390625 Z M10,12.9166797 C8.39191406,12.9166797 7.08332031,11.6080859 7.08332031,10 C7.08332031,8.39191406 8.39191406,7.08332031 10,7.08332031 C11.6080859,7.08332031 12.9166797,8.39191406 12.9166797,10 C12.9166797,11.6080859 11.6080859,12.9166797 10,12.9166797 Z" id="Shape"></path>
                        </g>
                    </g>
                </g>
            </g>
        </g>
    </g>
</svg>