<?xml version="1.0" encoding="UTF-8"?>
<svg width="100px" height="100px" viewBox="0 0 100 100" version="1.1" xmlns="http://www.w3.org/2000/svg" xmlns:xlink="http://www.w3.org/1999/xlink">
    <!-- Generator: Sketch 64 (93537) - https://sketch.com -->
    <title>mysql</title>
    <desc>Created with Sketch.</desc>
    <defs>
        <linearGradient x1="-9.38508662%" y1="24.2054684%" x2="108.876928%" y2="79.3429899%" id="linearGradient-1">
            <stop stop-color="#FFFFFF" stop-opacity="0.2" offset="0%"></stop>
            <stop stop-color="#FFFFFF" stop-opacity="0" offset="100%"></stop>
        </linearGradient>
    </defs>
    <g id="Page-1" stroke="none" stroke-width="1" fill="none" fill-rule="evenodd">
        <g id="Desktop-HD" transform="translate(-678.000000, -1133.000000)" fill-rule="nonzero">
            <g id="Supp-Tech" transform="translate(363.000000, 994.000000)">
                <g id="Technologies" transform="translate(37.000000, 80.000000)">
                    <g id="tech-ico" transform="translate(0.000000, 58.500000)">
                        <g id="Group-19" transform="translate(278.000000, 0.500000)">
                            <g id="mysql">
                                <g id="Group">
                                    <path d="M99.6175781,96.7125 C97.9044922,94.2974609 95.1294922,92.2935547 92.1916016,90.1714844 C89.0279297,87.8908203 85.7789062,85.5449219 84.1511719,82.81875 C90.3259766,81.5289062 98.1384766,79.1912109 98.5148437,79.0792969 C99.1863281,78.8779297 99.7130859,78.3509766 99.9125,77.6794922 C100.113867,77.0080078 99.9632812,76.2796875 99.5117187,75.7425781 C99.1087891,75.2644531 89.6503906,64.1662109 74.3835937,58.721875 C73.7101562,57.3730469 72.959375,55.64375 72.0867187,53.64375 C65.9382812,39.5369141 53.1738281,10.2603516 19.4966797,6.32148437 C16.8130859,4.50878906 9.77988281,0.000390625 6.25,0.000390625 C1.86972656,0.000390625 0,1.87011719 0,6.25039062 C0,8.38261719 1.73535156,10.8748047 4.56542969,14.7667969 C5.94882812,16.6691406 8.26425781,19.853125 8.33339844,20.8337891 C8.33339844,24.2435547 12.2884766,35.2828125 16.2660156,40.0048828 C16.1521484,40.2470703 16.0380859,40.4849609 15.9261719,40.7210938 C14.1642578,44.4339844 12.5,47.9414062 12.5,56.2503906 C12.5,67.1919922 17.7408203,72.9169922 22.9166016,72.9169922 C26.1291016,72.9169922 27.728125,69.2710937 28.4972656,65.0027344 C31.3517578,70.7949219 36.0148437,78.3410156 42.5476562,82.953125 C43.4896484,83.6123047 44.7896484,83.3884766 45.4529297,82.4525391 C46.1162109,81.5105469 45.8923828,80.2125 44.9523437,79.5472656 C34.5925781,72.2351563 29.1177734,55.7699219 29.0628906,55.603125 C28.7455078,54.6306641 27.7486328,54.0283203 26.7556641,54.1931641 C25.7445312,54.3539063 24.9998047,55.2267578 24.9998047,56.25 C24.9998047,61.9710938 23.909375,68.0664062 22.9164062,68.75 C19.9115234,68.75 16.6664063,63.9708984 16.6664063,56.25 C16.6664063,48.8789063 18.0009766,46.0673828 19.6896484,42.5068359 C20.0050781,41.8416016 20.3304688,41.1580078 20.6541016,40.4296875 C21.0263672,39.5894531 20.8066406,38.6046875 20.1109375,38.0044922 C16.9005859,35.2400391 12.5,23.6005859 12.5,20.8335938 C12.5,18.7013672 10.7646484,16.2091797 7.93457031,12.3171875 C6.55117187,10.4148438 4.23574219,7.23085937 4.16660156,6.25019531 C4.16660156,4.16679688 4.16660156,4.16679688 6.25,4.16679688 C7.93867187,4.16679688 13.4419922,7.22050781 17.5720703,10.0525391 C17.8548828,10.2458984 18.1824219,10.3679688 18.5261719,10.4044922 C50.1892578,13.8386719 61.9505859,40.8162109 68.2677734,55.3101562 C69.3318359,57.7515625 70.2513672,59.8613281 71.0814453,61.4035156 C71.3316406,61.8693359 71.7488281,62.2214844 72.2472656,62.3902344 C82.6457031,65.9140625 90.3992187,72.4996094 94.0328125,76.0357422 C90.4845703,77.0306641 84.8185547,78.5443359 80.9082031,79.1953125 C80.334375,79.2910156 79.8257812,79.6226562 79.5083984,80.1087891 C79.1890625,80.5951172 79.0873047,81.1912109 79.2296875,81.7546875 C80.509375,86.8816406 85.4207031,90.4257813 89.7521484,93.5507812 C92.403125,95.4632813 94.9054687,97.2699219 96.2158203,99.1212891 C96.6226562,99.6951172 97.265625,100.000195 97.91875,100.000195 C98.3357422,100.000195 98.7548828,99.8761719 99.1210937,99.6177734 C100.058984,98.9525391 100.282812,97.6525391 99.6175781,96.7125 Z" id="Path" fill="#000D1F"></path>
                                    <path d="M18.75,16.6669922 C18.75,17.8185547 19.6818359,18.7503906 20.8333984,18.7503906 C21.9828125,18.7503906 22.9167969,19.6841797 22.9167969,20.8337891 C22.9167969,21.9853516 23.8486328,22.9171875 25.0001953,22.9171875 C26.1517578,22.9171875 27.0835938,21.9853516 27.0835938,20.8337891 C27.0835938,17.3873047 24.2800781,14.583789 20.8335938,14.583789 C19.6818359,14.5835938 18.75,15.5154297 18.75,16.6669922 Z" id="Path" fill="#FF0055"></path>
                                </g>
                                <path d="M99.6175781,96.7125 C97.9044922,94.2974609 95.1294922,92.2935547 92.1916016,90.1714844 C89.0279297,87.8908203 85.7789062,85.5449219 84.1511719,82.81875 C90.3259766,81.5289062 98.1384766,79.1912109 98.5148437,79.0792969 C99.1863281,78.8779297 99.7130859,78.3509766 99.9125,77.6794922 C100.113867,77.0080078 99.9632812,76.2796875 99.5117187,75.7425781 C99.1087891,75.2644531 89.6503906,64.1662109 74.3835937,58.721875 C73.7101562,57.3730469 72.959375,55.64375 72.0867187,53.64375 C65.9382812,39.5369141 53.1738281,10.2603516 19.4966797,6.32148437 C16.8130859,4.50878906 9.77988281,0.000390625 6.25,0.000390625 C1.86972656,0.000390625 0,1.87011719 0,6.25039062 C0,8.38261719 1.73535156,10.8748047 4.56542969,14.7667969 C5.94882812,16.6691406 8.26425781,19.853125 8.33339844,20.8337891 C8.33339844,24.2435547 12.2884766,35.2828125 16.2660156,40.0048828 C16.1521484,40.2470703 16.0380859,40.4849609 15.9261719,40.7210937 C14.1642578,44.4339844 12.5,47.9414062 12.5,56.2503906 C12.5,67.1919922 17.7408203,72.9169922 22.9166016,72.9169922 C26.1291016,72.9169922 27.728125,69.2710937 28.4972656,65.0027344 C31.3517578,70.7949219 36.0148437,78.3410156 42.5476562,82.953125 C43.4896484,83.6123047 44.7896484,83.3884766 45.4529297,82.4525391 C46.1162109,81.5105469 45.8923828,80.2125 44.9523437,79.5472656 C34.5925781,72.2351563 29.1177734,55.7699219 29.0628906,55.603125 C28.7455078,54.6306641 27.7486328,54.0283203 26.7556641,54.1931641 C25.7445312,54.3539062 24.9998047,55.2267578 24.9998047,56.25 C24.9998047,61.9710938 23.909375,68.0664062 22.9164062,68.75 C19.9115234,68.75 16.6664063,63.9708984 16.6664063,56.25 C16.6664063,48.8789063 18.0009766,46.0673828 19.6896484,42.5068359 C20.0050781,41.8416016 20.3304688,41.1580078 20.6541016,40.4296875 C21.0263672,39.5894531 20.8066406,38.6046875 20.1109375,38.0044922 C16.9005859,35.2400391 12.5,23.6005859 12.5,20.8335938 C12.5,18.7013672 10.7646484,16.2091797 7.93457031,12.3171875 C6.55117187,10.4148437 4.23574219,7.23085937 4.16660156,6.25019531 C4.16660156,4.16679687 4.16660156,4.16679687 6.25,4.16679687 C7.93867187,4.16679687 13.4419922,7.22050781 17.5720703,10.0525391 C17.8548828,10.2458984 18.1824219,10.3679687 18.5261719,10.4044922 C50.1892578,13.8386719 61.9505859,40.8162109 68.2677734,55.3101562 C69.3318359,57.7515625 70.2513672,59.8613281 71.0814453,61.4035156 C71.3316406,61.8693359 71.7488281,62.2214844 72.2472656,62.3902344 C82.6457031,65.9140625 90.3992187,72.4996094 94.0328125,76.0357422 C90.4845703,77.0306641 84.8185547,78.5443359 80.9082031,79.1953125 C80.334375,79.2910156 79.8257812,79.6226562 79.5083984,80.1087891 C79.1890625,80.5951172 79.0873047,81.1912109 79.2296875,81.7546875 C80.509375,86.8816406 85.4207031,90.4257813 89.7521484,93.5507812 C92.403125,95.4632813 94.9054687,97.2699219 96.2158203,99.1212891 C96.6226562,99.6951172 97.265625,100.000195 97.91875,100.000195 C98.3357422,100.000195 98.7548828,99.8761719 99.1210937,99.6177734 C100.058984,98.9525391 100.282812,97.6525391 99.6175781,96.7125 Z M18.75,16.6669922 C18.75,17.8185547 19.6818359,18.7503906 20.8333984,18.7503906 C21.9828125,18.7503906 22.9167969,19.6841797 22.9167969,20.8337891 C22.9167969,21.9853516 23.8486328,22.9171875 25.0001953,22.9171875 C26.1517578,22.9171875 27.0835938,21.9853516 27.0835938,20.8337891 C27.0835938,17.3873047 24.2800781,14.583789 20.8335938,14.583789 C19.6818359,14.5835938 18.75,15.5154297 18.75,16.6669922 Z" id="Shape" fill="url(#linearGradient-1)"></path>
                            </g>
                        </g>
                    </g>
                </g>
            </g>
        </g>
    </g>
</svg>