<?xml version="1.0" encoding="UTF-8"?>
<svg width="22px" height="20px" viewBox="0 0 22 20" version="1.1" xmlns="http://www.w3.org/2000/svg" xmlns:xlink="http://www.w3.org/1999/xlink">
    <!-- Generator: Sketch 64 (93537) - https://sketch.com -->
    <title>client (1)</title>
    <desc>Created with Sketch.</desc>
    <g id="Page-1" stroke="none" stroke-width="1" fill="none" fill-rule="evenodd">
        <g id="Desktop-HD" transform="translate(-482.000000, -3708.000000)" fill="#FF0055" fill-rule="nonzero">
            <g id="footer" transform="translate(0.000000, 3523.000000)">
                <g id="Group-35" transform="translate(482.000000, 93.000000)">
                    <g id="Group-11" transform="translate(0.000000, 90.000000)">
                        <g id="client-(1)" transform="translate(0.000000, 2.000000)">
                            <path d="M19.9212766,5.82374468 L19.0039149,5.82374468 L19.0039149,5.23382979 L19.5762979,4.60344681 C19.8734468,4.27621277 20.0370638,3.85259574 20.0370638,3.41055319 L20.0370638,1.91561702 C20.0370638,0.870297872 19.1865957,0.0198723404 18.1412766,0.0198723404 L17.2692766,0.0198723404 C16.2239574,0.0198723404 15.3735319,0.870340426 15.3735319,1.91561702 L15.3735319,3.41055319 C15.3735319,3.85259574 15.5371915,4.27625532 15.8342553,4.60344681 L16.4067234,5.23391489 L16.4067234,5.82374468 L15.4893617,5.82374468 C14.5981277,5.82374468 13.8511915,6.452 13.6671915,7.28885106 C13.5735319,7.27574468 13.4780426,7.26851064 13.3808511,7.26851064 L12.3062979,7.26851064 L12.3062979,6.54689362 L12.9617872,5.82506383 C13.2894894,5.46412766 13.47,4.99685106 13.47,4.50931915 L13.47,2.82553191 C13.47,1.67097872 12.5307234,0.731787234 11.3762128,0.731787234 C11.1952766,0.731787234 11.0486809,0.878382979 11.0486809,1.05931915 C11.0486809,1.24025532 11.1952766,1.38685106 11.3762128,1.38685106 C12.1695319,1.38685106 12.8149362,2.03221277 12.8149362,2.82553191 L12.8149362,4.5092766 C12.8149362,4.83365957 12.6948511,5.14451064 12.4768511,5.3846383 L11.8018723,6.128 C11.7113191,6.18625532 11.6513191,6.28791489 11.6513191,6.40365957 L11.6513191,7.59608511 C11.6513191,7.77702128 11.7979149,7.92361702 11.9788511,7.92361702 L13.3809362,7.92361702 C14.1557021,7.92361702 14.7860851,8.55395745 14.7860851,9.32876596 L14.7860851,11.384 L6.98425532,11.384 L6.98425532,9.32876596 C6.98425532,8.72468085 7.36748936,8.20851064 7.90348936,8.01029787 C7.92868085,8.00502128 7.95268085,7.9966383 7.9753617,7.98591489 C8.10629787,7.94548936 8.2453617,7.92357447 8.3893617,7.92357447 L9.79144681,7.92357447 C9.97234043,7.92357447 10.1189787,7.77697872 10.1189787,7.59604255 L10.1189787,6.40361702 C10.1189787,6.28791489 10.0589787,6.18621277 9.96842553,6.12795745 L9.29344681,5.38459574 C9.07540426,5.14446809 8.9552766,4.83357447 8.9552766,4.50923404 L8.9552766,2.82553191 C8.9552766,2.03225532 9.6006383,1.38685106 10.394,1.38685106 C10.5748936,1.38685106 10.7215319,1.24025532 10.7215319,1.05931915 C10.7215319,0.878382979 10.5748936,0.731787234 10.394,0.731787234 C9.23944681,0.731787234 8.30021277,1.67102128 8.30021277,2.82553191 L8.30021277,4.5092766 C8.30021277,4.99676596 8.4807234,5.46404255 8.80842553,5.82502128 L9.46382979,6.54680851 L9.46382979,7.26846809 L8.3892766,7.26846809 C8.29774468,7.26846809 8.20778723,7.27506383 8.11940426,7.2867234 C7.9346383,6.45093617 7.18829787,5.82374468 6.29778723,5.82374468 L5.38042553,5.82374468 L5.38042553,5.23382979 L5.95280851,4.60344681 C6.24995745,4.27621277 6.41357447,3.85259574 6.41357447,3.41055319 L6.41357447,1.91561702 C6.41357447,0.870297872 5.56310638,0.0198723404 4.51778723,0.0198723404 L3.64587234,0.0198723404 C2.60055319,0.0198723404 1.75012766,0.870340426 1.75012766,1.91561702 L1.75012766,3.41055319 C1.75012766,3.85259574 1.91374468,4.27625532 2.21089362,4.60344681 L2.78331915,5.23387234 L2.78331915,5.82374468 L1.86595745,5.82374468 C0.83706383,5.82374468 0,6.66080851 0,7.68970213 L0,9.8052766 C0,9.98621277 0.146638298,10.1328085 0.327531915,10.1328085 L5.42361702,10.1328085 C5.60451064,10.1328085 5.75114894,9.98621277 5.75114894,9.8052766 C5.75114894,9.62434043 5.60451064,9.47774468 5.42361702,9.47774468 L0.65506383,9.47774468 L0.65506383,7.68970213 C0.65506383,7.02204255 1.19825532,6.47880851 1.86595745,6.47880851 L3.11085106,6.47880851 C3.29174468,6.47880851 3.43838298,6.33221277 3.43838298,6.1512766 L3.43838298,5.09255319 C3.43838298,4.9786383 3.38021277,4.87829787 3.29195745,4.81961702 L2.69582979,4.16310638 C2.50838298,3.95668085 2.40514894,3.68944681 2.40514894,3.41059574 L2.40514894,1.91561702 C2.40514894,1.23148936 2.96170213,0.67493617 3.64582979,0.67493617 L4.51782979,0.67493617 C5.20195745,0.67493617 5.75855319,1.23148936 5.75855319,1.91561702 L5.75855319,3.41055319 C5.75855319,3.68940426 5.65531915,3.95668085 5.46787234,4.16306383 L4.87170213,4.81961702 C4.78348936,4.87829787 4.7253617,4.9786383 4.7253617,5.09251064 L4.7253617,6.15123404 C4.7253617,6.33217021 4.872,6.47876596 5.05289362,6.47876596 L6.29778723,6.47876596 C6.89246809,6.47876596 7.38804255,6.90978723 7.4893617,7.47578723 C6.80310638,7.81042553 6.32914894,8.51510638 6.32914894,9.3286383 L6.32914894,11.7114043 C6.32914894,11.8923404 6.47578723,12.0389362 6.65668085,12.0389362 L15.1135319,12.0389362 C15.2944681,12.0389362 15.4410638,11.8923404 15.4410638,11.7114043 L15.4410638,9.3286383 C15.4410638,8.5213617 14.9741277,7.82144681 14.2963404,7.48374468 C14.3944255,6.91387234 14.8918723,6.47876596 15.4893617,6.47876596 L16.7342553,6.47876596 C16.9151915,6.47876596 17.0617872,6.33217021 17.0617872,6.15123404 L17.0617872,5.09251064 C17.0617872,4.97855319 17.003617,4.87821277 16.9153191,4.81953191 L16.319234,4.16306383 C16.1317872,3.95668085 16.0285957,3.68940426 16.0285957,3.41055319 L16.0285957,1.91561702 C16.0285957,1.23148936 16.5851489,0.67493617 17.2692766,0.67493617 L18.1412766,0.67493617 C18.8254043,0.67493617 19.382,1.23148936 19.382,1.91561702 L19.382,3.41055319 C19.382,3.68940426 19.278766,3.95668085 19.0913191,4.16306383 L18.4951915,4.81961702 C18.4069362,4.87829787 18.3488085,4.9786383 18.3488085,5.09251064 L18.3488085,6.15123404 C18.3488085,6.33217021 18.4954043,6.47876596 18.6763404,6.47876596 L19.921234,6.47876596 C20.5888936,6.47876596 21.1321277,7.02195745 21.1321277,7.68965957 L21.1321277,9.47770213 L16.4199149,9.47770213 C16.2389787,9.47770213 16.092383,9.62429787 16.092383,9.80523404 C16.092383,9.98617021 16.2389787,10.132766 16.4199149,10.132766 L21.4596596,10.132766 C21.6405957,10.132766 21.7871915,9.98617021 21.7871915,9.80523404 L21.7871915,7.68965957 C21.7871915,6.66080851 20.9501702,5.82374468 19.9212766,5.82374468 Z" id="Path"></path>
                            <path d="M14.1874894,16.1900426 C14.1497021,16.0735319 14.05,15.9878723 13.9290638,15.968 L12.1398723,15.6742979 L11.3076596,14.0634043 C11.2514468,13.9545957 11.1391915,13.8861702 11.0166809,13.8861702 C10.8941702,13.8861702 10.7819149,13.9545106 10.7257021,14.0634043 L9.89348936,15.6742979 L8.10429787,15.968 C7.98340426,15.9878723 7.88370213,16.0734894 7.84582979,16.1900426 C7.80795745,16.3065532 7.83829787,16.4344255 7.92442553,16.5215745 L9.19923404,17.8108085 L8.92565957,19.6031489 C8.90719149,19.7242553 8.95778723,19.8455745 9.05693617,19.9175319 C9.11395745,19.9589787 9.18153191,19.9801303 9.24948936,19.9801303 C9.29961702,19.9801303 9.35,19.9685957 9.39646809,19.945234 L11.0165957,19.1311915 L12.6367234,19.945234 C12.7462128,20.0002553 12.877234,19.989617 12.9762553,19.9175319 C13.0754043,19.8455745 13.126,19.7242553 13.1075319,19.6031489 L12.8339149,17.8108085 L14.1087234,16.5215745 C14.1950638,16.4344255 14.2253617,16.3065532 14.1874894,16.1900426 Z M12.2525957,17.4671915 C12.1797872,17.5408511 12.1461277,17.6445957 12.1617021,17.7468936 L12.3644681,19.0751489 L11.1637872,18.4719149 C11.071234,18.4254468 10.9622128,18.4254468 10.8697021,18.4719149 L9.66902128,19.0751489 L9.87174468,17.7468936 C9.8873617,17.6445106 9.85365957,17.540766 9.78085106,17.4671915 L8.836,16.5117021 L10.1619574,16.2940851 C10.2641277,16.2772766 10.352383,16.2131489 10.3998723,16.1211915 L11.0166383,14.9273617 L11.6333617,16.1211915 C11.6808936,16.2131489 11.7691064,16.2772766 11.8712766,16.2940851 L13.197234,16.5117021 L12.2525957,17.4671915 Z" id="Shape"></path>
                            <path d="M21.3571915,13.7816596 C21.3193191,13.6651489 21.2197021,13.5794894 21.0988511,13.559617 L19.3096596,13.2659149 L18.4774043,11.6550213 C18.4211915,11.5462128 18.3089362,11.4777872 18.1864255,11.4777872 C18.0638723,11.4777872 17.9516596,11.5461277 17.8954468,11.6550213 L17.063234,13.2659149 L15.274,13.559617 C15.1531064,13.5794894 15.0534043,13.6651064 15.0155319,13.7816596 C14.9776596,13.8981702 15.0079574,14.0260851 15.0941277,14.1131915 L16.3689787,15.4024255 L16.0953617,17.1948085 C16.0768936,17.3159149 16.1274894,17.437234 16.2266383,17.5091915 C16.3257872,17.5811915 16.456766,17.5919574 16.5661702,17.5368936 L18.1862979,16.7228511 L19.8064255,17.5368936 C19.8528936,17.5602553 19.9032766,17.5717872 19.9534043,17.5717872 C20.0214043,17.5717872 20.0889787,17.5506809 20.1459574,17.5091915 C20.2451064,17.437234 20.2957021,17.3159149 20.277234,17.1948085 L20.003617,15.4024255 L21.2784681,14.1131915 C21.364766,14.0260851 21.3950638,13.8981702 21.3571915,13.7816596 Z M19.4222979,15.0588511 C19.3494894,15.1324681 19.3158298,15.2362553 19.3314043,15.3385532 L19.5341702,16.6668511 L18.3334894,16.063617 C18.2871915,16.040383 18.2368511,16.0287234 18.1864255,16.0287234 C18.136,16.0287234 18.085617,16.040383 18.0393617,16.063617 L16.8386809,16.6668511 L17.0414468,15.3385532 C17.0570213,15.2361702 17.0233617,15.1324255 16.9505532,15.0588511 L16.0057447,14.1034043 L17.3317021,13.8857872 C17.4339149,13.8689787 17.5221277,13.8048511 17.569617,13.7128936 L18.1863404,12.5190638 L18.8031064,13.7128936 C18.8506383,13.8048511 18.9388511,13.8689787 19.0410213,13.8857872 L20.3669362,14.1034043 L19.4222979,15.0588511 Z" id="Shape"></path>
                            <path d="M7.01782979,13.7817021 C6.98,13.6651489 6.88025532,13.5794894 6.7593617,13.559617 L4.97017021,13.2659149 L4.13795745,11.6550213 C4.08170213,11.5462128 3.96948936,11.4777872 3.84693617,11.4777872 C3.72438298,11.4777872 3.61217021,11.5461277 3.55591489,11.6550213 L2.72378723,13.2659574 L0.934595745,13.5596596 C0.813702128,13.5795319 0.714,13.6651489 0.67612766,13.7817021 C0.638255319,13.8982128 0.668595745,14.0261277 0.754723404,14.113234 L2.02957447,15.4024681 L1.756,17.1948511 C1.73753191,17.3159574 1.78812766,17.4372766 1.8872766,17.509234 C1.98638298,17.581234 2.1173617,17.592 2.22680851,17.5369362 L3.84693617,16.7228936 L5.46702128,17.5369362 C5.51348936,17.5602979 5.56387234,17.5718298 5.614,17.5718298 C5.68195745,17.5718298 5.74957447,17.5507234 5.80655319,17.509234 C5.90570213,17.4372766 5.95629787,17.3159574 5.93782979,17.1948511 L5.66425532,15.4024681 L6.93906383,14.113234 C7.02531915,14.0260851 7.05570213,13.8982128 7.01782979,13.7817021 Z M5.08285106,15.0588511 C5.01004255,15.1324681 4.97634043,15.2362553 4.99195745,15.3385532 L5.19468085,16.6668511 L3.99404255,16.063617 C3.94778723,16.0403404 3.89740426,16.0287234 3.84697872,16.0287234 C3.79655319,16.0287234 3.74617021,16.040383 3.69991489,16.063617 L2.49923404,16.6668511 L2.702,15.3385532 C2.71761702,15.2361702 2.68391489,15.1324255 2.61110638,15.0588511 L1.66642553,14.1034043 L2.99238298,13.8857872 C3.09455319,13.8689787 3.18280851,13.8048511 3.23034043,13.7128936 L3.84706383,12.5190638 L4.46378723,13.7128936 C4.51131915,13.8048511 4.59957447,13.8689787 4.70174468,13.8857872 L6.02770213,14.1034043 L5.08285106,15.0588511 Z" id="Shape"></path>
                        </g>
                    </g>
                </g>
            </g>
        </g>
    </g>
</svg>