<?xml version="1.0" encoding="UTF-8"?>
<svg width="97px" height="25px" viewBox="0 0 97 25" version="1.1" xmlns="http://www.w3.org/2000/svg" xmlns:xlink="http://www.w3.org/1999/xlink">
    <!-- Generator: Sketch 64 (93537) - https://sketch.com -->
    <title>paypal</title>
    <desc>Created with Sketch.</desc>
    <g id="Page-1" stroke="none" stroke-width="1" fill="none" fill-rule="evenodd">
        <g id="Desktop-HD" transform="translate(-1207.000000, -3601.000000)" fill-rule="nonzero">
            <g id="footer" transform="translate(0.000000, 3523.000000)">
                <g id="Group-40" transform="translate(1183.000000, 54.000000)">
                    <g id="Group-39" transform="translate(24.000000, 24.000000)">
                        <g id="paypal">
                            <path d="M74.9230769,6.57692308 L69.6923077,6.57692308 C69.3846154,6.57692308 69.0769231,6.88461538 68.9230769,7.19230769 L66.7692308,20.7307692 C66.7692308,21.0384615 66.9230769,21.1923077 67.2307692,21.1923077 L70,21.1923077 C70.3076923,21.1923077 70.4615385,21.0384615 70.4615385,20.7307692 L71.0769231,16.8846154 C71.0769231,16.5769231 71.3846154,16.2692308 71.8461538,16.2692308 L73.5384615,16.2692308 C77.0769231,16.2692308 79.0769231,14.5769231 79.5384615,11.1923077 C79.8461538,9.80769231 79.5384615,8.57692308 78.9230769,7.80769231 C78,7.03846154 76.6153846,6.57692308 74.9230769,6.57692308 M75.5384615,11.6538462 C75.2307692,13.5 73.8461538,13.5 72.4615385,13.5 L71.5384615,13.5 L72.1538462,9.96153846 C72.1538462,9.80769231 72.3076923,9.65384615 72.6153846,9.65384615 L72.9230769,9.65384615 C73.8461538,9.65384615 74.7692308,9.65384615 75.2307692,10.2692308 C75.5384615,10.4230769 75.5384615,10.8846154 75.5384615,11.6538462" id="Shape" fill="#139AD6"></path>
                            <g id="Group" transform="translate(29.038462, 6.538462)" fill="#263B80">
                                <path d="M8.19230769,0.0384615385 L2.96153846,0.0384615385 C2.65384615,0.0384615385 2.34615385,0.346153846 2.19230769,0.653846154 L0.0384615385,14.1923077 C0.0384615385,14.5 0.192307692,14.6538462 0.5,14.6538462 L2.96153846,14.6538462 C3.26923077,14.6538462 3.57692308,14.3461538 3.73076923,14.0384615 L4.34615385,10.3461538 C4.34615385,10.0384615 4.65384615,9.73076923 5.11538462,9.73076923 L6.80769231,9.73076923 C10.3461538,9.73076923 12.3461538,8.03846154 12.8076923,4.65384615 C13.1153846,3.26923077 12.8076923,2.03846154 12.1923077,1.26923077 C11.2692308,0.5 10.0384615,0.0384615385 8.19230769,0.0384615385 M8.80769231,5.11538462 C8.5,6.96153846 7.11538462,6.96153846 5.73076923,6.96153846 L4.96153846,6.96153846 L5.57692308,3.42307692 C5.57692308,3.26923077 5.73076923,3.11538462 6.03846154,3.11538462 L6.34615385,3.11538462 C7.26923077,3.11538462 8.19230769,3.11538462 8.65384615,3.73076923 C8.80769231,3.88461538 8.96153846,4.34615385 8.80769231,5.11538462" id="Shape"></path>
                                <path d="M24.0384615,4.96153846 L21.5769231,4.96153846 C21.4230769,4.96153846 21.1153846,5.11538462 21.1153846,5.26923077 L20.9615385,6.03846154 L20.8076923,5.73076923 C20.1923077,4.96153846 19.1153846,4.65384615 17.8846154,4.65384615 C15.1153846,4.65384615 12.6538462,6.80769231 12.1923077,9.73076923 C11.8846154,11.2692308 12.3461538,12.6538462 13.1153846,13.5769231 C13.8846154,14.5 14.9615385,14.8076923 16.3461538,14.8076923 C18.6538462,14.8076923 19.8846154,13.4230769 19.8846154,13.4230769 L19.7307692,14.1923077 C19.7307692,14.5 19.8846154,14.6538462 20.1923077,14.6538462 L22.5,14.6538462 C22.8076923,14.6538462 23.1153846,14.3461538 23.2692308,14.0384615 L24.6538462,5.42307692 C24.5,5.26923077 24.1923077,4.96153846 24.0384615,4.96153846 M20.5,9.88461538 C20.1923077,11.2692308 19.1153846,12.3461538 17.5769231,12.3461538 C16.8076923,12.3461538 16.1923077,12.0384615 15.8846154,11.7307692 C15.5769231,11.2692308 15.4230769,10.6538462 15.4230769,9.88461538 C15.5769231,8.5 16.8076923,7.42307692 18.1923077,7.42307692 C18.9615385,7.42307692 19.4230769,7.73076923 19.8846154,8.03846154 C20.3461538,8.5 20.5,9.26923077 20.5,9.88461538" id="Shape"></path>
                            </g>
                            <path d="M90.6153846,11.5 L88.1538462,11.5 C88,11.5 87.6923077,11.6538462 87.6923077,11.8076923 L87.5384615,12.5769231 L87.3846154,12.2692308 C86.7692308,11.5 85.6923077,11.1923077 84.4615385,11.1923077 C81.6923077,11.1923077 79.2307692,13.3461538 78.7692308,16.2692308 C78.4615385,17.8076923 78.9230769,19.1923077 79.6923077,20.1153846 C80.4615385,21.0384615 81.5384615,21.3461538 82.9230769,21.3461538 C85.2307692,21.3461538 86.4615385,19.9615385 86.4615385,19.9615385 L86.3076923,20.7307692 C86.3076923,21.0384615 86.4615385,21.1923077 86.7692308,21.1923077 L89.0769231,21.1923077 C89.3846154,21.1923077 89.6923077,20.8846154 89.8461538,20.5769231 L91.2307692,11.9615385 C91.0769231,11.8076923 90.9230769,11.5 90.6153846,11.5 M87.0769231,16.4230769 C86.7692308,17.8076923 85.6923077,18.8846154 84.1538462,18.8846154 C83.3846154,18.8846154 82.7692308,18.5769231 82.4615385,18.2692308 C82.1538462,17.8076923 82,17.1923077 82,16.4230769 C82.1538462,15.0384615 83.3846154,13.9615385 84.7692308,13.9615385 C85.5384615,13.9615385 86,14.2692308 86.4615385,14.5769231 C87.0769231,15.0384615 87.2307692,15.8076923 87.0769231,16.4230769" id="Shape" fill="#139AD6"></path>
                            <path d="M66.4615385,11.5 L63.8461538,11.5 C63.5384615,11.5 63.3846154,11.6538462 63.2307692,11.8076923 L59.8461538,17.0384615 L58.3076923,12.1153846 C58.1538462,11.8076923 58,11.6538462 57.5384615,11.6538462 L55.0769231,11.6538462 C54.7692308,11.6538462 54.6153846,11.9615385 54.6153846,12.2692308 L57.3846154,20.4230769 L54.7692308,24.1153846 C54.6153846,24.4230769 54.7692308,24.8846154 55.0769231,24.8846154 L57.5384615,24.8846154 C57.8461538,24.8846154 58,24.7307692 58.1538462,24.5769231 L66.6153846,12.4230769 C67.0769231,11.9615385 66.7692308,11.5 66.4615385,11.5" id="Path" fill="#263B80"></path>
                            <path d="M93.5384615,7.03846154 L91.3846154,20.8846154 C91.3846154,21.1923077 91.5384615,21.3461538 91.8461538,21.3461538 L94,21.3461538 C94.3076923,21.3461538 94.6153846,21.0384615 94.7692308,20.7307692 L96.9230769,7.19230769 C96.9230769,6.88461538 96.7692308,6.73076923 96.4615385,6.73076923 L94,6.73076923 C93.8461538,6.57692308 93.6923077,6.73076923 93.5384615,7.03846154" id="Path" fill="#139AD6"></path>
                            <path d="M17.6923077,1.96153846 C16.6153846,0.730769231 14.6153846,0.115384615 11.8461538,0.115384615 L4.15384615,0.115384615 C3.69230769,0.115384615 3.23076923,0.576923077 3.07692308,1.03846154 L0,21.1923077 C0,21.6538462 0.307692308,21.9615385 0.615384615,21.9615385 L5.38461538,21.9615385 L6.61538462,14.4230769 L6.61538462,14.7307692 C6.76923077,14.2692308 7.23076923,13.8076923 7.69230769,13.8076923 L10,13.8076923 C14.4615385,13.8076923 17.8461538,11.9615385 18.9230769,6.88461538 C18.9230769,6.73076923 18.9230769,6.57692308 18.9230769,6.42307692 C18.7692308,6.42307692 18.7692308,6.42307692 18.9230769,6.42307692 C19.0769231,4.42307692 18.7692308,3.19230769 17.6923077,1.96153846" id="Path" fill="#263B80"></path>
                            <path d="M18.7692308,6.42307692 L18.7692308,6.42307692 C18.7692308,6.57692308 18.7692308,6.73076923 18.7692308,6.88461538 C17.6923077,12.1153846 14.3076923,13.8076923 9.84615385,13.8076923 L7.53846154,13.8076923 C7.07692308,13.8076923 6.61538462,14.2692308 6.46153846,14.7307692 L4.92307692,24.1153846 C4.92307692,24.4230769 5.07692308,24.7307692 5.53846154,24.7307692 L9.53846154,24.7307692 C10,24.7307692 10.4615385,24.4230769 10.4615385,23.9615385 L10.4615385,23.8076923 L11.2307692,19.0384615 L11.2307692,18.7307692 C11.2307692,18.2692308 11.6923077,17.9615385 12.1538462,17.9615385 L12.7692308,17.9615385 C16.6153846,17.9615385 19.6923077,16.4230769 20.4615385,11.8076923 C20.7692308,9.96153846 20.6153846,8.26923077 19.6923077,7.19230769 C19.5384615,6.88461538 19.2307692,6.57692308 18.7692308,6.42307692" id="Path" fill="#139AD6"></path>
                            <path d="M17.6923077,5.96153846 C17.5384615,5.96153846 17.3846154,5.80769231 17.2307692,5.80769231 C17.0769231,5.80769231 16.9230769,5.80769231 16.7692308,5.65384615 C16.1538462,5.5 15.5384615,5.5 14.7692308,5.5 L8.76923077,5.5 C8.61538462,5.5 8.46153846,5.5 8.30769231,5.65384615 C8,5.80769231 7.84615385,6.11538462 7.84615385,6.42307692 L6.61538462,14.4230769 L6.61538462,14.7307692 C6.76923077,14.2692308 7.23076923,13.8076923 7.69230769,13.8076923 L10,13.8076923 C14.4615385,13.8076923 17.8461538,11.9615385 18.9230769,6.88461538 C18.9230769,6.73076923 18.9230769,6.57692308 19.0769231,6.42307692 C18.7692308,6.26923077 18.6153846,6.11538462 18.3076923,6.11538462 C17.8461538,5.96153846 17.8461538,5.96153846 17.6923077,5.96153846" id="Path" fill="#232C65"></path>
                        </g>
                    </g>
                </g>
            </g>
        </g>
    </g>
</svg>