<?xml version="1.0" encoding="UTF-8"?>
<svg width="20px" height="20px" viewBox="0 0 20 20" version="1.1" xmlns="http://www.w3.org/2000/svg" xmlns:xlink="http://www.w3.org/1999/xlink">
    <!-- Generator: Sketch 64 (93537) - https://sketch.com -->
    <title>phone (1)</title>
    <desc>Created with Sketch.</desc>
    <g id="Page-1" stroke="none" stroke-width="1" fill="none" fill-rule="evenodd">
        <g id="Desktop-HD" transform="translate(-331.000000, -45.000000)" fill="#F9F8FF" fill-rule="nonzero">
            <g id="Main-screen">
                <g id="Header" transform="translate(0.000000, 19.000000)">
                    <g id="Group-12" transform="translate(331.000000, 26.000000)">
                        <g id="phone-(1)">
                            <path d="M19.440117,15.4011306 L15.3993372,12.7063938 C14.8865497,12.3671735 14.1991813,12.4787914 13.820078,12.962885 L12.6430409,14.4762573 C12.4917739,14.6757115 12.2168031,14.7335673 11.9979727,14.6120078 L11.7740741,14.488577 C11.0318519,14.0840156 10.1083431,13.5803509 8.24764133,11.7189864 C6.38693957,9.85762183 5.88226121,8.93341131 5.47769981,8.19255361 L5.35493177,7.96865497 C5.23169591,7.74986355 5.28846004,7.4737232 5.4879922,7.32124756 L7.00035088,6.1445614 C7.48424951,5.7654191 7.59602339,5.07824561 7.25719298,4.56530214 L4.56245614,0.524522417 C4.21520468,0.00218323587 3.51851852,-0.154619883 2.98093567,0.168538012 L1.29122807,1.18354776 C0.760311891,1.49567251 0.37079922,2.00116959 0.204366472,2.59411306 C-0.404093567,4.81111111 0.0536452242,8.63730994 5.68998051,14.274308 C10.1735673,18.7575439 13.511384,19.9632509 15.805575,19.9632509 C16.3335673,19.9654581 16.8594932,19.8967641 17.3692008,19.7589474 C17.9622612,19.5927096 18.4678363,19.2031579 18.7797661,18.6720858 L19.7957895,16.9833918 C20.1194152,16.445692 19.9626901,15.748577 19.440117,15.4011306 Z M19.2225341,16.6420273 L18.2088499,18.3317349 C17.9848733,18.7150487 17.6212476,18.9968811 17.194152,19.1182066 C15.1474854,19.680117 11.5718129,19.2146979 6.16070175,13.8035867 C0.749590643,8.39247563 0.284210526,4.81711501 0.846120858,2.77013645 C0.967602339,2.34253411 1.24978558,1.97844055 1.63356725,1.75411306 L3.32327485,0.74042885 C3.55653021,0.600077973 3.85890838,0.668109162 4.00959064,0.894775828 L5.47341131,3.09247563 L6.70202729,4.93520468 C6.84916179,5.15769981 6.80081871,5.45590643 6.59091618,5.62054581 L5.07820663,6.79723197 C4.61785575,7.14923977 4.48639376,7.78615984 4.76982456,8.29165692 L4.88994152,8.50990253 C5.31512671,9.2897076 5.84374269,10.2598051 7.77364522,12.1893957 C9.70354776,14.1189474 10.6733333,14.6476023 11.4527875,15.0727485 L11.671345,15.1931774 C12.1768031,15.4765692 12.8137622,15.3451462 13.16577,14.8847953 L14.3424561,13.3720858 C14.5071345,13.1623002 14.8052242,13.1139961 15.0277973,13.2609747 L19.0682261,15.9557115 C19.2950487,16.1062768 19.3630799,16.4088109 19.2225341,16.6420273 Z" id="Shape"></path>
                        </g>
                    </g>
                </g>
            </g>
        </g>
    </g>
</svg>