<?xml version="1.0" encoding="UTF-8"?>
<svg width="100px" height="100px" viewBox="0 0 100 100" version="1.1" xmlns="http://www.w3.org/2000/svg" xmlns:xlink="http://www.w3.org/1999/xlink">
    <!-- Generator: Sketch 64 (93537) - https://sketch.com -->
    <title>php</title>
    <desc>Created with Sketch.</desc>
    <g id="Page-1" stroke="none" stroke-width="1" fill="none" fill-rule="evenodd">
        <g id="Desktop-HD" transform="translate(-941.000000, -1133.000000)" fill-rule="nonzero">
            <g id="Supp-Tech" transform="translate(363.000000, 994.000000)">
                <g id="Technologies" transform="translate(37.000000, 80.000000)">
                    <g id="tech-ico" transform="translate(0.000000, 58.500000)">
                        <g id="Group-21" transform="translate(541.000000, 0.500000)">
                            <g id="php">
                                <path d="M100,50 C100,53.0244141 99.7306641,55.9857422 99.2164063,58.8611328 C95.0347656,82.2490234 74.5898438,100 50,100 C31.4734375,100 15.3,89.9244141 6.66328125,74.953125 C4.55507813,71.3021484 2.89804688,67.3613281 1.76328125,63.2041016 C0.612304688,58.9980469 0,54.5693359 0,50 C0,22.3857422 22.3857422,0 50,0 C72.7917969,0 92.0203125,15.2490234 98.0427734,36.1019531 C99.3164062,40.5142578 100,45.1775391 100,50 Z" id="Path" fill="#000D1F"></path>
                                <g id="Group" transform="translate(1.757812, 24.023438)" fill="#F2F2F2">
                                    <path d="M23.6666016,10.7888672 L5.25234375,10.7888672 L0.00546875,39.1806641 C1.14023438,43.3378906 2.79726563,47.2787109 4.90546875,50.9296875 L6.61367188,50.9296875 L8.64628906,39.9337891 L18.7646484,39.9337891 C31.0849609,39.9337891 34.3972656,28.8726563 35.1912109,23.4398437 C35.9871094,18.0091797 32.0136719,10.7888672 23.6666016,10.7888672 Z M26.3380859,24.3560547 C25.8871094,27.4357422 23.6115234,33.7070312 16.6279297,33.7070312 L9.79726562,33.7070312 L12.8503906,17.1826172 L19.8035156,17.1826172 C26.5810547,17.1826172 26.7890625,21.2765625 26.3380859,24.3560547 Z" id="Shape"></path>
                                    <path d="M96.2849609,12.0785156 C94.7197266,11.2703125 92.8542969,10.7886719 90.6992188,10.7886719 L72.2849609,10.7886719 L64.8666016,50.9296875 L73.6460938,50.9296875 L75.6787109,39.9337891 L85.7970703,39.9337891 C91.2767578,39.9337891 94.9746094,37.7460938 97.4582031,34.8378906 C97.9728516,31.9623047 98.2421875,29.0009766 98.2421875,25.9765625 C98.2421875,21.1541016 97.5585938,16.4908203 96.2849609,12.0785156 Z M93.3707031,24.3560547 C92.9197266,27.4357422 90.6441406,33.7070313 83.6583984,33.7070313 L76.8298828,33.7070313 L79.8830078,17.1826172 L86.8361328,17.1826172 C93.6136719,17.1826172 93.8216797,21.2765625 93.3707031,24.3560547 Z" id="Shape"></path>
                                    <path d="M58.6402344,10.9216797 C55.0669922,10.9216797 50.2996094,10.9216797 47.9767578,10.9216797 L49.9783203,0.09140625 L41.2349609,0.09140625 L33.8164062,40.23125 L42.5597656,40.23125 L46.8259766,17.1480469 C48.4021484,17.1480469 50.4958984,17.1480469 52.4138672,17.1480469 C56.1230469,17.1480469 58.6402344,17.9429687 58.1101562,21.3873047 C57.5802734,24.8316406 54.5333984,40.0662109 54.5333984,40.0662109 L63.4091797,40.0662109 C63.4091797,40.0662109 66.8535156,23.1095703 67.3833984,18.3402344 C67.9134766,13.5710938 63.5417969,10.9216797 58.6402344,10.9216797 Z" id="Path"></path>
                                </g>
                            </g>
                        </g>
                    </g>
                </g>
            </g>
        </g>
    </g>
</svg>