<?xml version="1.0" encoding="UTF-8"?>
<svg width="20px" height="20px" viewBox="0 0 20 20" version="1.1" xmlns="http://www.w3.org/2000/svg" xmlns:xlink="http://www.w3.org/1999/xlink">
    <!-- Generator: Sketch 64 (93537) - https://sketch.com -->
    <title>price</title>
    <desc>Created with Sketch.</desc>
    <g id="Page-1" stroke="none" stroke-width="1" fill="none" fill-rule="evenodd">
        <g id="Desktop-HD" transform="translate(-483.000000, -3620.000000)" fill="#FF0055" fill-rule="nonzero">
            <g id="footer" transform="translate(0.000000, 3523.000000)">
                <g id="Group-35" transform="translate(482.000000, 93.000000)">
                    <g id="Group-11" transform="translate(1.000000, 0.000000)">
                        <g id="price" transform="translate(0.000000, 4.000000)">
                            <path d="M17.8469849,1.90070182e-13 L10.2568054,1.90070182e-13 C10.1014709,1.90070182e-13 9.95239259,0.0617980859 9.84252931,0.171661367 L0.629425049,9.38446047 C-0.20980835,10.223999 -0.20980835,11.5898132 0.629425049,12.4290466 L7.57080079,19.3702698 C7.97607423,19.7755432 8.51669313,19.9989319 9.09286501,19.9989319 L9.09301759,19.9989319 C9.66934204,19.9989319 10.2099609,19.7755432 10.615387,19.3701172 L19.828186,10.1571655 C19.9380493,10.0473023 20,9.89822387 20,9.74288941 L20,2.15270996 C20,0.96572875 19.0339661,1.90070182e-13 17.8469849,1.90070182e-13 Z M18.828125,9.50027465 L9.78668212,18.5415649 C9.60266114,18.7257385 9.35623169,18.8270569 9.09301759,18.8270569 C8.82965087,18.8270569 8.58337403,18.7257385 8.39935306,18.5417175 L1.45797731,11.6004944 C1.07559204,11.2181091 1.07559204,10.5955505 1.45797731,10.2130127 L10.4994202,1.171875 L17.8469849,1.171875 C18.387909,1.171875 18.828125,1.61193848 18.828125,2.15286254 L18.828125,9.50027465 Z" id="Shape"></path>
                            <path d="M14.8353577,3.32336426 C14.3435669,3.32336426 13.8812256,3.51501465 13.5334778,3.86276246 C13.18573,4.21035766 12.9942322,4.67269898 12.9942322,5.16448977 C12.9942322,5.65628051 13.18573,6.11862184 13.5334778,6.46636961 C13.8812256,6.81411742 14.3435669,7.00561523 14.8353577,7.00561523 C15.3269959,7.00561523 15.7893372,6.81411742 16.137085,6.46636961 C16.4848328,6.11862184 16.6763306,5.65628051 16.6763306,5.16448977 C16.6763306,4.67269898 16.4848328,4.21035766 16.1372375,3.86276246 C15.7894898,3.51501465 15.3271484,3.32336426 14.8353577,3.32336426 L14.8353577,3.32336426 Z M15.3085327,5.6376648 C15.1821899,5.76416016 15.0140381,5.83374023 14.8353577,5.83374023 C14.6565247,5.83374023 14.4885254,5.76416016 14.3621826,5.6376648 C14.2356873,5.51132203 14.1661072,5.34317016 14.1661072,5.16448977 C14.1661072,4.98580934 14.2356873,4.81765746 14.3621826,4.69131469 C14.4885254,4.56481934 14.6566773,4.49523926 14.8353577,4.49523926 C15.0140381,4.49523926 15.1820374,4.56481934 15.3085327,4.69131469 C15.4350281,4.81765746 15.5046082,4.98580934 15.5046082,5.16448977 C15.5046082,5.34317016 15.4348755,5.51132203 15.3085327,5.6376648 L15.3085327,5.6376648 Z" id="Shape"></path>
                        </g>
                    </g>
                </g>
            </g>
        </g>
    </g>
</svg>