<?xml version="1.0" encoding="UTF-8"?>
<svg width="30px" height="30px" viewBox="0 0 30 30" version="1.1" xmlns="http://www.w3.org/2000/svg" xmlns:xlink="http://www.w3.org/1999/xlink">
    <!-- Generator: Sketch 64 (93537) - https://sketch.com -->
    <title>cogwheel</title>
    <desc>Created with Sketch.</desc>
    <g id="Page-1" stroke="none" stroke-width="1" fill="none" fill-rule="evenodd">
        <g id="Desktop-HD" transform="translate(-1139.000000, -388.000000)" fill="#F9F8FF" fill-rule="nonzero">
            <g id="Main-screen">
                <g id="UTP" transform="translate(150.000000, 200.000000)">
                    <g id="Group-10" transform="translate(760.000000, 79.000000)">
                        <g id="Group-9" transform="translate(33.000000, 48.000000)">
                            <g id="Group-8" transform="translate(196.000000, 61.000000)">
                                <g id="cogwheel">
                                    <path d="M15,29.0322581 C7.26231726,29.0322581 0.967741935,22.7376827 0.967741935,15 C0.967741935,11.6119582 2.16584238,8.40584044 4.35483871,5.86268274 L4.35483871,7.25806452 L5.32258065,7.25806452 L5.32258065,4.83870968 C5.32258065,4.64071948 5.2020854,4.46328442 5.01874367,4.38909714 L2.59938883,3.4213552 L2.23932085,4.32058028 L3.85112147,4.96511153 C1.36254097,7.72397933 0,11.2596869 0,15 C0,23.2706969 6.72930315,30 15,30 C17.8422694,30 20.6084614,29.2016601 23.0004096,27.6905084 L22.4834614,26.8727949 C20.2465033,28.2856603 17.6589277,29.0322581 15,29.0322581 Z" id="Path"></path>
                                    <path d="M30,15 C30,6.72930315 23.2706969,0 15,0 C12.1577306,0 9.39153859,0.798339859 6.99959044,2.30949157 L7.51653859,3.12720514 C9.75349669,1.71433972 12.3410723,0.967741935 15,0.967741935 C22.7376827,0.967741935 29.0322581,7.26231726 29.0322581,15 C29.0322581,18.5999716 27.6300246,22.0742503 25.1612903,24.6715127 L25.1612903,22.7419355 L24.1935484,22.7419355 L24.1935484,25.6451613 C24.1935484,25.8816627 24.3648406,26.0834331 24.5975618,26.1221806 L27.5007876,26.6060516 L27.6600302,25.6515405 L25.8511845,25.3500662 C28.4971176,22.5725334 30,18.8534842 30,15 Z" id="Path"></path>
                                    <path d="M16.9354839,2.90322581 L13.0645161,2.90322581 C12.7975366,2.90322581 12.5806452,3.12011722 12.5806452,3.38709677 L12.5806452,5.12955206 C11.503985,5.39275137 10.4840285,5.83055069 9.53944052,6.4358619 L8.56791835,5.46481222 C8.37867,5.27556387 8.0729429,5.27556387 7.88369456,5.46481222 L5.46433972,7.88416706 C5.27509137,8.07341546 5.27509137,8.3791425 5.46433972,8.56839085 L6.4353894,9.53991302 C5.83055069,10.484501 5.39227887,11.5044575 5.1290795,12.5811177 L3.38709677,12.5811177 C3.12011722,12.5811177 2.90322581,12.7980091 2.90322581,13.0649886 L2.90322581,16.9359564 C2.90322581,17.2031722 3.12011722,17.4198273 3.38709677,17.4198273 L5.12955206,17.4198273 C5.39275137,18.4964875 5.83055069,19.5164441 6.4358619,20.461032 L5.46481222,21.4325542 C5.27556387,21.6218026 5.27556387,21.9275296 5.46481222,22.1167779 L7.88416706,24.5361328 C8.07341546,24.7253812 8.3791425,24.7253812 8.56839085,24.5361328 L9.53991302,23.5650832 C10.484501,24.1699219 11.5044575,24.6081937 12.5811177,24.871393 L12.5811177,26.6129032 C12.5811177,26.8798828 12.7980091,27.0967742 13.0649886,27.0967742 L16.9359564,27.0967742 C17.2031722,27.0967742 17.4198273,26.8798828 17.4198273,26.6129032 L17.4198273,24.8704479 C18.4964875,24.6072486 19.5164441,24.1694493 20.461032,23.5641381 L21.4325542,24.5351878 C21.6218026,24.7244361 21.9275296,24.7244361 22.1167779,24.5351878 L24.5361328,22.1158329 C24.7253812,21.9265845 24.7253812,21.6208575 24.5361328,21.4316092 L23.5646106,20.4605595 C24.1694493,19.5159715 24.6077211,18.496015 24.8709205,17.4193548 L26.6129032,17.4193548 C26.8798828,17.4193548 27.0967742,17.2024634 27.0967742,16.9354839 L27.0967742,13.0645161 C27.0967742,12.7975366 26.8798828,12.5806452 26.6129032,12.5806452 L24.8704479,12.5806452 C24.6072486,11.503985 24.1694493,10.4840285 23.5641381,9.53944052 L24.5351878,8.56791835 C24.7244361,8.37867 24.7244361,8.0729429 24.5351878,7.88369456 L22.1158329,5.46433972 C21.9265845,5.27509137 21.6208575,5.27509137 21.4316092,5.46433972 L20.4605595,6.4353894 C19.5159715,5.83055069 18.496015,5.39227887 17.4193548,5.1290795 L17.4193548,3.38709677 C17.4193548,3.12011722 17.2024634,2.90322581 16.9354839,2.90322581 Z M20.2450857,7.45558216 C20.4371692,7.58907194 20.6980059,7.56639048 20.8641003,7.40076865 L21.7741935,6.4906754 L23.5093246,8.22580645 L22.5992314,9.1358997 C22.433137,9.30152153 22.4104555,9.56235823 22.5444178,9.75491431 C23.2683342,10.793772 23.7614195,11.9398942 24.0092616,13.1609123 C24.0546245,13.3863092 24.2530872,13.5483871 24.4834457,13.5483871 L26.1290323,13.5483871 L26.1290323,16.4516129 L24.4834457,16.4516129 C24.2530872,16.4516129 24.0550971,16.6136908 24.0092616,16.8390877 C23.7614195,18.0601058 23.2683342,19.206228 22.5444178,20.2450857 C22.4104555,20.4371692 22.4336095,20.6984785 22.5992314,20.8641003 L23.5093246,21.7741935 L21.7741935,23.5093246 L20.8641003,22.5992314 C20.6984785,22.4336095 20.4381143,22.4095104 20.2450857,22.5444178 C19.206228,23.2683342 18.0601058,23.7614195 16.8390877,24.0092616 C16.6136908,24.0546245 16.4516129,24.2530872 16.4516129,24.4834457 L16.4516129,26.1290323 L13.5483871,26.1290323 L13.5483871,24.4834457 C13.5483871,24.2530872 13.3863092,24.0550971 13.1609123,24.0092616 C11.9398942,23.7614195 10.793772,23.2683342 9.75491431,22.5444178 C9.56283079,22.4104555 9.30152153,22.4336095 9.1358997,22.5992314 L8.22580645,23.5093246 L6.4906754,21.7741935 L7.40076865,20.8641003 C7.56686304,20.6984785 7.5895445,20.4376418 7.45558216,20.2450857 C6.73166583,19.206228 6.2385805,18.0601058 5.99073841,16.8390877 C5.9453755,16.6136908 5.7469128,16.4516129 5.51655429,16.4516129 L3.87096774,16.4516129 L3.87096774,13.5483871 L5.51655429,13.5483871 C5.7469128,13.5483871 5.94490294,13.3863092 5.99073841,13.1609123 C6.2385805,11.9398942 6.73166583,10.793772 7.45558216,9.75491431 C7.5895445,9.56283079 7.56639048,9.30152153 7.40076865,9.1358997 L6.4906754,8.22580645 L8.22580645,6.4906754 L9.1358997,7.40076865 C9.30152153,7.56639048 9.56188573,7.590017 9.75491431,7.45558216 C10.793772,6.73166583 11.9398942,6.2385805 13.1609123,5.99073841 C13.3863092,5.9453755 13.5483871,5.7469128 13.5483871,5.51655429 L13.5483871,3.87096774 L16.4516129,3.87096774 L16.4516129,5.51655429 C16.4516129,5.7469128 16.6136908,5.94490294 16.8390877,5.99073841 C18.0605783,6.23905306 19.206228,6.73166583 20.2450857,7.45558216 Z" id="Shape"></path>
                                    <path d="M6.77419355,15 C6.77419355,19.5358178 10.4641822,23.2258065 15,23.2258065 C19.5358178,23.2258065 23.2258065,19.5358178 23.2258065,15 C23.2258065,10.4641822 19.5358178,6.77419355 15,6.77419355 C10.4641822,6.77419355 6.77419355,10.4641822 6.77419355,15 Z M22.2580645,15 C22.2580645,19.0020949 19.0020949,22.2580645 15,22.2580645 C10.9979051,22.2580645 7.74193548,19.0020949 7.74193548,15 C7.74193548,10.9979051 10.9979051,7.74193548 15,7.74193548 C19.0020949,7.74193548 22.2580645,10.9979051 22.2580645,15 Z" id="Shape"></path>
                                    <path d="M13.5991841,11.3967206 L11.6637002,15.2676884 C11.5888042,15.4174805 11.5968372,15.5956244 11.6849641,15.7383285 C11.7735635,15.8805601 11.9287897,15.9677419 12.0967742,15.9677419 L13.8964056,15.9677419 L13.0789283,19.2371787 C13.0243511,19.4569052 13.1287802,19.6853736 13.3310232,19.7869676 C13.4002489,19.8216986 13.4749086,19.8387097 13.5483871,19.8387097 C13.6896737,19.8387097 13.8290701,19.7768082 13.9228673,19.6610383 L18.277706,14.3384577 C18.3963111,14.1938634 18.4204101,13.9939831 18.3405526,13.824581 C18.2606949,13.6554152 18.0901115,13.5483871 17.9032258,13.5483871 L16.3384419,13.5483871 L17.3501292,11.8621629 C17.4401462,11.7126071 17.4420363,11.5261939 17.3565083,11.374748 C17.2707441,11.2228295 17.1096113,11.1290323 16.9354839,11.1290323 L14.0322581,11.1290323 C13.8489163,11.1290323 13.6814044,11.2325164 13.5991841,11.3967206 L13.5991841,11.3967206 Z M16.0809129,12.0967742 L15.0692257,13.7829983 C14.9792087,13.9325542 14.9773185,14.1189674 15.0628465,14.2704133 C15.1486107,14.4223318 15.3097436,14.516129 15.483871,14.516129 L16.8823242,14.516129 L14.5418819,17.3768271 L14.9855878,15.601531 C15.0217364,15.4567005 14.9888955,15.303837 14.897461,15.1861769 C14.8060264,15.0687532 14.6652123,15 14.516129,15 L12.8797568,15 L14.3313697,12.0967742 L16.0809129,12.0967742 Z" id="Shape"></path>
                                </g>
                            </g>
                        </g>
                    </g>
                </g>
            </g>
        </g>
    </g>
</svg>