<?xml version="1.0" encoding="UTF-8"?>
<svg width="31px" height="30px" viewBox="0 0 31 30" version="1.1" xmlns="http://www.w3.org/2000/svg" xmlns:xlink="http://www.w3.org/1999/xlink">
    <!-- Generator: Sketch 64 (93537) - https://sketch.com -->
    <title>settings</title>
    <desc>Created with Sketch.</desc>
    <g id="Page-1" stroke="none" stroke-width="1" fill="none" fill-rule="evenodd">
        <g id="Desktop-HD" transform="translate(-1074.000000, -388.000000)" fill="#F9F8FF" fill-rule="nonzero">
            <g id="Main-screen">
                <g id="UTP" transform="translate(150.000000, 200.000000)">
                    <g id="Group-10" transform="translate(760.000000, 79.000000)">
                        <g id="Group-9" transform="translate(33.000000, 48.000000)">
                            <g id="Group-7" transform="translate(131.500000, 61.000000)">
                                <g id="settings">
                                    <path d="M29.9733168,17.3507719 L29.9733168,12.6359645 L27.023812,11.6529003 C26.752143,10.6751415 26.361726,9.73436461 25.8614556,8.85147927 L27.2527255,6.06815912 L23.9188894,2.73385486 L21.1351011,4.12528087 C20.2523718,3.62485438 19.311595,3.23459345 18.3338361,2.96292443 L17.3507719,0.0132635553 L12.6359645,0.0132635553 L11.6529003,2.96292443 C10.6751415,3.23459345 9.73436461,3.62485438 8.85147927,4.12528087 L6.06769099,2.73385486 L2.73385486,6.06769099 L4.12528087,8.85147927 C3.62485438,9.73436461 3.23459345,10.6751415 2.96292443,11.6529003 L0.0132635553,12.6359645 L0.0132635553,17.3507719 L2.96292443,18.3338361 C3.23459345,19.311595 3.62485438,20.2523718 4.12528087,21.1351011 L2.73385486,23.9188894 L6.06769099,27.2527255 L8.85147927,25.8614556 C9.73452064,26.361726 10.6752975,26.752143 11.6532124,27.023812 L12.6359645,29.9733168 L17.3507719,29.9733168 L18.3338361,27.023812 C19.311595,26.752143 20.2523718,26.361726 21.1351011,25.8614556 L23.9185773,27.2527255 L27.2524134,23.9188894 L25.8614556,21.1351011 C26.361726,20.2522158 26.752143,19.3114389 27.023812,18.333368 L29.9733168,17.3507719 Z M26.1284433,17.8226427 C25.8573985,18.8915301 25.4324962,19.9154773 24.8676244,20.8624958 L24.7279669,21.097339 L26.0401236,23.7218084 L23.7218084,26.0376269 L21.097339,24.7254702 L20.8624958,24.8651277 C19.9154773,25.4307798 18.8916861,25.8566183 17.8226427,26.1284433 L17.5584637,26.1960095 L16.6306383,28.9746484 L13.3560981,28.9746484 L12.4282727,26.1935128 L12.1640937,26.1259466 C11.0952064,25.8549018 10.0712592,25.4301556 9.12424059,24.8651277 L8.88939747,24.7254702 L6.264928,26.0376269 L3.94910952,23.7218084 L5.26126622,21.097339 L5.12160871,20.8624958 C4.55642477,19.9154773 4.13183465,18.8915301 3.8607898,17.8226427 L3.79322361,17.5584637 L1.011932,16.6306383 L1.011932,13.3560981 L3.79322361,12.4282727 L3.8607898,12.1640937 C4.13183465,11.0952064 4.55642477,10.0712592 5.12160871,9.12424059 L5.26126622,8.88939747 L3.94910952,6.264928 L6.264928,3.94910952 L8.88939747,5.26126622 L9.12424059,5.12160871 C10.0712592,4.55642477 11.0952064,4.13183465 12.1640937,3.8607898 L12.4282727,3.79322361 L13.3560981,1.011932 L16.6306383,1.011932 L17.5584637,3.79322361 L17.8226427,3.8607898 C18.8915301,4.13183465 19.9154773,4.55642477 20.8624958,5.12160871 L21.097339,5.26126622 L23.7218084,3.94910952 L26.0376269,6.264928 L24.7254702,8.88939747 L24.8651277,9.12424059 C25.4307798,10.0712592 25.8566183,11.0950504 26.1284433,12.1640937 L26.1960095,12.4282727 L28.9746484,13.3560981 L28.9746484,16.6306383 L26.1935128,17.5584637 L26.1284433,17.8226427 Z" id="Shape"></path>
                                    <path d="M20.7690267,12.0422249 L21.7020015,11.1097183 L18.8770182,8.28473493 L17.9445115,9.21770972 C17.637421,9.06088758 17.3186273,8.92903214 16.9906271,8.82307965 L16.9906271,7.50327687 L12.9959533,7.50327687 L12.9959533,8.82307965 C12.6681092,8.92903214 12.3491595,9.06088758 12.0422249,9.21770972 L11.1097183,8.28473493 L8.28473493,11.1097183 L9.21770972,12.0422249 C9.06088758,12.3491595 8.92903214,12.6681092 8.82307965,12.9959533 L7.50327687,12.9959533 L7.50327687,16.9906271 L8.82307965,16.9906271 C8.92903214,17.3186273 9.06088758,17.637421 9.21770972,17.9445115 L8.28473493,18.8770182 L11.1097183,21.7020015 L12.0422249,20.7690267 C12.3491595,20.9258489 12.6681092,21.0577043 12.9959533,21.1636568 L12.9959533,22.4833035 L16.9906271,22.4833035 L16.9906271,21.1636568 C17.3186273,21.0577043 17.637421,20.9258489 17.9445115,20.7690267 L18.8770182,21.7020015 L21.7020015,18.8770182 L20.7690267,17.9445115 C20.9258489,17.637421 21.0577043,17.3186273 21.1636568,16.9906271 L22.4833035,16.9906271 L22.4833035,12.9959533 L21.1636568,12.9959533 C21.0577043,12.6681092 20.9258489,12.3491595 20.7690267,12.0422249 Z M21.4846351,15.9919586 L20.4021721,15.9919586 L20.3054261,16.3664593 C20.1777838,16.8622046 19.9810149,17.3375083 19.721049,17.7783268 L19.5244362,18.1113203 L20.2891977,18.8770182 L18.8770182,20.2891977 L18.1113203,19.5244362 L17.7783268,19.721049 C17.3375083,19.9810149 16.8622046,20.1777838 16.3664593,20.3054261 L15.9919586,20.4021721 L15.9919586,21.4846351 L13.9946217,21.4846351 L13.9946217,20.4021721 L13.6201211,20.3054261 C13.1245319,20.1777838 12.6492281,19.9810149 12.2084096,19.721049 L11.8754161,19.5244362 L11.1097183,20.2891977 L9.69753871,18.8770182 L10.4623003,18.1113203 L10.2656874,17.7783268 C10.0057215,17.3375083 9.8087966,16.8622046 9.68131035,16.3664593 L9.58456434,15.9919586 L8.50194531,15.9919586 L8.50194531,13.9946217 L9.58456434,13.9946217 L9.68131035,13.6201211 C9.8087966,13.1245319 10.0057215,12.6492281 10.2656874,12.2084096 L10.4623003,11.8754161 L9.69753871,11.1097183 L11.1097183,9.69753871 L11.8754161,10.4623003 L12.2084096,10.2656874 C12.6492281,10.0057215 13.1245319,9.8087966 13.6201211,9.68131035 L13.9946217,9.58456434 L13.9946217,8.50194531 L15.9919586,8.50194531 L15.9919586,9.58456434 L16.3664593,9.68131035 C16.8622046,9.8087966 17.3375083,10.0057215 17.7783268,10.2656874 L18.1113203,10.4623003 L18.8770182,9.69753871 L20.2891977,11.1097183 L19.5244362,11.8754161 L19.721049,12.2084096 C19.9810149,12.6492281 20.1777838,13.1245319 20.3054261,13.6201211 L20.4021721,13.9946217 L21.4846351,13.9946217 L21.4846351,15.9919586 Z" id="Shape"></path>
                                    <path d="M14.9932902,12.4966156 C14.2645743,12.4950587 13.6411868,13.0196717 13.5176015,13.7379328 C13.3941723,14.4561938 13.8065912,15.1586946 14.493956,15.4008717 L14.493956,17.4899613 L15.9919586,17.4899613 L15.9919586,16.4912928 L15.4926244,16.4912928 L15.4926244,15.4008717 C16.1799892,15.1586946 16.5925641,14.4561938 16.4691349,13.7379328 C16.3453937,13.0196717 15.7220061,12.4950587 14.9932902,12.4966156 L14.9932902,12.4966156 Z M14.9932902,14.493956 C14.7175641,14.493956 14.493956,14.2705039 14.493956,13.9946217 C14.493956,13.7188957 14.7175641,13.4952875 14.9932902,13.4952875 C15.2691723,13.4952875 15.4926244,13.7188957 15.4926244,13.9946217 C15.4926244,14.2705039 15.2691723,14.493956 14.9932902,14.493956 Z" id="Shape"></path>
                                </g>
                            </g>
                        </g>
                    </g>
                </g>
            </g>
        </g>
    </g>
</svg>