<?xml version="1.0" encoding="UTF-8"?>
<svg width="20px" height="20px" viewBox="0 0 20 20" version="1.1" xmlns="http://www.w3.org/2000/svg" xmlns:xlink="http://www.w3.org/1999/xlink">
    <!-- Generator: Sketch 64 (93537) - https://sketch.com -->
    <title>question (1)</title>
    <desc>Created with Sketch.</desc>
    <g id="Page-1" stroke="none" stroke-width="1" fill="none" fill-rule="evenodd">
        <g id="Desktop-HD" transform="translate(-151.000000, -3663.000000)" fill="#FF0055" fill-rule="nonzero">
            <g id="footer" transform="translate(0.000000, 3523.000000)">
                <g id="Group-35" transform="translate(150.000000, 93.000000)">
                    <g id="Group-11" transform="translate(1.000000, 45.000000)">
                        <g id="question-(1)" transform="translate(0.000000, 2.000000)">
                            <path d="M9.9609375,15.6640625 C9.52941895,15.6640625 9.1796875,15.3143311 9.1796875,14.8828125 C9.1796875,14.4512939 9.52941895,14.1015625 9.9609375,14.1015625 C10.3924561,14.1015625 10.7421875,14.4512939 10.7421875,14.8828125 C10.7421875,15.3143311 10.3924561,15.6640625 9.9609375,15.6640625 Z M10.7421875,12.1484375 L10.7421875,11.0993957 C12.2528076,10.7339477 13.299408,9.36340332 13.2397461,7.81356813 C13.1748962,6.12594605 11.7903137,4.75372313 10.0875855,4.68994141 C9.17785645,4.65545656 8.31878664,4.9813843 7.66937258,5.60684203 C7.03109742,6.22161867 6.6796875,7.04650879 6.6796875,7.9296875 C6.6796875,8.36120605 7.02941895,8.7109375 7.4609375,8.7109375 C7.89245605,8.7109375 8.2421875,8.36120605 8.2421875,7.9296875 C8.2421875,7.47497559 8.42361449,7.04971313 8.75320434,6.73233031 C9.0940857,6.40411375 9.54681398,6.23336793 10.0289917,6.2512207 C10.9202576,6.28479004 11.6447449,6.99737547 11.6784668,7.87368773 C11.7097473,8.69033813 11.1460877,9.41192625 10.3378296,9.5892334 C9.6559143,9.73892211 9.1796875,10.3282166 9.1796875,11.0224914 L9.1796875,12.1484375 C9.1796875,12.5799561 9.52941895,12.9296875 9.9609375,12.9296875 C10.3924561,12.9296875 10.7421875,12.5799561 10.7421875,12.1484375 Z M15.1742554,18.5588074 C15.5433655,18.3352661 15.6613159,17.8549195 15.4377746,17.4859619 C15.2140808,17.1168518 14.7337341,16.9989014 14.3647766,17.2224426 C13.0525207,18.017273 11.5431213,18.4375 10,18.4375 C5.34759523,18.4375 1.5625,14.6524048 1.5625,10 C1.5625,5.34759523 5.34759523,1.5625 10,1.5625 C14.6524048,1.5625 18.4375,5.34759523 18.4375,10 C18.4375,11.6636658 17.9428101,13.2829285 17.0068359,14.683075 C16.7669678,15.0416565 16.8634033,15.526886 17.2219848,15.7667541 C17.580719,16.0066223 18.0659485,15.9101868 18.3056641,15.5514527 C19.4142151,13.8935852 20,11.973877 20,10 C20,7.32894898 18.9598084,4.81765746 17.0710754,2.92892457 C15.1823425,1.04019164 12.671051,0 10,0 C7.32894898,0 4.81765746,1.04019164 2.92892457,2.92892457 C1.04019164,4.81765746 0,7.32894898 0,10 C0,12.671051 1.04019164,15.1823425 2.92892457,17.0710754 C4.81765746,18.9598084 7.32894898,20 10,20 C11.8286133,20 13.6178589,19.501648 15.1742554,18.5588074 Z" id="Shape"></path>
                        </g>
                    </g>
                </g>
            </g>
        </g>
    </g>
</svg>