<?xml version="1.0" encoding="UTF-8"?>
<svg width="56px" height="50px" viewBox="0 0 56 50" version="1.1" xmlns="http://www.w3.org/2000/svg" xmlns:xlink="http://www.w3.org/1999/xlink">
    <!-- Generator: Sketch 64 (93537) - https://sketch.com -->
    <title>cloud-computing</title>
    <desc>Created with Sketch.</desc>
    <g id="Page-1" stroke="none" stroke-width="1" fill="none" fill-rule="evenodd">
        <g id="Desktop-HD" transform="translate(-692.000000, -2850.000000)" fill="#000000" fill-rule="nonzero">
            <g id="Stat-block" transform="translate(370.000000, 2706.000000)">
                <g id="Group-32" transform="translate(260.000000, 80.000000)">
                    <g id="Group-29">
                        <g id="cloud-computing" transform="translate(62.000000, 64.000000)">
                            <path d="M47.1990741,15.4574074 C46.7111111,7.12407407 39.8416667,0.462962963 31.5592593,0.462962963 C26.5314815,0.462962963 21.662963,2.9287037 18.6462963,6.95185185 C18.5768519,6.91574074 18.5027778,6.89074074 18.4324074,6.85648148 C18.2509259,6.76851852 18.0675926,6.68518519 17.8796296,6.61018519 C17.7703704,6.56666667 17.6592593,6.52777778 17.5481481,6.48888889 C17.3657407,6.425 17.1805556,6.36851852 16.9925926,6.31759259 C16.8814815,6.28796296 16.7712963,6.25740741 16.6592593,6.23148148 C16.4555556,6.18518519 16.2481481,6.15 16.0388889,6.11944444 C15.9416667,6.10462963 15.8453704,6.08611111 15.7472222,6.075 C15.4407407,6.03981481 15.1305556,6.01851852 14.8148148,6.01851852 C10.2203704,6.01851852 6.48148148,9.75648148 6.48148148,14.3518519 C6.48148148,14.4712963 6.48888889,14.587963 6.4962963,14.7046296 C2.64537037,16.8037037 0,21.2027778 0,25.6055556 C0,32.1638889 5.33518519,37.5 11.8935185,37.5 L16.6666667,37.5 C17.1777778,37.5 17.5925926,37.0861111 17.5925926,36.5740741 C17.5925926,36.062037 17.1777778,35.6481481 16.6666667,35.6481481 L11.8935185,35.6481481 C6.35648148,35.6481481 1.85185185,31.1435185 1.85185185,25.6055556 C1.85185185,21.7592593 4.35648148,17.7666667 7.80740741,16.112037 L8.33333333,15.8611111 L8.33333333,15.2777778 C8.33333333,15.1638889 8.34074074,15.0472222 8.34722222,14.9305556 L8.35555556,14.7703704 L8.34444444,14.5833333 C8.33888889,14.5064815 8.33333333,14.4296296 8.33333333,14.3518519 C8.33333333,10.7787037 11.2407407,7.87037037 14.8148148,7.87037037 C15.1009259,7.87037037 15.3833333,7.89537037 15.6638889,7.93240741 C15.7361111,7.94166667 15.8083333,7.9537037 15.8805556,7.96574074 C16.1277778,8.00648148 16.3712963,8.06018519 16.6111111,8.1287037 C16.6435185,8.13796296 16.6768519,8.14444444 16.7092593,8.1537037 C16.9731481,8.23425926 17.2305556,8.33703704 17.4824074,8.45092593 C17.5472222,8.48055556 17.6111111,8.51203704 17.675,8.54351852 C17.8981481,8.6537037 18.1166667,8.775 18.3277778,8.91203704 C20.1111111,10.0685185 21.2962963,12.0731481 21.2962963,14.3518519 C21.2962963,14.8638889 21.7111111,15.2777778 22.2222222,15.2777778 C22.7333333,15.2777778 23.1481481,14.8638889 23.1481481,14.3518519 C23.1481481,11.8018519 21.9944444,9.51944444 20.1851852,7.98981481 C22.8388889,4.51759259 27.2111111,2.31481481 31.5592593,2.31481481 C38.7296296,2.31481481 44.687037,7.99537037 45.3074074,15.1731481 C44.3611111,15.1064815 42.9435185,15.0722222 41.5268519,15.2888889 C41.0212963,15.3657407 40.6740741,15.837963 40.7509259,16.3435185 C40.8203704,16.8018519 41.2148148,17.1305556 41.6648148,17.1305556 C41.7111111,17.1305556 41.7583333,17.1268519 41.8055556,17.1194444 C43.8648148,16.8083333 46.012037,17.1 46.1425926,17.1175926 C50.4537037,17.937037 53.7037037,21.9083333 53.7037037,26.362963 C53.7037037,31.4824074 49.537963,35.6481481 44.4185185,35.6481481 L40.7407407,35.6481481 C40.2296296,35.6481481 39.8148148,36.062037 39.8148148,36.5740741 C39.8148148,37.0861111 40.2296296,37.5 40.7407407,37.5 L44.4185185,37.5 C50.5592593,37.5 55.5555556,32.5037037 55.5555556,26.362963 C55.5555556,21.2805556 52.012037,16.7222222 47.1990741,15.4574074 Z" id="Path"></path>
                            <path d="M35.4564815,28.8953704 C35.637037,29.0759259 35.8740741,29.1666667 36.1111111,29.1666667 C36.3481481,29.1666667 36.5851852,29.0759259 36.7657407,28.8953704 C37.1277778,28.5333333 37.1277778,27.9481481 36.7657407,27.5861111 L29.3592593,20.1796296 C29.2740741,20.0935185 29.1712963,20.0259259 29.0574074,19.9787037 C28.8314815,19.8851852 28.5759259,19.8851852 28.35,19.9787037 C28.2361111,20.0259259 28.1342593,20.0935185 28.0481481,20.1796296 L20.6416667,27.5861111 C20.2796296,27.9481481 20.2796296,28.5333333 20.6416667,28.8953704 C20.8222222,29.0759259 21.0592593,29.1666667 21.2962963,29.1666667 C21.5333333,29.1666667 21.7703704,29.0759259 21.9509259,28.8953704 L27.7777778,23.0685185 L27.7777778,46.3759259 L21.9509259,40.5490741 C21.5888889,40.187037 21.0037037,40.187037 20.6416667,40.5490741 C20.2796296,40.9111111 20.2796296,41.4962963 20.6416667,41.8583333 L28.0481481,49.2648148 C28.1333333,49.3509259 28.2361111,49.4185185 28.35,49.4657407 C28.462963,49.512037 28.5833333,49.537037 28.7037037,49.537037 C28.8240741,49.537037 28.9444444,49.512037 29.0574074,49.4657407 C29.1712963,49.4185185 29.2731481,49.3509259 29.3592593,49.2648148 L36.7657407,41.8583333 C37.1277778,41.4962963 37.1277778,40.9111111 36.7657407,40.5490741 C36.4037037,40.187037 35.8185185,40.187037 35.4564815,40.5490741 L29.6296296,46.3759259 L29.6296296,23.0685185 L35.4564815,28.8953704 Z" id="Path"></path>
                        </g>
                    </g>
                </g>
            </g>
        </g>
    </g>
</svg>