<?xml version="1.0" encoding="UTF-8"?>
<svg width="24px" height="30px" viewBox="0 0 24 30" version="1.1" xmlns="http://www.w3.org/2000/svg" xmlns:xlink="http://www.w3.org/1999/xlink">
    <!-- Generator: Sketch 64 (93537) - https://sketch.com -->
    <title>shield</title>
    <desc>Created with Sketch.</desc>
    <g id="Page-1" stroke="none" stroke-width="1" fill="none" fill-rule="evenodd">
        <g id="Desktop-HD" transform="translate(-944.000000, -388.000000)" fill="#F9F8FF" fill-rule="nonzero">
            <g id="Main-screen">
                <g id="UTP" transform="translate(150.000000, 200.000000)">
                    <g id="Group-10" transform="translate(760.000000, 79.000000)">
                        <g id="Group-9" transform="translate(33.000000, 48.000000)">
                            <g id="Group-5" transform="translate(0.000000, 61.000000)">
                                <g id="shield" transform="translate(1.000000, 0.000000)">
                                    <path d="M23.013125,6.05968752 L11.7646875,0.06593752 C11.5978125,-0.02312496 11.3978125,-0.02187504 11.2321875,0.06906248 L0.295,6.06281248 C0.11562496,6.16125 0.004375,6.34937504 0.004375,6.55406248 L0.004375,14.3834375 C0.01093752,20.819375 3.82406248,26.641875 9.72093752,29.2203125 L11.2390625,29.881875 C11.3809375,29.94375 11.5425,29.9440625 11.6846875,29.8825 L13.3953125,29.14375 C19.4015625,26.62125 23.3090625,20.7425 23.3096875,14.228125 L23.3096875,6.55406248 C23.3096875,6.34718752 23.195625,6.15687504 23.013125,6.05968752 L23.013125,6.05968752 Z M22.1896875,14.228125 C22.1884375,20.2934375 18.549375,25.76625 12.956875,28.1134375 L12.953125,28.1153125 L11.4634375,28.7584375 L10.1690625,28.19375 C4.68,25.79375 1.13031248,20.374375 1.12406248,14.3834375 L1.12406248,6.88562496 L11.505,1.19625 L22.1896875,6.88968752 L22.1896875,14.228125 Z" id="Shape"></path>
                                    <path d="M7.37343752,14.0203125 C7.1725,13.785 6.81906248,13.7571875 6.58375,13.958125 C6.34843752,14.15875 6.32062496,14.5125 6.52156248,14.7475 L9.47968752,18.2115625 C9.67718752,18.4428125 10.023125,18.474375 10.25875,18.2825 L17.148125,12.6775 C17.388125,12.4825 17.424375,12.1296875 17.2290625,11.8896875 C17.0340625,11.65 16.68125,11.6134375 16.44125,11.80875 L9.97625,17.068125 L7.37343752,14.0203125 Z" id="Path"></path>
                                </g>
                            </g>
                        </g>
                    </g>
                </g>
            </g>
        </g>
    </g>
</svg>