<?xml version="1.0" encoding="UTF-8"?>
<svg width="47px" height="50px" viewBox="0 0 47 50" version="1.1" xmlns="http://www.w3.org/2000/svg" xmlns:xlink="http://www.w3.org/1999/xlink">
    <!-- Generator: Sketch 64 (93537) - https://sketch.com -->
    <title>repair (1)</title>
    <desc>Created with Sketch.</desc>
    <g id="Page-1" stroke="none" stroke-width="1" fill="none" fill-rule="evenodd">
        <g id="Desktop-HD" transform="translate(-437.000000, -2851.000000)" fill="#000D1F" fill-rule="nonzero">
            <g id="Stat-block" transform="translate(370.000000, 2706.000000)">
                <g id="Group-34" transform="translate(0.000000, 80.000000)">
                    <g id="Group-31">
                        <g id="repair-(1)" transform="translate(67.000000, 65.000000)">
                            <path d="M45.6214127,19.1848693 L41.324139,18.770727 C40.8681441,16.9411671 40.1319356,15.1929209 39.1422194,13.587771 L41.8813776,10.2810108 C42.1504305,9.95655296 42.1281091,9.48102673 41.8303571,9.1832749 L37.1823183,4.53483735 C36.8845663,4.23708551 36.4090402,4.21516265 36.0845822,4.48381694 L32.7754305,7.22377235 C31.1674904,6.24123082 29.4212372,5.50542092 27.5948661,5.04105551 L27.1803253,0.737802959 C27.1400669,0.319276122 26.7881059,0 26.3675861,0 L20.0151467,0 C19.5946269,0 19.2430644,0.319276122 19.2028061,0.737802959 L18.7878667,5.04105551 C16.9614955,5.50502235 15.2152423,6.24123082 13.6073022,7.22377235 L10.2981505,4.4830198 C9.97409122,4.21436541 9.4985651,4.23628827 9.20041449,4.5340402 L4.55237561,9.18287633 C4.25462367,9.48102673 4.23230224,9.95655296 4.5013552,10.2810108 L7.23971622,13.5873724 C6.24920286,15.1925223 5.51259571,16.9411671 5.05620214,18.7711256 L0.761320204,19.1856664 C0.343590612,19.2263234 0.0259087755,19.5782845 0.0278884223,19.998007 L0.0278884223,26.5876116 C0.0255102041,27.0069356 0.343191939,27.3592953 0.760921531,27.3999521 L5.06098531,27.814493 C5.52455357,29.6404655 6.2599649,31.3871173 7.24210776,32.9950573 L4.50095663,36.3038106 C4.21994582,36.6430165 4.25860969,37.144053 4.58864796,37.4362245 L8.11423786,40.5544484 C8.28842469,40.7087053 8.52040816,40.78125 8.75199296,40.7537468 C8.98317918,40.725845 9.19164541,40.6006856 9.32477673,40.4097577 L14.391741,33.1393495 C14.6177455,32.8148916 14.5786831,32.3748406 14.298868,32.0950255 C9.43757969,27.2337372 9.43718112,19.3514828 14.298868,14.4897959 C19.1605549,9.62810908 27.0428093,9.62810908 31.9044961,14.4897959 C36.7661831,19.3514828 36.7661831,27.2337372 31.9044961,32.0950255 C31.6210938,32.378428 31.58522,32.8252551 31.819595,33.1501116 L37.0647321,40.4201212 C37.199458,40.6070632 37.4071269,40.7282366 37.6363202,40.7537468 C37.8655134,40.779257 38.0947066,40.7067123 38.2672991,40.5540498 L41.7940848,37.4370216 C42.1241231,37.1452488 42.1631856,36.6438138 41.8817761,36.3042092 L39.1414222,32.9950573 C40.1239637,31.3871173 40.8597736,29.6408642 41.3237404,27.814493 L45.6214127,27.3999521 C46.0391422,27.3592953 46.356824,27.0069356 46.3544459,26.5876116 L46.3544459,19.9972098 C46.3564254,19.5778858 46.0391422,19.2255261 45.6214127,19.1848693 L45.6214127,19.1848693 Z M44.7217794,25.8458227 L40.581553,26.2452168 C40.2299904,26.2790976 39.9406091,26.5361927 39.8652743,26.8813776 C39.4152583,28.9225924 38.5969388,30.8645567 37.4509726,32.612803 C37.2548629,32.9125479 37.2771843,33.3051658 37.5055804,33.5805963 L40.1203763,36.7370855 L37.8615274,38.7340561 L33.5399394,32.7439413 C38.5439254,27.2237723 38.3836894,18.6599171 33.0588329,13.3350606 C27.5685587,7.84478633 18.6348055,7.84478633 13.1445312,13.3350606 C7.81688459,18.6627072 7.65943878,27.23294 12.6709981,32.7523118 L8.50924745,38.7240912 L6.26195796,36.7366868 L8.8763552,33.5801978 C9.10475122,33.30397 9.12667408,32.9117506 8.93056439,32.6120057 C7.78419959,30.8641582 6.96548153,28.9221939 6.5142698,26.8813776 C6.44013071,26.5365912 6.15154653,26.2794961 5.80078122,26.2452168 L1.6605549,25.8458227 L1.6605549,20.7393973 L5.80078122,20.3396046 C6.15393816,20.3053253 6.44411673,20.0466358 6.51785714,19.699458 C6.95711102,17.6578444 7.77543051,15.7170759 8.92976724,13.9768016 C9.12826847,13.6766582 9.10674429,13.2820471 8.87715245,13.0050223 L6.23246173,9.81186224 L9.82940051,6.2145249 L13.0225606,8.85881694 C13.2983897,9.08761163 13.6910077,9.10953449 13.990354,8.91302612 C15.7382015,7.76666133 17.6801658,6.94794327 19.7209821,6.4971301 C20.0665657,6.42059949 20.3232621,6.13042092 20.3571429,5.7784598 L20.7565369,1.63305163 L25.6261958,1.63305163 L26.0259886,5.7784598 C26.0598693,6.13042092 26.3165657,6.42059949 26.6617506,6.4971301 C28.7029655,6.94794327 30.6449298,7.76706 32.3927774,8.91342469 C32.6921237,9.10993306 33.0847417,9.0880102 33.3605708,8.85921551 L36.5533322,6.21492347 L40.150271,9.81186224 L37.505979,13.0050223 C37.2767857,13.2820471 37.2556601,13.6766582 37.4541613,13.9764031 C38.6088967,15.7166773 39.4272162,17.6578444 39.8668686,19.699458 C39.9394133,20.0462372 40.2287947,20.3053253 40.5811543,20.3396046 L44.7217794,20.7389988 L44.7217794,25.8458227 Z" id="Shape"></path>
                            <path d="M26.0379464,37.658243 L26.0379464,25.263074 C28.0955039,24.0748565 29.4463489,21.8191964 29.4463489,19.4945791 C29.4463489,16.3181601 27.6299427,14.0047035 24.5874521,13.3067602 C24.3339445,13.2485651 24.068479,13.3143336 23.871572,13.4837372 C23.6750638,13.6535396 23.5706314,13.9066486 23.5905612,14.1657366 L23.8604113,17.6299427 C23.1788106,17.9874841 22.3656729,17.9878827 21.6836735,17.6307398 L21.973852,14.1474011 C21.9961735,13.879544 21.8853635,13.6180644 21.6772959,13.4478635 C21.4692284,13.2776627 21.1910077,13.2206633 20.9331154,13.2955995 C18.1505102,14.1015624 16.4170121,16.4947386 16.4170121,19.5420121 C16.4170121,22.3389668 17.884646,24.6014031 20.3336256,25.5819515 L20.3336256,37.9292889 C18.5989317,38.9532845 16.9276148,41.0311703 16.9539222,43.6750638 C16.9539222,46.825574 18.75,49.1545759 21.7530294,49.9059311 C22.0081314,49.9697066 22.2779815,49.9071269 22.4788744,49.7377233 C22.6797672,49.5683195 22.7869898,49.3128189 22.76706,49.0509407 L22.4984056,45.5871333 C23.1796078,45.2295918 23.9931441,45.2291933 24.6751435,45.5859376 L24.3849649,49.0696747 C24.3626435,49.3375318 24.4734535,49.5990114 24.681521,49.7692123 C24.8895887,49.9394133 25.1678093,49.9964127 25.4257015,49.9214764 C28.1947545,49.1191008 29.9318399,46.7378827 29.9597418,43.6981824 C29.9601403,40.9008291 28.4733737,38.6387914 26.0379464,37.658243 L26.0379464,37.658243 Z M26.1252392,47.847178 L26.3424745,45.2367665 C26.3655931,44.9589445 26.2456154,44.6886958 26.0239955,44.5196907 L25.9933036,44.4961735 C24.5559631,43.4052137 22.5645727,43.4183673 21.1419802,44.5280612 C20.9283322,44.6966678 20.8127392,44.9609376 20.8338648,45.232382 L21.042331,47.9177296 C19.4706633,47.1344866 18.591757,45.6381537 18.591757,43.6670918 C18.5706314,41.5194515 20.0829082,39.8266103 21.5015147,39.1617506 C21.7873087,39.0270249 21.9686703,38.7384407 21.9666773,38.4223533 L21.9666773,25.0035873 C21.9686703,24.6444515 21.7346939,24.3267698 21.3911033,24.2219388 C19.3299586,23.599729 18.0524553,21.8064413 18.0524553,19.5412149 C18.0524553,17.7168367 18.8639988,16.2085459 20.232382,15.3691008 L20.0159439,17.9795121 C19.9928253,18.2577328 20.1132015,18.5283801 20.3356186,18.6969866 L20.365912,18.7201052 C21.8012596,19.8106664 23.7906569,19.7991071 25.2128508,18.6922035 C25.2200255,18.6866231 25.2279974,18.6802455 25.2347736,18.6746652 C25.4380581,18.5052614 25.5464764,18.2477679 25.526148,17.9838967 L25.3148916,15.2698501 C26.9180485,16.0212053 27.814493,17.5107621 27.814493,19.4949777 C27.814493,21.3444674 26.6047512,23.2106984 24.872449,24.0334024 C24.5878508,24.1685267 24.4064892,24.4555165 24.4064892,24.7708067 L24.4064892,38.2362086 C24.4064892,38.5961416 24.6424586,38.9134247 24.9868463,39.0174586 C27.0483897,39.6400669 28.3282845,41.4333546 28.3282845,43.6910077 C28.3107461,45.5074139 27.4924266,47.010523 26.1256378,47.847178 L26.1252392,47.847178 Z" id="Shape"></path>
                        </g>
                    </g>
                </g>
            </g>
        </g>
    </g>
</svg>