<?xml version="1.0" encoding="UTF-8"?>
<svg width="20px" height="20px" viewBox="0 0 20 20" version="1.1" xmlns="http://www.w3.org/2000/svg" xmlns:xlink="http://www.w3.org/1999/xlink">
    <!-- Generator: Sketch 64 (93537) - https://sketch.com -->
    <title>question (2)</title>
    <desc>Created with Sketch.</desc>
    <g id="Page-1" stroke="none" stroke-width="1" fill="none" fill-rule="evenodd">
        <g id="Desktop-HD" transform="translate(-483.000000, -3663.000000)" fill="#FF0055" fill-rule="nonzero">
            <g id="footer" transform="translate(0.000000, 3523.000000)">
                <g id="Group-35" transform="translate(482.000000, 93.000000)">
                    <g id="Group-11" transform="translate(1.000000, 45.000000)">
                        <g id="question-(2)" transform="translate(0.000000, 2.000000)">
                            <path d="M12.6717187,13.3339844 L12.6707422,13.3339844 C12.4866406,13.3340625 12.3375,13.4833984 12.3375781,13.6675 C12.3376562,13.8516016 12.4869922,14.0007422 12.6710937,14.0006641 L12.6717578,14.0006641 C12.855625,14.0008594 13.0046875,14.1497656 13.0050781,14.3336719 C13.0052734,14.5176172 13.1544531,14.6666406 13.3383984,14.6666797 L13.33875,14.6666797 C13.5228516,14.6664844 13.6719141,14.5171094 13.6717579,14.3330078 C13.6705859,13.7813281 13.2233594,13.3346094 12.6717187,13.3339844 Z" id="Path"></path>
                            <path d="M8.66699219,14.6673438 L9.33367187,14.6666797 C9.51777344,14.6666016 9.66691406,14.5172656 9.66683597,14.3331641 C9.66675781,14.1490625 9.51742187,13.9999219 9.33332031,14 L9.33296875,14 L8.66628906,14.0006641 C8.4821875,14.0007422 8.33304687,14.1500781 8.33312497,14.3341797 C8.33320312,14.5182812 8.48253906,14.6674219 8.66664062,14.6673438 L8.66699219,14.6673438 Z" id="Path"></path>
                            <path d="M8.79800781,13.2825391 L9.42464844,13.5099219 C9.53671875,13.5510937 9.66222656,13.5291797 9.75375,13.4525 C9.84527344,13.3758203 9.88875,13.2560156 9.86777344,13.1385156 C9.84679687,13.0209766 9.76457031,12.9236328 9.6521875,12.8833203 L9.02554687,12.6559375 C8.85269531,12.5938281 8.6621875,12.6832031 8.59949219,12.8558594 C8.53679687,13.0284766 8.62558594,13.2192969 8.79800781,13.2825391 Z" id="Path"></path>
                            <path d="M9.75445313,15.2212109 C9.66316406,15.1447266 9.53800781,15.1227734 9.42613281,15.1635937 L8.79984375,15.3921094 C8.68796875,15.4329297 8.60636719,15.5303516 8.58578125,15.6476172 C8.56519531,15.7649219 8.60875,15.8842969 8.70003906,15.9607812 C8.79132813,16.0372656 8.91648438,16.0592187 9.02835938,16.0183984 L9.65464844,15.7898828 C9.76652344,15.7490625 9.848125,15.6516406 9.86871094,15.534375 C9.88929688,15.4170703 9.84574219,15.2976953 9.75445313,15.2212109 Z" id="Path"></path>
                            <path d="M16.6666797,13.9993359 L16.6666797,13.9993359 L16.6663281,13.9993359 L15.9996484,14 C15.8164844,14.0013672 15.66875,14.1503125 15.6688281,14.3334766 C15.6689062,14.5166406 15.8167969,14.6654297 15.9999609,14.6666406 L16.0002734,14.6666406 L16.6669531,14.6659766 C16.8510547,14.6658984 17.0001953,14.5165625 17.0001172,14.3324609 C17.0000391,14.1483594 16.8507812,13.9992578 16.6666797,13.9993359 Z" id="Path"></path>
                            <path d="M15.8030469,13.5245703 L15.8030469,13.5245703 C15.8420312,13.5244922 15.8807031,13.5175781 15.9173047,13.5042187 L16.5434375,13.2757031 C16.6553125,13.2348828 16.7369141,13.1374609 16.7575,13.0201953 C16.7780859,12.9029297 16.7345312,12.7835156 16.6432422,12.7070312 C16.5519531,12.6305469 16.4267969,12.6085937 16.3149219,12.6494141 L15.6887891,12.8779297 C15.536875,12.9333984 15.4466797,13.0898828 15.4748047,13.2491406 C15.5029297,13.4083984 15.6413281,13.5245313 15.8030469,13.5245703 Z" id="Path"></path>
                            <path d="M16.5454297,15.3854297 L15.9187891,15.1578906 C15.7459375,15.0957812 15.5554297,15.1851562 15.4927344,15.3578125 C15.4300391,15.5304687 15.5188281,15.72125 15.69125,15.7845312 L16.3178906,16.0120703 C16.4906641,16.0739063 16.6809375,15.9844922 16.7435547,15.8120312 C16.8061719,15.6394922 16.7176172,15.4488281 16.5454297,15.3854297 Z" id="Path"></path>
                            <path d="M6.88871094,1.33578125 C5.6446875,1.39527344 4.66664063,2.42121094 4.66664063,3.66664063 C4.66664063,3.85074219 4.81585938,3.99996094 4.99996094,3.99996094 C5.1840625,3.99996094 5.33328125,3.85070313 5.33328125,3.66664063 C5.3325,3.164375 5.55898438,2.68875 5.94933594,2.37269531 C6.34558594,2.0534375 6.86488281,1.93039063 7.36226563,2.03789063 C7.99609375,2.17542969 8.49113281,2.67050781 8.62871094,3.30433594 C8.72863281,3.75726563 8.63566406,4.23136719 8.37207031,4.61300781 C8.10847656,4.99464844 7.69800781,5.24945313 7.2390625,5.31636719 C6.91191406,5.36386719 6.66859375,5.64335938 6.66664063,5.97390625 L6.66664063,6.33328125 C6.66664063,6.51738281 6.81585938,6.66660156 6.99996094,6.66660156 C7.1840625,6.66660156 7.33328125,6.51738281 7.33328125,6.33328125 L7.3334375,5.97617187 C8.56609375,5.79828125 9.44183594,4.68371094 9.32300781,3.44394531 C9.20421875,2.20425781 8.13273438,1.27628906 6.88871094,1.33578125 Z" id="Path"></path>
                            <path d="M7.23667969,7.43 C7.20425781,7.40054687 7.16707031,7.37679687 7.12664062,7.35984375 C7.04542969,7.32664062 6.95445312,7.32664062 6.87324219,7.35984375 C6.83246094,7.37597656 6.79515625,7.39980469 6.76335937,7.43 C6.73390625,7.46234375 6.71015625,7.49953125 6.69320312,7.53988281 C6.67613281,7.58 6.66714844,7.62308594 6.66667969,7.66667969 C6.6671875,7.68902344 6.66945312,7.71125 6.67335937,7.73324219 C6.67691406,7.75414062 6.68363281,7.774375 6.69320312,7.79328125 C6.70050781,7.81453125 6.71066406,7.83476562 6.72332031,7.85335937 C6.73664062,7.86996094 6.75,7.8865625 6.76335937,7.90332031 C6.82726562,7.96417969 6.91179687,7.99867187 7,8 C7.04371094,8.00113281 7.08707031,7.99199219 7.12664062,7.97332031 C7.16699219,7.95636719 7.20421875,7.93269531 7.23667969,7.90332031 C7.25,7.8865625 7.26335937,7.86996094 7.2765625,7.85335937 C7.28921875,7.83476562 7.29933594,7.81457031 7.30667969,7.79328125 C7.31625,7.77433594 7.32300781,7.75410156 7.32671875,7.73324219 C7.33054687,7.71125 7.33277344,7.68898437 7.33339844,7.66667969 C7.33289062,7.62308594 7.32382812,7.58 7.30671875,7.53988281 C7.2896875,7.49957031 7.26601562,7.46242187 7.23667969,7.43 Z" id="Path"></path>
                            <path d="M14.6666797,8 L14.6666797,1.33332031 C14.6658203,0.597304688 14.069375,0.000859375 13.3333203,0 L1.33332031,0 C0.597304688,0.000859375 0.000859375,0.597304688 0,1.33332031 L0,8 C0.000859375,8.73601563 0.597304688,9.3325 1.33332031,9.33332031 L1.66664063,9.33332031 L1.66664063,11.3326563 C1.66640625,11.6024219 1.82878906,11.8457031 2.07800781,11.9489453 C2.32722656,12.0521875 2.61410156,11.9949609 2.80464844,11.8040234 C2.81265625,11.7961719 2.82015625,11.7878906 2.82710938,11.7791016 L4.82464844,9.33332031 L13.3332813,9.33332031 C14.069375,9.3325 14.6658203,8.73601563 14.6666797,8 Z M4.66667969,8.66667969 C4.66105469,8.66667969 4.65640625,8.66960938 4.65085938,8.66988281 C4.60800781,8.67632813 4.56582031,8.68671875 4.52492188,8.70097656 C4.50757813,8.71050781 4.49113281,8.72160156 4.47578125,8.73410156 C4.45601563,8.74703125 4.43769531,8.76203125 4.42117188,8.77886719 C4.41742188,8.78304688 4.4121875,8.78480469 4.40855469,8.78921875 L2.33335938,11.3299219 L2.33335938,9 C2.33335938,8.81589844 2.18414063,8.66667969 2.00003906,8.66667969 L1.33332031,8.66667969 C0.965273438,8.66632813 0.66703125,8.36804688 0.666640625,8 L0.666640625,1.33332031 C0.666992188,0.965273438 0.965273438,0.66703125 1.33332031,0.666640625 L13.3333203,0.666640625 C13.7013672,0.666992188 13.9996094,0.965273438 14,1.33332031 L14,8 C13.9996484,8.36804688 13.7013672,8.66628906 13.3333203,8.66667969 L4.66667969,8.66667969 Z" id="Shape"></path>
                            <path d="M18.6666797,10.6666797 L18.3333594,10.6666797 L18.3333594,8.66734375 C18.3333203,8.39773438 18.1708984,8.15464844 17.9217969,8.05148438 C17.6726953,7.94832031 17.3859766,8.00535156 17.1953125,8.19597656 C17.1873047,8.20382813 17.1798047,8.21210938 17.1728516,8.22089844 L15.1753125,10.6666797 L6.66667969,10.6666797 C5.93066406,10.6675391 5.33417969,11.2639844 5.33335937,12 L5.33335937,18.6666797 C5.33421875,19.4026953 5.93066406,19.9991797 6.66667969,20 L18.6666797,20 C19.4026953,19.9991406 19.9991797,19.4026953 20,18.6666797 L20,12 C19.9991406,11.2639844 19.4026953,10.6675 18.6666797,10.6666797 Z M19.3333203,18.6666797 C19.3329687,19.0347266 19.0346875,19.3329687 18.6666406,19.3333594 L6.66664062,19.3333594 C6.29859375,19.3330078 6.00035156,19.0347266 5.99996094,18.6666797 L5.99996094,12 C6.0003125,11.6319531 6.29859375,11.3337109 6.66664062,11.3333203 L15.3333203,11.3333203 C15.3799609,11.3330469 15.4260156,11.3228906 15.4684375,11.3034766 C15.4783203,11.2975 15.4879297,11.2910547 15.4971484,11.2841016 C15.5278516,11.2672266 15.5557031,11.2455859 15.5795703,11.2199609 C15.5830469,11.2160938 15.588125,11.2148047 15.5914453,11.2107422 L17.6666406,8.67003906 L17.6666406,11 C17.6666406,11.1841016 17.8158984,11.3333203 17.9999609,11.3333203 L18.6666406,11.3333203 C19.0346875,11.3336719 19.3329297,11.6319531 19.3333203,12 L19.3333203,18.6666797 Z" id="Shape"></path>
                            <path d="M12.9472656,12.0166016 C11.9123828,11.8908203 10.9196875,12.4670313 10.515625,13.4280469 C10.1115625,14.3890625 10.3942969,15.5015234 11.2081641,16.1530078 C11.2869141,16.215 11.3330469,16.3096094 11.3333203,16.4098438 L11.3333203,16.6666797 C11.3340625,16.9035937 11.4608984,17.1221875 11.66625,17.2404297 L11.6666406,17.6670313 C11.6677734,17.9880859 11.8224609,18.2892187 12.0828125,18.4770703 C12.2523438,18.6001563 12.4564844,18.6663672 12.6659766,18.6662112 C12.7775,18.6660156 12.8882813,18.6479688 12.9941016,18.6126563 C13.4065234,18.4655078 13.6779297,18.0702734 13.6671094,17.6325 L13.6667969,17.2405469 C13.8722656,17.1223828 13.9992188,16.9037109 13.9999609,16.6666797 L13.9999609,16.4108203 C14.0020703,16.3069141 14.0512109,16.2095703 14.1335938,16.1461719 C14.7874219,15.6219531 15.1074219,14.785625 14.9705078,13.9588281 C14.7964453,12.9370313 13.9753125,12.1488281 12.9472656,12.0166016 Z M12.7846484,17.9798047 C12.68,18.0174219 12.5635547,18.00125 12.473125,17.9365234 C12.3858984,17.8740625 12.3339063,17.7735938 12.3333203,17.6663281 L12.3329688,17.3333203 L13.0003125,17.3333203 L13.0004688,17.633125 C13.0073438,17.7822656 12.9215234,17.9201563 12.7846484,17.9798047 Z M13.7148438,15.6274609 C13.4753125,15.8171094 13.3349609,16.1053125 13.3333203,16.4108203 L13.3333203,16.6655469 L13.3329688,16.6655469 L11.9999609,16.6666797 L11.9999609,16.4098438 C12.0001563,16.1069141 11.8618359,15.8205469 11.6244922,15.6323438 C11.0734766,15.1900391 10.8613672,14.4482813 11.0951953,13.7815234 C11.3290234,13.1147656 11.9579688,12.6679688 12.6645313,12.6666797 C12.7330078,12.6666797 12.8014453,12.6706641 12.8694531,12.6787109 C13.6021875,12.7726563 14.1875781,13.3341797 14.3119922,14.0623438 C14.4103516,14.6535938 14.1820703,15.2519531 13.7148438,15.6274609 Z" id="Shape"></path>
                        </g>
                    </g>
                </g>
            </g>
        </g>
    </g>
</svg>