<?xml version="1.0" encoding="UTF-8"?>
<svg width="20px" height="20px" viewBox="0 0 20 20" version="1.1" xmlns="http://www.w3.org/2000/svg" xmlns:xlink="http://www.w3.org/1999/xlink">
    <!-- Generator: Sketch 64 (93537) - https://sketch.com -->
    <title>settings (1)</title>
    <desc>Created with Sketch.</desc>
    <g id="Page-1" stroke="none" stroke-width="1" fill="none" fill-rule="evenodd">
        <g id="Desktop-HD" transform="translate(-151.000000, -3708.000000)" fill="#FF0055" fill-rule="nonzero">
            <g id="footer" transform="translate(0.000000, 3523.000000)">
                <g id="Group-35" transform="translate(150.000000, 93.000000)">
                    <g id="Group-11" transform="translate(1.000000, 90.000000)">
                        <g id="settings-(1)" transform="translate(0.000000, 2.000000)">
                            <path d="M10,5.21911621 C7.3638916,5.21911621 5.21911621,7.3638916 5.21911621,10 C5.21911621,12.6361084 7.3638916,14.7808838 10,14.7808838 C12.6361084,14.7808838 14.7808838,12.6361084 14.7808838,10 C14.7808838,7.3638916 12.6361084,5.21911621 10,5.21911621 Z M10,13.5856629 C8.02291871,13.5856629 6.41433715,11.9770813 6.41433715,10 C6.41433715,8.02291871 8.02291871,6.41433715 10,6.41433715 C11.9770813,6.41433715 13.5856629,8.02291871 13.5856629,10 C13.5856629,11.9770813 11.9770813,13.5856629 10,13.5856629 Z" id="Shape"></path>
                            <path d="M19.5294189,7.72277832 L17.9922485,7.38861086 C17.8585816,6.97937012 17.6930237,6.5802002 17.4975586,6.19567871 L18.3485412,4.87197875 C18.5005188,4.63546754 18.467102,4.32495117 18.2684326,4.12628172 L15.8737183,1.73156738 C15.6750488,1.53289797 15.3645325,1.49948121 15.1280212,1.65145875 L13.8043213,2.50244141 C13.4197998,2.30697633 13.0206299,2.14141844 12.6113891,2.00775148 L12.2772217,0.470581055 C12.2175598,0.195922852 11.9743347,0 11.6932678,0 L8.30673219,0 C8.02566527,0 7.7824402,0.195922852 7.72277832,0.470581055 L7.38861086,2.00775148 C6.97937012,2.14141844 6.5802002,2.30697633 6.19567871,2.50244141 L4.87197875,1.65145875 C4.63546754,1.49948121 4.32495117,1.53289797 4.12628172,1.73156738 L1.73156738,4.12628172 C1.53289797,4.32495117 1.49948121,4.63546754 1.65145875,4.87197875 L2.50244141,6.19567871 C2.30697633,6.5802002 2.14141844,6.97937012 2.00775148,7.38861086 L0.470581055,7.72277832 C0.195922852,7.78259277 4.4408921e-15,8.02566527 4.4408921e-15,8.30673219 L4.4408921e-15,11.6932678 C4.4408921e-15,11.9743347 0.195922852,12.2174072 0.470581055,12.2772217 L2.00775148,12.6113891 C2.14141844,13.0206299 2.30697633,13.4197998 2.50244141,13.8043213 L1.65145875,15.1280212 C1.49948121,15.3645325 1.53289797,15.6750488 1.73156738,15.8737183 L4.12628172,18.2684326 C4.32495117,18.467102 4.63546754,18.5005188 4.87197875,18.3485412 L6.19567871,17.4975586 C6.5802002,17.6930237 6.97937012,17.8585816 7.38861086,17.9922485 L7.72277832,19.5294189 C7.7824402,19.8040771 8.02566527,20 8.30673219,20 L11.6932678,20 C11.9743347,20 12.2175598,19.8040771 12.2772217,19.5294189 L12.6113891,17.9922485 C13.0206299,17.8585816 13.4197998,17.6930237 13.8043213,17.4975586 L15.1280212,18.3485412 C15.3645325,18.5005188 15.6750488,18.4672546 15.8737183,18.2684326 L18.2684326,15.8737183 C18.467102,15.6750488 18.5005188,15.3645325 18.3485412,15.1280212 L17.4975586,13.8043213 C17.6930237,13.4197998 17.8585816,13.0206299 17.9922485,12.6113891 L19.5294189,12.2772217 C19.8040771,12.2174072 20,11.9743347 20,11.6932678 L20,8.30673219 C20,8.02566527 19.8040771,7.78259277 19.5294189,7.72277832 Z M18.8047791,11.2115479 L17.3953247,11.5179443 C17.1788025,11.565094 17.006073,11.7280579 16.9465637,11.9413757 C16.791687,12.4969482 16.5689087,13.0342102 16.2844848,13.538208 C16.1755371,13.7312317 16.182251,13.9686584 16.3021851,14.1551209 L17.0826721,15.3691101 L15.3692627,17.0826721 L14.1551209,16.3021851 C13.9686584,16.182251 13.7312317,16.1755371 13.5383606,16.2844848 C13.0342102,16.5689087 12.4969482,16.791687 11.9413757,16.9465637 C11.7280579,17.006073 11.565094,17.1788025 11.5179443,17.3953247 L11.2115479,18.8047791 L8.78845215,18.8047791 L8.48205566,17.3953247 C8.43490602,17.1788025 8.27194215,17.006073 8.05862426,16.9465637 C7.50305176,16.791687 6.9657898,16.5689087 6.46179199,16.2844848 C6.26876832,16.1755371 6.03134156,16.1824036 5.84487914,16.3021851 L4.63088988,17.0826721 L2.91748047,15.3691101 L3.69781492,14.1551209 C3.81774902,13.9686584 3.82461547,13.7312317 3.71566773,13.538208 C3.43124391,13.0342102 3.20846559,12.4969482 3.05343629,11.9413757 C2.99392699,11.7280579 2.82135008,11.565094 2.60482789,11.5179443 L1.19522094,11.2115479 L1.19522094,8.78845215 L2.60467531,8.48205566 C2.8211975,8.43490602 2.99392699,8.27194215 3.05343629,8.05862426 C3.20831297,7.50305176 3.43109133,6.9657898 3.71551516,6.46179199 C3.82446289,6.26876832 3.81774902,6.03134156 3.69781492,5.84487914 L2.91732789,4.63088988 L4.6307373,2.91732789 L5.84487914,3.69781492 C6.03134156,3.81774902 6.26876832,3.82446289 6.46163941,3.71551516 C6.9657898,3.43109133 7.50305176,3.20831297 8.05862426,3.05343629 C8.27194215,2.99392699 8.43490602,2.8211975 8.48205566,2.60467531 L8.78845215,1.19522094 L11.2115479,1.19522094 L11.5179443,2.60467531 C11.565094,2.8211975 11.7280579,2.99392699 11.9413757,3.05343629 C12.4969482,3.20831297 13.0342102,3.43109133 13.538208,3.71551516 C13.7312317,3.82446289 13.9686584,3.81759645 14.1551209,3.69781492 L15.3691101,2.91732789 L17.0825195,4.63088988 L16.3021851,5.84487914 C16.182251,6.03134156 16.1753845,6.26876832 16.2843323,6.46179199 C16.5689087,6.9657898 16.7915344,7.50305176 16.9465637,8.05862426 C17.006073,8.27194215 17.1786499,8.43490602 17.3951721,8.48205566 L18.8047791,8.78845215 L18.8047791,11.2115479 Z" id="Shape"></path>
                        </g>
                    </g>
                </g>
            </g>
        </g>
    </g>
</svg>