<?xml version="1.0" encoding="UTF-8"?>
<svg width="24px" height="20px" viewBox="0 0 24 20" version="1.1" xmlns="http://www.w3.org/2000/svg" xmlns:xlink="http://www.w3.org/1999/xlink">
    <!-- Generator: Sketch 64 (93537) - https://sketch.com -->
    <title>telegram</title>
    <desc>Created with Sketch.</desc>
    <g id="Page-1" stroke="none" stroke-width="1" fill="none" fill-rule="evenodd">
        <g id="Desktop-HD" transform="translate(-938.000000, -3663.000000)" fill="#F9F8FF" fill-rule="nonzero">
            <g id="footer" transform="translate(0.000000, 3523.000000)">
                <g id="Group-41" transform="translate(938.000000, 99.000000)">
                    <g id="Group-37" transform="translate(0.000000, 39.000000)">
                        <g id="telegram" transform="translate(0.000000, 2.000000)">
                            <path d="M9.38784085,13.1403419 L8.99207762,18.7069463 C9.55830814,18.7069463 9.80354179,18.4637064 10.0976228,18.1716192 L12.7523268,15.6345475 L18.2531368,19.6629587 C19.2619842,20.2252017 19.972763,19.929127 20.2449125,18.7348591 L23.855629,1.81573133 L23.8566259,1.81473445 C24.1766259,0.323394883 23.3173113,-0.259782687 22.3343829,0.106074011 L1.1107069,8.23168149 C-0.337766622,8.79392448 -0.315835158,9.60140111 0.864476369,9.96725781 L6.29051998,11.6549837 L18.8941337,3.76862853 C19.4872801,3.37585594 20.0265947,3.59317681 19.582981,3.9859494 L9.38784085,13.1403419 Z" id="Path"></path>
                        </g>
                    </g>
                </g>
            </g>
        </g>
    </g>
</svg>