<?xml version="1.0" encoding="UTF-8"?>
<svg width="82px" height="25px" viewBox="0 0 82 25" version="1.1" xmlns="http://www.w3.org/2000/svg" xmlns:xlink="http://www.w3.org/1999/xlink">
    <!-- Generator: Sketch 64 (93537) - https://sketch.com -->
    <title>visa (1)</title>
    <desc>Created with Sketch.</desc>
    <g id="Page-1" stroke="none" stroke-width="1" fill="none" fill-rule="evenodd">
        <g id="Desktop-HD" transform="translate(-1215.000000, -3641.000000)" fill-rule="nonzero">
            <g id="footer" transform="translate(0.000000, 3523.000000)">
                <g id="Group-40" transform="translate(1183.000000, 54.000000)">
                    <g id="Group-39" transform="translate(24.000000, 24.000000)">
                        <g id="visa-(1)" transform="translate(8.000000, 40.000000)">
                            <polygon id="Path" fill="#3C58BF" points="30 24.2532468 34.1558442 0.876623377 40.6493506 0.876623377 36.6233766 24.2532468"></polygon>
                            <polygon id="Path" fill="#293688" points="30 24.2532468 35.3246753 0.876623377 40.6493506 0.876623377 36.6233766 24.2532468"></polygon>
                            <path d="M60.1298701,1.13636364 C58.8311688,0.616883117 56.7532468,0.0974025974 54.1558442,0.0974025974 C47.6623377,0.0974025974 42.987013,3.34415584 42.987013,8.01948052 C42.987013,11.525974 46.2337662,13.3441558 48.8311688,14.512987 C51.4285714,15.6818182 52.2077922,16.461039 52.2077922,17.5 C52.2077922,19.0584416 50.1298701,19.8376623 48.3116883,19.8376623 C45.7142857,19.8376623 44.2857143,19.4480519 42.0779221,18.538961 L41.1688312,18.1493506 L40.2597403,23.474026 C41.8181818,24.1233766 44.6753247,24.7727273 47.6623377,24.7727273 C54.5454545,24.7727273 59.0909091,21.525974 59.0909091,16.5909091 C59.0909091,13.8636364 57.4025974,11.7857143 53.5064935,10.0974026 C51.1688312,8.92857143 49.7402597,8.27922078 49.7402597,7.11038961 C49.7402597,6.07142857 50.9090909,5.03246753 53.5064935,5.03246753 C55.7142857,5.03246753 57.2727273,5.42207792 58.4415584,5.94155844 L59.0909091,6.2012987 L60.1298701,1.13636364 L60.1298701,1.13636364 Z" id="Path" fill="#3C58BF"></path>
                            <path d="M60.1298701,1.13636364 C58.8311688,0.616883117 56.7532468,0.0974025974 54.1558442,0.0974025974 C47.6623377,0.0974025974 44.1558442,3.34415584 44.1558442,8.01948052 C44.1558442,11.525974 46.2337662,13.3441558 48.8311688,14.512987 C51.4285714,15.6818182 52.2077922,16.461039 52.2077922,17.5 C52.2077922,19.0584416 50.1298701,19.8376623 48.3116883,19.8376623 C45.7142857,19.8376623 44.2857143,19.4480519 42.0779221,18.538961 L41.1688312,18.1493506 L40.2597403,23.474026 C41.8181818,24.1233766 44.6753247,24.7727273 47.6623377,24.7727273 C54.5454545,24.7727273 59.0909091,21.525974 59.0909091,16.5909091 C59.0909091,13.8636364 57.4025974,11.7857143 53.5064935,10.0974026 C51.1688312,8.92857143 49.7402597,8.27922078 49.7402597,7.11038961 C49.7402597,6.07142857 50.9090909,5.03246753 53.5064935,5.03246753 C55.7142857,5.03246753 57.2727273,5.42207792 58.4415584,5.94155844 L59.0909091,6.2012987 L60.1298701,1.13636364 L60.1298701,1.13636364 Z" id="Path" fill="#293688"></path>
                            <path d="M71.2987013,0.876623377 C69.7402597,0.876623377 68.5714286,1.00649351 67.9220779,2.56493506 L58.1818182,24.2532468 L65.1948052,24.2532468 L66.4935065,20.3571429 L74.8051948,20.3571429 L75.5844156,24.2532468 L81.8181818,24.2532468 L76.3636364,0.876623377 L71.2987013,0.876623377 Z M68.3116883,16.461039 C68.7012987,15.2922078 70.9090909,9.57792208 70.9090909,9.57792208 C70.9090909,9.57792208 71.4285714,8.14935065 71.8181818,7.24025974 L72.2077922,9.44805195 C72.2077922,9.44805195 73.5064935,15.2922078 73.7662338,16.5909091 L68.3116883,16.5909091 L68.3116883,16.461039 Z" id="Shape" fill="#3C58BF"></path>
                            <path d="M72.8571429,0.876623377 C71.2987013,0.876623377 70.1298701,1.00649351 69.4805195,2.56493506 L58.1818182,24.2532468 L65.1948052,24.2532468 L66.4935065,20.3571429 L74.8051948,20.3571429 L75.5844156,24.2532468 L81.8181818,24.2532468 L76.3636364,0.876623377 L72.8571429,0.876623377 Z M68.3116883,16.461039 C68.8311688,15.1623377 70.9090909,9.57792208 70.9090909,9.57792208 C70.9090909,9.57792208 71.4285714,8.14935065 71.8181818,7.24025974 L72.2077922,9.44805195 C72.2077922,9.44805195 73.5064935,15.2922078 73.7662338,16.5909091 L68.3116883,16.5909091 L68.3116883,16.461039 Z" id="Shape" fill="#293688"></path>
                            <path d="M18.0519481,17.2402597 L17.4025974,13.8636364 C16.2337662,9.96753247 12.4675325,5.68181818 8.31168831,3.6038961 L14.1558442,24.3831169 L21.1688312,24.3831169 L31.6883117,1.00649351 L24.6753247,1.00649351 L18.0519481,17.2402597 Z" id="Path" fill="#3C58BF"></path>
                            <path d="M18.0519481,17.2402597 L17.4025974,13.8636364 C16.2337662,9.96753247 12.4675325,5.68181818 8.31168831,3.6038961 L14.1558442,24.3831169 L21.1688312,24.3831169 L31.6883117,1.00649351 L25.974026,1.00649351 L18.0519481,17.2402597 Z" id="Path" fill="#293688"></path>
                            <path d="M0,0.876623377 L1.16883117,1.13636364 C9.48051948,3.08441558 15.1948052,8.01948052 17.4025974,13.8636364 L15.0649351,2.82467532 C14.6753247,1.26623377 13.5064935,0.876623377 12.0779221,0.876623377 L0,0.876623377 L0,0.876623377 Z" id="Path" fill="#FFBC00"></path>
                            <path d="M0,0.876623377 L0,0.876623377 C8.31168831,2.82467532 15.1948052,7.88961039 17.4025974,13.7337662 L15.1948052,4.51298701 C14.8051948,2.95454545 13.5064935,2.04545455 12.0779221,2.04545455 L0,0.876623377 Z" id="Path" fill="#F7981D"></path>
                            <path d="M0,0.876623377 L0,0.876623377 C8.31168831,2.82467532 15.1948052,7.88961039 17.4025974,13.7337662 L15.8441558,8.66883117 C15.4545455,7.11038961 14.9350649,5.55194805 13.1168831,4.9025974 L0,0.876623377 Z" id="Path" fill="#ED7C00"></path>
                            <g id="Group" transform="translate(8.441558, 3.409091)" fill="#051244">
                                <path d="M16.1038961,13.0519481 L11.6883117,8.63636364 L9.61038961,13.5714286 L9.09090909,10.3246753 C7.92207792,6.42857143 4.15584416,2.14285714 0,0.0649350649 L5.84415584,20.8441558 L12.8571429,20.8441558 L16.1038961,13.0519481 Z" id="Path"></path>
                                <polygon id="Path" points="28.1818182 20.8441558 22.5974026 15.1298701 21.5584416 20.8441558"></polygon>
                                <path d="M43.1168831,12.7922078 L43.1168831,12.7922078 C43.6363636,13.3116883 43.8961039,13.7012987 43.7662338,14.2207792 C43.7662338,15.7792208 41.6883117,16.5584416 39.8701299,16.5584416 C37.2727273,16.5584416 35.8441558,16.1688312 33.6363636,15.2597403 L32.7272727,14.8701299 L31.8181818,20.1948052 C33.3766234,20.8441558 36.2337662,21.4935065 39.2207792,21.4935065 C43.3766234,21.4935065 46.7532468,20.3246753 48.7012987,18.2467532 L43.1168831,12.7922078 Z" id="Path"></path>
                                <path d="M50.6493506,20.8441558 L56.7532468,20.8441558 L58.0519481,16.9480519 L66.3636364,16.9480519 L67.1428571,20.8441558 L73.3766234,20.8441558 L71.1688312,11.3636364 L63.3766234,3.83116883 L63.7662338,5.90909091 C63.7662338,5.90909091 65.0649351,11.7532468 65.3246753,13.0519481 L59.8701299,13.0519481 C60.3896104,11.7532468 62.4675325,6.16883117 62.4675325,6.16883117 C62.4675325,6.16883117 62.987013,4.74025974 63.3766234,3.83116883" id="Path"></path>
                            </g>
                        </g>
                    </g>
                </g>
            </g>
        </g>
    </g>
</svg>